<?xml version="1.0" encoding="UTF-8" standalone="no"?>
<!-- Created with Inkscape (http://www.inkscape.org/) -->

<svg
   xmlns:dc="http://purl.org/dc/elements/1.1/"
   xmlns:cc="http://creativecommons.org/ns#"
   xmlns:rdf="http://www.w3.org/1999/02/22-rdf-syntax-ns#"
   xmlns:svg="http://www.w3.org/2000/svg"
   xmlns="http://www.w3.org/2000/svg"
   xmlns:sodipodi="http://sodipodi.sourceforge.net/DTD/sodipodi-0.dtd"
   xmlns:inkscape="http://www.inkscape.org/namespaces/inkscape"
   id="svg2"
   version="1.1"
   inkscape:version="0.48.2 r9819"
   viewBox="0 0 110 60"
   xml:space="preserve"
   sodipodi:docname="chm-logo.svg"><metadata
     id="metadata8"><rdf:RDF><cc:Work
         rdf:about=""><dc:format>image/svg+xml</dc:format><dc:type
           rdf:resource="http://purl.org/dc/dcmitype/StillImage" /><dc:title></dc:title></cc:Work></rdf:RDF></metadata><defs
     id="defs6"><radialGradient
       fx="0"
       fy="0"
       cx="0"
       cy="0"
       r="1"
       gradientUnits="userSpaceOnUse"
       gradientTransform="matrix(263.61191,0,0,-263.61191,301.22266,197.61133)"
       spreadMethod="pad"
       id="radialGradient24"><stop
         style="stop-opacity:1;stop-color:#ffffff"
         offset="0"
         id="stop26" /><stop
         style="stop-opacity:1;stop-color:#f4f4f4"
         offset="1"
         id="stop28" /></radialGradient><clipPath
       clipPathUnits="userSpaceOnUse"
       id="clipPath36"><path
         d="M 0,400 600,400 600,0 0,0 0,400 z"
         id="path38"
         inkscape:connector-curvature="0" /></clipPath><clipPath
       clipPathUnits="userSpaceOnUse"
       id="clipPath80"><path
         d="m 24.2607,40.4551 17.0323,0 0,-27.5069 -17.0323,0 0,27.5069 z"
         id="path82"
         inkscape:connector-curvature="0" /></clipPath><linearGradient
       x1="0"
       y1="0"
       x2="1"
       y2="0"
       gradientUnits="userSpaceOnUse"
       gradientTransform="matrix(8.585434,29.929672,29.929672,-8.585434,28.483398,11.736328)"
       spreadMethod="pad"
       id="linearGradient88"><stop
         style="stop-opacity:1;stop-color:#811651"
         offset="0"
         id="stop90" /><stop
         style="stop-opacity:1;stop-color:#ed157c"
         offset="1"
         id="stop92" /></linearGradient><clipPath
       clipPathUnits="userSpaceOnUse"
       id="clipPath112"><path
         d="m 14.3594,40.4561 17.0293,0 0,-27.5079 -17.0293,0 0,27.5079 z"
         id="path114"
         inkscape:connector-curvature="0" /></clipPath><linearGradient
       x1="0"
       y1="0"
       x2="1"
       y2="0"
       gradientUnits="userSpaceOnUse"
       gradientTransform="matrix(16.658508,-27.730698,-27.730698,-16.658508,11.666992,44.692383)"
       spreadMethod="pad"
       id="linearGradient120"><stop
         style="stop-opacity:1;stop-color:#2a367e"
         offset="0"
         id="stop122" /><stop
         style="stop-opacity:1;stop-color:#50aae3"
         offset="1"
         id="stop124" /></linearGradient><radialGradient
       fx="0"
       fy="0"
       cx="0"
       cy="0"
       r="1"
       gradientUnits="userSpaceOnUse"
       gradientTransform="matrix(20.054123,22.793884,22.789398,-20.050171,519.47168,101.57422)"
       spreadMethod="pad"
       id="radialGradient216"><stop
         style="stop-opacity:1;stop-color:#5bafd7"
         offset="0"
         id="stop218" /><stop
         style="stop-opacity:1;stop-color:#377c9d"
         offset="1"
         id="stop220" /></radialGradient><clipPath
       clipPathUnits="userSpaceOnUse"
       id="clipPath228"><path
         d="M 0,400 600,400 600,0 0,0 0,400 z"
         id="path230"
         inkscape:connector-curvature="0" /></clipPath><clipPath
       clipPathUnits="userSpaceOnUse"
       id="clipPath236"><path
         d="m 473.089,124.234 68.167,0 0,-44.107 -68.167,0 0,44.107 z"
         id="path238"
         inkscape:connector-curvature="0" /></clipPath><linearGradient
       x1="0"
       y1="0"
       x2="1"
       y2="0"
       gradientUnits="userSpaceOnUse"
       gradientTransform="matrix(2.2185059,-42.331558,-42.331558,-2.2185059,505.38867,124.18848)"
       spreadMethod="pad"
       id="linearGradient244"><stop
         style="stop-opacity:1;stop-color:#5bafd7"
         offset="0"
         id="stop246" /><stop
         style="stop-opacity:1;stop-color:#377c9d"
         offset="1"
         id="stop248" /></linearGradient><radialGradient
       fx="0"
       fy="0"
       cx="0"
       cy="0"
       r="1"
       gradientUnits="userSpaceOnUse"
       gradientTransform="matrix(12.457306,14.159195,14.156418,-12.454849,521.20703,63.139648)"
       spreadMethod="pad"
       id="radialGradient276"><stop
         style="stop-opacity:1;stop-color:#5bafd7"
         offset="0"
         id="stop278" /><stop
         style="stop-opacity:1;stop-color:#377c9d"
         offset="1"
         id="stop280" /></radialGradient><clipPath
       clipPathUnits="userSpaceOnUse"
       id="clipPath288"><path
         d="M 0,400 600,400 600,0 0,0 0,400 z"
         id="path290"
         inkscape:connector-curvature="0" /></clipPath><clipPath
       clipPathUnits="userSpaceOnUse"
       id="clipPath296"><path
         d="m 491.323,69.3984 42.897,0 0,-13.3193 -42.897,0 0,13.3193 z"
         id="path298"
         inkscape:connector-curvature="0" /></clipPath><linearGradient
       x1="0"
       y1="0"
       x2="1"
       y2="0"
       gradientUnits="userSpaceOnUse"
       gradientTransform="matrix(0.6245575,-11.917236,-11.917236,-0.6245575,512.58398,68.264648)"
       spreadMethod="pad"
       id="linearGradient304"><stop
         style="stop-opacity:1;stop-color:#5bafd7"
         offset="0"
         id="stop306" /><stop
         style="stop-opacity:1;stop-color:#377c9d"
         offset="1"
         id="stop308" /></linearGradient><radialGradient
       fx="0"
       fy="0"
       cx="0"
       cy="0"
       r="1"
       gradientUnits="userSpaceOnUse"
       gradientTransform="matrix(31.002533,0,0,-30.996414,499.21289,73.705078)"
       spreadMethod="pad"
       id="radialGradient336"><stop
         style="stop-opacity:1;stop-color:#78d3f6"
         offset="0"
         id="stop338" /><stop
         style="stop-opacity:1;stop-color:#51b2d9"
         offset="1"
         id="stop340" /></radialGradient><clipPath
       clipPathUnits="userSpaceOnUse"
       id="clipPath348"><path
         d="M 0,400 600,400 600,0 0,0 0,400 z"
         id="path350"
         inkscape:connector-curvature="0" /></clipPath><clipPath
       clipPathUnits="userSpaceOnUse"
       id="clipPath464"><path
         d="m 467.954,245.271 72.101,0 0,-68.575 -72.101,0 0,68.575 z"
         id="path466"
         inkscape:connector-curvature="0" /></clipPath><clipPath
       clipPathUnits="userSpaceOnUse"
       id="clipPath468"><path
         d="m 489.848,194.398 7.932,0 0,-17.702 -7.932,0 0,17.702 z"
         id="path470"
         inkscape:connector-curvature="0" /></clipPath><clipPath
       clipPathUnits="userSpaceOnUse"
       id="clipPath472"><path
         d="m 493.311,176.696 c -1.536,2.175 -2.705,4.577 -3.463,7.136 l 7.677,10.566 c 0.168,-1.169 0.255,-2.361 0.255,-3.57 0,-5.146 -1.562,-10.029 -4.469,-14.132"
         id="path474"
         inkscape:connector-curvature="0" /></clipPath><linearGradient
       x1="0"
       y1="0"
       x2="1"
       y2="0"
       gradientUnits="userSpaceOnUse"
       gradientTransform="matrix(7.9326172,0,0,-7.9326172,489.84766,185.54687)"
       spreadMethod="pad"
       id="linearGradient480"><stop
         style="stop-opacity:1;stop-color:#ffffff"
         offset="0"
         id="stop482" /><stop
         style="stop-opacity:0;stop-color:#ffffff"
         offset="1"
         id="stop484" /></linearGradient><mask
       maskUnits="userSpaceOnUse"
       x="0"
       y="0"
       width="1"
       height="1"
       id="mask486"><g
         id="g488"><g
           id="g490"><g
             id="g492"><g
               id="g494"><path
                 d="m -32768,32767 65535,0 0,-65534 -65535,0 0,65534 z"
                 style="fill:url(#linearGradient480);stroke:none"
                 id="path496"
                 inkscape:connector-curvature="0" /></g></g></g></g></mask><linearGradient
       x1="0"
       y1="0"
       x2="1"
       y2="0"
       gradientUnits="userSpaceOnUse"
       gradientTransform="matrix(7.9326172,0,0,-7.9326172,489.84766,185.54687)"
       spreadMethod="pad"
       id="linearGradient498"><stop
         style="stop-opacity:1;stop-color:#231f20"
         offset="0"
         id="stop500" /><stop
         style="stop-opacity:1;stop-color:#231f20"
         offset="1"
         id="stop502" /></linearGradient><clipPath
       clipPathUnits="userSpaceOnUse"
       id="clipPath504"><path
         d="m 474.561,199.792 15.529,0 0,-10.567 -15.529,0 0,10.567 z"
         id="path506"
         inkscape:connector-curvature="0" /></clipPath><clipPath
       clipPathUnits="userSpaceOnUse"
       id="clipPath508"><path
         d="m 481.8,189.225 c -2.448,0 -4.894,0.376 -7.239,1.101 3.004,4.028 7.166,7.022 12.059,8.612 1.14,0.369 2.3,0.654 3.47,0.854 l -7.673,-10.557 c -0.207,-0.006 -0.412,-0.01 -0.617,-0.01"
         id="path510"
         inkscape:connector-curvature="0" /></clipPath><linearGradient
       x1="0"
       y1="0"
       x2="1"
       y2="0"
       gradientUnits="userSpaceOnUse"
       gradientTransform="matrix(15.529297,0,0,-15.529297,474.56055,194.50781)"
       spreadMethod="pad"
       id="linearGradient516"><stop
         style="stop-opacity:1;stop-color:#ffffff"
         offset="0"
         id="stop518" /><stop
         style="stop-opacity:0;stop-color:#ffffff"
         offset="1"
         id="stop520" /></linearGradient><mask
       maskUnits="userSpaceOnUse"
       x="0"
       y="0"
       width="1"
       height="1"
       id="mask522"><g
         id="g524"><g
           id="g526"><g
             id="g528"><g
               id="g530"><path
                 d="m -32768,32767 65535,0 0,-65534 -65535,0 0,65534 z"
                 style="fill:url(#linearGradient516);stroke:none"
                 id="path532"
                 inkscape:connector-curvature="0" /></g></g></g></g></mask><linearGradient
       x1="0"
       y1="0"
       x2="1"
       y2="0"
       gradientUnits="userSpaceOnUse"
       gradientTransform="matrix(15.529297,0,0,-15.529297,474.56055,194.50781)"
       spreadMethod="pad"
       id="linearGradient534"><stop
         style="stop-opacity:1;stop-color:#231f20"
         offset="0"
         id="stop536" /><stop
         style="stop-opacity:1;stop-color:#231f20"
         offset="1"
         id="stop538" /></linearGradient><clipPath
       clipPathUnits="userSpaceOnUse"
       id="clipPath540"><path
         d="m 517.921,199.792 15.526,0 0,-10.567 -15.526,0 0,10.567 z"
         id="path542"
         inkscape:connector-curvature="0" /></clipPath><clipPath
       clipPathUnits="userSpaceOnUse"
       id="clipPath544"><path
         d="m 526.211,189.225 c -0.207,0 -0.412,0.004 -0.616,0.01 l -7.674,10.557 c 1.171,-0.2 2.327,-0.485 3.468,-0.854 4.896,-1.59 9.054,-4.584 12.058,-8.612 -2.343,-0.725 -4.788,-1.101 -7.236,-1.101"
         id="path546"
         inkscape:connector-curvature="0" /></clipPath><linearGradient
       x1="0"
       y1="0"
       x2="1"
       y2="0"
       gradientUnits="userSpaceOnUse"
       gradientTransform="matrix(15.526367,0,0,-15.526367,517.9209,194.50781)"
       spreadMethod="pad"
       id="linearGradient552"><stop
         style="stop-opacity:1;stop-color:#ffffff"
         offset="0"
         id="stop554" /><stop
         style="stop-opacity:0;stop-color:#ffffff"
         offset="1"
         id="stop556" /></linearGradient><mask
       maskUnits="userSpaceOnUse"
       x="0"
       y="0"
       width="1"
       height="1"
       id="mask558"><g
         id="g560"><g
           id="g562"><g
             id="g564"><g
               id="g566"><path
                 d="m -32768,32767 65535,0 0,-65534 -65535,0 0,65534 z"
                 style="fill:url(#linearGradient552);stroke:none"
                 id="path568"
                 inkscape:connector-curvature="0" /></g></g></g></g></mask><linearGradient
       x1="0"
       y1="0"
       x2="1"
       y2="0"
       gradientUnits="userSpaceOnUse"
       gradientTransform="matrix(15.526367,0,0,-15.526367,517.9209,194.50781)"
       spreadMethod="pad"
       id="linearGradient570"><stop
         style="stop-opacity:1;stop-color:#231f20"
         offset="0"
         id="stop572" /><stop
         style="stop-opacity:1;stop-color:#231f20"
         offset="1"
         id="stop574" /></linearGradient><clipPath
       clipPathUnits="userSpaceOnUse"
       id="clipPath576"><path
         d="m 510.23,194.398 7.931,0 0,-17.702 -7.931,0 0,17.702 z"
         id="path578"
         inkscape:connector-curvature="0" /></clipPath><clipPath
       clipPathUnits="userSpaceOnUse"
       id="clipPath580"><path
         d="m 514.698,176.696 c -2.906,4.103 -4.468,8.986 -4.468,14.132 0,1.209 0.084,2.401 0.255,3.57 l 7.676,-10.566 c -0.758,-2.559 -1.926,-4.961 -3.463,-7.136"
         id="path582"
         inkscape:connector-curvature="0" /></clipPath><linearGradient
       x1="0"
       y1="0"
       x2="1"
       y2="0"
       gradientUnits="userSpaceOnUse"
       gradientTransform="matrix(7.9306641,0,0,-7.9306641,510.23047,185.54687)"
       spreadMethod="pad"
       id="linearGradient588"><stop
         style="stop-opacity:1;stop-color:#ffffff"
         offset="0"
         id="stop590" /><stop
         style="stop-opacity:0;stop-color:#ffffff"
         offset="1"
         id="stop592" /></linearGradient><mask
       maskUnits="userSpaceOnUse"
       x="0"
       y="0"
       width="1"
       height="1"
       id="mask594"><g
         id="g596"><g
           id="g598"><g
             id="g600"><g
               id="g602"><path
                 d="m -32768,32767 65535,0 0,-65534 -65535,0 0,65534 z"
                 style="fill:url(#linearGradient588);stroke:none"
                 id="path604"
                 inkscape:connector-curvature="0" /></g></g></g></g></mask><linearGradient
       x1="0"
       y1="0"
       x2="1"
       y2="0"
       gradientUnits="userSpaceOnUse"
       gradientTransform="matrix(7.9306641,0,0,-7.9306641,510.23047,185.54687)"
       spreadMethod="pad"
       id="linearGradient606"><stop
         style="stop-opacity:1;stop-color:#231f20"
         offset="0"
         id="stop608" /><stop
         style="stop-opacity:1;stop-color:#231f20"
         offset="1"
         id="stop610" /></linearGradient><clipPath
       clipPathUnits="userSpaceOnUse"
       id="clipPath612"><path
         d="m 519.082,232.701 13.816,0 0,-11.844 -13.816,0 0,11.844 z"
         id="path614"
         inkscape:connector-curvature="0" /></clipPath><clipPath
       clipPathUnits="userSpaceOnUse"
       id="clipPath616"><path
         d="m 519.082,220.857 c 0.552,1.047 1.183,2.059 1.891,3.034 3.027,4.166 7.161,7.199 11.925,8.81 -0.035,-2.662 -0.502,-5.296 -1.394,-7.808 l -12.422,-4.036 z"
         id="path618"
         inkscape:connector-curvature="0" /></clipPath><linearGradient
       x1="0"
       y1="0"
       x2="1"
       y2="0"
       gradientUnits="userSpaceOnUse"
       gradientTransform="matrix(13.816406,0,0,-13.816406,519.08203,226.7793)"
       spreadMethod="pad"
       id="linearGradient624"><stop
         style="stop-opacity:1;stop-color:#ffffff"
         offset="0"
         id="stop626" /><stop
         style="stop-opacity:0;stop-color:#ffffff"
         offset="1"
         id="stop628" /></linearGradient><mask
       maskUnits="userSpaceOnUse"
       x="0"
       y="0"
       width="1"
       height="1"
       id="mask630"><g
         id="g632"><g
           id="g634"><g
             id="g636"><g
               id="g638"><path
                 d="m -32768,32767 65535,0 0,-65534 -65535,0 0,65534 z"
                 style="fill:url(#linearGradient624);stroke:none"
                 id="path640"
                 inkscape:connector-curvature="0" /></g></g></g></g></mask><linearGradient
       x1="0"
       y1="0"
       x2="1"
       y2="0"
       gradientUnits="userSpaceOnUse"
       gradientTransform="matrix(13.816406,0,0,-13.816406,519.08203,226.7793)"
       spreadMethod="pad"
       id="linearGradient642"><stop
         style="stop-opacity:1;stop-color:#231f20"
         offset="0"
         id="stop644" /><stop
         style="stop-opacity:1;stop-color:#231f20"
         offset="1"
         id="stop646" /></linearGradient><clipPath
       clipPathUnits="userSpaceOnUse"
       id="clipPath648"><path
         d="m 521.924,216.154 18.131,0 0,-6.586 -18.131,0 0,6.586 z"
         id="path650"
         inkscape:connector-curvature="0" /></clipPath><clipPath
       clipPathUnits="userSpaceOnUse"
       id="clipPath652"><path
         d="m 532.821,209.568 c -2.564,0 -5.117,0.408 -7.586,1.208 -1.146,0.371 -2.252,0.82 -3.311,1.343 l 12.421,4.035 c 2.196,-1.509 4.119,-3.36 5.71,-5.489 -2.343,-0.722 -4.785,-1.097 -7.234,-1.097"
         id="path654"
         inkscape:connector-curvature="0" /></clipPath><linearGradient
       x1="0"
       y1="0"
       x2="1"
       y2="0"
       gradientUnits="userSpaceOnUse"
       gradientTransform="matrix(18.130859,0,0,-18.130859,521.92383,212.86133)"
       spreadMethod="pad"
       id="linearGradient660"><stop
         style="stop-opacity:1;stop-color:#ffffff"
         offset="0"
         id="stop662" /><stop
         style="stop-opacity:0;stop-color:#ffffff"
         offset="1"
         id="stop664" /></linearGradient><mask
       maskUnits="userSpaceOnUse"
       x="0"
       y="0"
       width="1"
       height="1"
       id="mask666"><g
         id="g668"><g
           id="g670"><g
             id="g672"><g
               id="g674"><path
                 d="m -32768,32767 65535,0 0,-65534 -65535,0 0,65534 z"
                 style="fill:url(#linearGradient660);stroke:none"
                 id="path676"
                 inkscape:connector-curvature="0" /></g></g></g></g></mask><linearGradient
       x1="0"
       y1="0"
       x2="1"
       y2="0"
       gradientUnits="userSpaceOnUse"
       gradientTransform="matrix(18.130859,0,0,-18.130859,521.92383,212.86133)"
       spreadMethod="pad"
       id="linearGradient678"><stop
         style="stop-opacity:1;stop-color:#231f20"
         offset="0"
         id="stop680" /><stop
         style="stop-opacity:1;stop-color:#231f20"
         offset="1"
         id="stop682" /></linearGradient><clipPath
       clipPathUnits="userSpaceOnUse"
       id="clipPath684"><path
         d="m 492.416,245.271 6.996,0 0,-16.797 -6.996,0 0,16.797 z"
         id="path686"
         inkscape:connector-curvature="0" /></clipPath><clipPath
       clipPathUnits="userSpaceOnUse"
       id="clipPath688"><path
         d="m 499.412,228.474 c -0.827,0.849 -1.596,1.758 -2.305,2.732 -3.026,4.168 -4.631,9.034 -4.691,14.065 2.52,-0.859 4.878,-2.115 6.996,-3.739 l 0,-13.058 z"
         id="path690"
         inkscape:connector-curvature="0" /></clipPath><linearGradient
       x1="0"
       y1="0"
       x2="1"
       y2="0"
       gradientUnits="userSpaceOnUse"
       gradientTransform="matrix(6.9960937,0,0,-6.9960937,492.41602,236.87256)"
       spreadMethod="pad"
       id="linearGradient696"><stop
         style="stop-opacity:1;stop-color:#ffffff"
         offset="0"
         id="stop698" /><stop
         style="stop-opacity:0;stop-color:#ffffff"
         offset="1"
         id="stop700" /></linearGradient><mask
       maskUnits="userSpaceOnUse"
       x="0"
       y="0"
       width="1"
       height="1"
       id="mask702"><g
         id="g704"><g
           id="g706"><g
             id="g708"><g
               id="g710"><path
                 d="m -32768,32767 65535,0 0,-65534 -65535,0 0,65534 z"
                 style="fill:url(#linearGradient696);stroke:none"
                 id="path712"
                 inkscape:connector-curvature="0" /></g></g></g></g></mask><linearGradient
       x1="0"
       y1="0"
       x2="1"
       y2="0"
       gradientUnits="userSpaceOnUse"
       gradientTransform="matrix(6.9960937,0,0,-6.9960937,492.41602,236.87256)"
       spreadMethod="pad"
       id="linearGradient714"><stop
         style="stop-opacity:1;stop-color:#231f20"
         offset="0"
         id="stop716" /><stop
         style="stop-opacity:1;stop-color:#231f20"
         offset="1"
         id="stop718" /></linearGradient><clipPath
       clipPathUnits="userSpaceOnUse"
       id="clipPath720"><path
         d="m 508.599,245.271 6.997,0 0,-16.797 -6.997,0 0,16.797 z"
         id="path722"
         inkscape:connector-curvature="0" /></clipPath><clipPath
       clipPathUnits="userSpaceOnUse"
       id="clipPath724"><path
         d="m 508.6,241.532 c 2.116,1.624 4.472,2.88 6.996,3.739 -0.062,-5.031 -1.665,-9.897 -4.696,-14.063 -0.709,-0.976 -1.476,-1.885 -2.301,-2.734 l 0.001,13.058 z"
         id="path726"
         inkscape:connector-curvature="0" /></clipPath><linearGradient
       x1="0"
       y1="0"
       x2="1"
       y2="0"
       gradientUnits="userSpaceOnUse"
       gradientTransform="matrix(6.9970703,0,0,-6.9970703,508.59863,236.87256)"
       spreadMethod="pad"
       id="linearGradient732"><stop
         style="stop-opacity:1;stop-color:#ffffff"
         offset="0"
         id="stop734" /><stop
         style="stop-opacity:0;stop-color:#ffffff"
         offset="1"
         id="stop736" /></linearGradient><mask
       maskUnits="userSpaceOnUse"
       x="0"
       y="0"
       width="1"
       height="1"
       id="mask738"><g
         id="g740"><g
           id="g742"><g
             id="g744"><g
               id="g746"><path
                 d="m -32768,32767 65535,0 0,-65534 -65535,0 0,65534 z"
                 style="fill:url(#linearGradient732);stroke:none"
                 id="path748"
                 inkscape:connector-curvature="0" /></g></g></g></g></mask><linearGradient
       x1="0"
       y1="0"
       x2="1"
       y2="0"
       gradientUnits="userSpaceOnUse"
       gradientTransform="matrix(6.9970703,0,0,-6.9970703,508.59863,236.87256)"
       spreadMethod="pad"
       id="linearGradient750"><stop
         style="stop-opacity:1;stop-color:#231f20"
         offset="0"
         id="stop752" /><stop
         style="stop-opacity:1;stop-color:#231f20"
         offset="1"
         id="stop754" /></linearGradient><clipPath
       clipPathUnits="userSpaceOnUse"
       id="clipPath756"><path
         d="m 467.954,216.154 18.133,0 0,-6.586 -18.133,0 0,6.586 z"
         id="path758"
         inkscape:connector-curvature="0" /></clipPath><clipPath
       clipPathUnits="userSpaceOnUse"
       id="clipPath760"><path
         d="m 475.188,209.568 c -2.447,0 -4.89,0.375 -7.234,1.097 1.594,2.129 3.516,3.98 5.712,5.489 l 12.421,-4.035 c -1.06,-0.523 -2.165,-0.972 -3.312,-1.343 -2.468,-0.8 -5.02,-1.208 -7.587,-1.208 z"
         id="path762"
         inkscape:connector-curvature="0" /></clipPath><linearGradient
       x1="0"
       y1="0"
       x2="1"
       y2="0"
       gradientUnits="userSpaceOnUse"
       gradientTransform="matrix(18.132812,0,0,-18.132812,467.9541,212.86133)"
       spreadMethod="pad"
       id="linearGradient768"><stop
         style="stop-opacity:1;stop-color:#ffffff"
         offset="0"
         id="stop770" /><stop
         style="stop-opacity:0;stop-color:#ffffff"
         offset="1"
         id="stop772" /></linearGradient><mask
       maskUnits="userSpaceOnUse"
       x="0"
       y="0"
       width="1"
       height="1"
       id="mask774"><g
         id="g776"><g
           id="g778"><g
             id="g780"><g
               id="g782"><path
                 d="m -32768,32767 65535,0 0,-65534 -65535,0 0,65534 z"
                 style="fill:url(#linearGradient768);stroke:none"
                 id="path784"
                 inkscape:connector-curvature="0" /></g></g></g></g></mask><linearGradient
       x1="0"
       y1="0"
       x2="1"
       y2="0"
       gradientUnits="userSpaceOnUse"
       gradientTransform="matrix(18.132812,0,0,-18.132812,467.9541,212.86133)"
       spreadMethod="pad"
       id="linearGradient786"><stop
         style="stop-opacity:1;stop-color:#231f20"
         offset="0"
         id="stop788" /><stop
         style="stop-opacity:1;stop-color:#231f20"
         offset="1"
         id="stop790" /></linearGradient><clipPath
       clipPathUnits="userSpaceOnUse"
       id="clipPath792"><path
         d="m 475.111,232.701 13.814,0 0,-11.844 -13.814,0 0,11.844 z"
         id="path794"
         inkscape:connector-curvature="0" /></clipPath><clipPath
       clipPathUnits="userSpaceOnUse"
       id="clipPath796"><path
         d="m 476.505,224.893 c -0.89,2.517 -1.359,5.146 -1.394,7.808 4.764,-1.611 8.898,-4.644 11.926,-8.81 0.708,-0.975 1.338,-1.987 1.888,-3.034 l -12.42,4.036 z"
         id="path798"
         inkscape:connector-curvature="0" /></clipPath><linearGradient
       x1="0"
       y1="0"
       x2="1"
       y2="0"
       gradientUnits="userSpaceOnUse"
       gradientTransform="matrix(13.813477,0,0,-13.813477,475.11133,226.7793)"
       spreadMethod="pad"
       id="linearGradient804"><stop
         style="stop-opacity:1;stop-color:#ffffff"
         offset="0"
         id="stop806" /><stop
         style="stop-opacity:0;stop-color:#ffffff"
         offset="1"
         id="stop808" /></linearGradient><mask
       maskUnits="userSpaceOnUse"
       x="0"
       y="0"
       width="1"
       height="1"
       id="mask810"><g
         id="g812"><g
           id="g814"><g
             id="g816"><g
               id="g818"><path
                 d="m -32768,32767 65535,0 0,-65534 -65535,0 0,65534 z"
                 style="fill:url(#linearGradient804);stroke:none"
                 id="path820"
                 inkscape:connector-curvature="0" /></g></g></g></g></mask><linearGradient
       x1="0"
       y1="0"
       x2="1"
       y2="0"
       gradientUnits="userSpaceOnUse"
       gradientTransform="matrix(13.813477,0,0,-13.813477,475.11133,226.7793)"
       spreadMethod="pad"
       id="linearGradient822"><stop
         style="stop-opacity:1;stop-color:#231f20"
         offset="0"
         id="stop824" /><stop
         style="stop-opacity:1;stop-color:#231f20"
         offset="1"
         id="stop826" /></linearGradient><linearGradient
       x1="0"
       y1="0"
       x2="1"
       y2="0"
       gradientUnits="userSpaceOnUse"
       gradientTransform="matrix(91.824219,0,0,-91.824219,319.65039,90.157227)"
       spreadMethod="pad"
       id="linearGradient1092"><stop
         style="stop-opacity:1;stop-color:#e70f58"
         offset="0"
         id="stop1094" /><stop
         style="stop-opacity:1;stop-color:#293387"
         offset="1"
         id="stop1096" /></linearGradient><clipPath
       clipPathUnits="userSpaceOnUse"
       id="clipPath1104"><path
         d="M 0,400 600,400 600,0 0,0 0,400 z"
         id="path1106"
         inkscape:connector-curvature="0" /></clipPath><clipPath
       clipPathUnits="userSpaceOnUse"
       id="clipPath1112"><path
         d="m 322.693,130.24 78.318,0 0,-80.1658 -78.318,0 0,80.1658 z"
         id="path1114"
         inkscape:connector-curvature="0" /></clipPath><linearGradient
       x1="0"
       y1="0"
       x2="1"
       y2="0"
       gradientUnits="userSpaceOnUse"
       gradientTransform="matrix(78.317383,0,0,-78.317383,322.69336,90.157227)"
       spreadMethod="pad"
       id="linearGradient1120"><stop
         style="stop-opacity:1;stop-color:#e70f58"
         offset="0"
         id="stop1122" /><stop
         style="stop-opacity:1;stop-color:#293387"
         offset="1"
         id="stop1124" /></linearGradient><linearGradient
       x1="0"
       y1="0"
       x2="1"
       y2="0"
       gradientUnits="userSpaceOnUse"
       gradientTransform="matrix(64.586426,0,0,-64.586426,55.630859,105.05273)"
       spreadMethod="pad"
       id="linearGradient1156"><stop
         style="stop-opacity:1;stop-color:#80cc28"
         offset="0"
         id="stop1158" /><stop
         style="stop-opacity:1;stop-color:#1d6434"
         offset="1"
         id="stop1160" /></linearGradient><clipPath
       clipPathUnits="userSpaceOnUse"
       id="clipPath1168"><path
         d="M 0,400 600,400 600,0 0,0 0,400 z"
         id="path1170"
         inkscape:connector-curvature="0" /></clipPath><clipPath
       clipPathUnits="userSpaceOnUse"
       id="clipPath1344"><path
         d="m 240.654,93.9355 19.128,0 0,-7.6005 -19.128,0 0,7.6005 z"
         id="path1346"
         inkscape:connector-curvature="0" /></clipPath><clipPath
       clipPathUnits="userSpaceOnUse"
       id="clipPath1364"><path
         d="m 223.037,123.028 7.601,0 0,-19.122 -7.601,0 0,19.122 z"
         id="path1366"
         inkscape:connector-curvature="0" /></clipPath><clipPath
       clipPathUnits="userSpaceOnUse"
       id="clipPath1384"><path
         d="m 193.981,93.9785 36.744,0 0,-36.6933 -36.744,0 0,36.6933 z"
         id="path1386"
         inkscape:connector-curvature="0" /></clipPath><clipPath
       clipPathUnits="userSpaceOnUse"
       id="clipPath1404"><path
         d="m 244.072,116.136 8.795,0 0,-8.792 -8.795,0 0,8.792 z"
         id="path1406"
         inkscape:connector-curvature="0" /></clipPath><clipPath
       clipPathUnits="userSpaceOnUse"
       id="clipPath1424"><path
         d="m 201.077,73.1475 8.794,0 0,-8.792 -8.794,0 0,8.792 z"
         id="path1426"
         inkscape:connector-curvature="0" /></clipPath><linearGradient
       x1="0"
       y1="0"
       x2="1"
       y2="0"
       gradientUnits="userSpaceOnUse"
       gradientTransform="matrix(44.770996,0,0,-44.770996,211.68994,314.18262)"
       spreadMethod="pad"
       id="linearGradient1472"><stop
         style="stop-opacity:1;stop-color:#cce310"
         offset="0"
         id="stop1474" /><stop
         style="stop-opacity:1;stop-color:#1d712b"
         offset="1"
         id="stop1476" /></linearGradient><clipPath
       clipPathUnits="userSpaceOnUse"
       id="clipPath1484"><path
         d="M 0,400 600,400 600,0 0,0 0,400 z"
         id="path1486"
         inkscape:connector-curvature="0" /></clipPath><linearGradient
       x1="0"
       y1="0"
       x2="1"
       y2="0"
       gradientUnits="userSpaceOnUse"
       gradientTransform="matrix(98.521805,-30.416214,-30.416214,-98.521805,188.35156,248)"
       spreadMethod="pad"
       id="linearGradient1544"><stop
         style="stop-opacity:1;stop-color:#ed1548"
         offset="0"
         id="stop1546" /><stop
         style="stop-opacity:1;stop-color:#3e58b0"
         offset="0.363632"
         id="stop1548" /><stop
         style="stop-opacity:1;stop-color:#36702f"
         offset="1"
         id="stop1550" /></linearGradient><clipPath
       clipPathUnits="userSpaceOnUse"
       id="clipPath1558"><path
         d="M 0,400 600,400 600,0 0,0 0,400 z"
         id="path1560"
         inkscape:connector-curvature="0" /></clipPath><clipPath
       clipPathUnits="userSpaceOnUse"
       id="clipPath1566"><path
         d="m 216.81,245.836 49.268,0 0,-28.453 -49.268,0 0,28.453 z"
         id="path1568"
         inkscape:connector-curvature="0" /></clipPath><clipPath
       clipPathUnits="userSpaceOnUse"
       id="clipPath1570"><path
         d="m 234.79,218.066 c -0.713,0 -1.377,0.382 -1.733,1 l -15.063,26.087 30.104,0 c 0.712,0 1.377,-0.384 1.734,-1.001 l 15.062,-26.086 -30.104,0 z"
         id="path1572"
         inkscape:connector-curvature="0" /></clipPath><linearGradient
       x1="0"
       y1="0"
       x2="1"
       y2="0"
       gradientUnits="userSpaceOnUse"
       gradientTransform="matrix(46.899902,0,0,-46.899902,217.99365,231.60937)"
       spreadMethod="pad"
       id="linearGradient1578"><stop
         style="stop-opacity:0;stop-color:#ffffff"
         offset="0"
         id="stop1580" /><stop
         style="stop-opacity:1;stop-color:#ffffff"
         offset="1"
         id="stop1582" /></linearGradient><mask
       maskUnits="userSpaceOnUse"
       x="0"
       y="0"
       width="1"
       height="1"
       id="mask1584"><g
         id="g1586"><g
           id="g1588"><g
             id="g1590"><g
               id="g1592"><path
                 d="m -32768,32767 65535,0 0,-65534 -65535,0 0,65534 z"
                 style="fill:url(#linearGradient1578);stroke:none"
                 id="path1594"
                 inkscape:connector-curvature="0" /></g></g></g></g></mask><linearGradient
       x1="0"
       y1="0"
       x2="1"
       y2="0"
       gradientUnits="userSpaceOnUse"
       gradientTransform="matrix(46.899902,0,0,-46.899902,217.99365,231.60937)"
       spreadMethod="pad"
       id="linearGradient1596"><stop
         style="stop-opacity:1;stop-color:#231f20"
         offset="0"
         id="stop1598" /><stop
         style="stop-opacity:1;stop-color:#231f20"
         offset="1"
         id="stop1600" /></linearGradient><linearGradient
       x1="0"
       y1="0"
       x2="1"
       y2="0"
       gradientUnits="userSpaceOnUse"
       gradientTransform="matrix(100.59198,-31.055328,-31.055328,-100.59198,177.22266,218.60254)"
       spreadMethod="pad"
       id="linearGradient1636"><stop
         style="stop-opacity:1;stop-color:#ed1548"
         offset="0"
         id="stop1638" /><stop
         style="stop-opacity:1;stop-color:#3e58b0"
         offset="0.363632"
         id="stop1640" /><stop
         style="stop-opacity:1;stop-color:#36702f"
         offset="1"
         id="stop1642" /></linearGradient><clipPath
       clipPathUnits="userSpaceOnUse"
       id="clipPath1650"><path
         d="M 0,400 600,400 600,0 0,0 0,400 z"
         id="path1652"
         inkscape:connector-curvature="0" /></clipPath><clipPath
       clipPathUnits="userSpaceOnUse"
       id="clipPath1658"><path
         d="m 188.363,238.692 32.048,0 0,-56.951 -32.048,0 0,56.951 z"
         id="path1660"
         inkscape:connector-curvature="0" /></clipPath><clipPath
       clipPathUnits="userSpaceOnUse"
       id="clipPath1662"><path
         d="m 189.313,209.216 c -0.356,0.619 -0.356,1.385 0,2.002 l 15.075,26.107 15.072,-26.107 c 0.357,-0.617 0.357,-1.386 0,-2.003 l -15.072,-26.107 -15.075,26.108 z"
         id="path1664"
         inkscape:connector-curvature="0" /></clipPath><linearGradient
       x1="0"
       y1="0"
       x2="1"
       y2="0"
       gradientUnits="userSpaceOnUse"
       gradientTransform="matrix(30.681641,0,0,-30.681641,189.0459,210.2168)"
       spreadMethod="pad"
       id="linearGradient1670"><stop
         style="stop-opacity:0;stop-color:#ffffff"
         offset="0"
         id="stop1672" /><stop
         style="stop-opacity:1;stop-color:#ffffff"
         offset="1"
         id="stop1674" /></linearGradient><mask
       maskUnits="userSpaceOnUse"
       x="0"
       y="0"
       width="1"
       height="1"
       id="mask1676"><g
         id="g1678"><g
           id="g1680"><g
             id="g1682"><g
               id="g1684"><path
                 d="m -32768,32767 65535,0 0,-65534 -65535,0 0,65534 z"
                 style="fill:url(#linearGradient1670);stroke:none"
                 id="path1686"
                 inkscape:connector-curvature="0" /></g></g></g></g></mask><linearGradient
       x1="0"
       y1="0"
       x2="1"
       y2="0"
       gradientUnits="userSpaceOnUse"
       gradientTransform="matrix(30.681641,0,0,-30.681641,189.0459,210.2168)"
       spreadMethod="pad"
       id="linearGradient1688"><stop
         style="stop-opacity:1;stop-color:#231f20"
         offset="0"
         id="stop1690" /><stop
         style="stop-opacity:1;stop-color:#231f20"
         offset="1"
         id="stop1692" /></linearGradient><linearGradient
       x1="0"
       y1="0"
       x2="1"
       y2="0"
       gradientUnits="userSpaceOnUse"
       gradientTransform="matrix(100.76308,-31.108154,-31.108154,-100.76308,175.39307,209.2168)"
       spreadMethod="pad"
       id="linearGradient1728"><stop
         style="stop-opacity:1;stop-color:#ed1548"
         offset="0"
         id="stop1730" /><stop
         style="stop-opacity:1;stop-color:#3e58b0"
         offset="0.363632"
         id="stop1732" /><stop
         style="stop-opacity:1;stop-color:#36702f"
         offset="1"
         id="stop1734" /></linearGradient><clipPath
       clipPathUnits="userSpaceOnUse"
       id="clipPath1742"><path
         d="M 0,400 600,400 600,0 0,0 0,400 z"
         id="path1744"
         inkscape:connector-curvature="0" /></clipPath><clipPath
       clipPathUnits="userSpaceOnUse"
       id="clipPath1750"><path
         d="m 216.81,203.053 49.268,0 0,-28.454 -49.268,0 0,28.454 z"
         id="path1752"
         inkscape:connector-curvature="0" /></clipPath><clipPath
       clipPathUnits="userSpaceOnUse"
       id="clipPath1754"><path
         d="m 217.994,175.282 15.063,26.087 c 0.356,0.617 1.02,1 1.733,1 l 30.104,0 -15.063,-26.088 c -0.356,-0.616 -1.021,-0.999 -1.733,-0.999 l -30.104,0 z"
         id="path1756"
         inkscape:connector-curvature="0" /></clipPath><linearGradient
       x1="0"
       y1="0"
       x2="1"
       y2="0"
       gradientUnits="userSpaceOnUse"
       gradientTransform="matrix(46.899902,0,0,-46.899902,217.99365,188.82617)"
       spreadMethod="pad"
       id="linearGradient1762"><stop
         style="stop-opacity:0;stop-color:#ffffff"
         offset="0"
         id="stop1764" /><stop
         style="stop-opacity:1;stop-color:#ffffff"
         offset="1"
         id="stop1766" /></linearGradient><mask
       maskUnits="userSpaceOnUse"
       x="0"
       y="0"
       width="1"
       height="1"
       id="mask1768"><g
         id="g1770"><g
           id="g1772"><g
             id="g1774"><g
               id="g1776"><path
                 d="m -32768,32767 65535,0 0,-65534 -65535,0 0,65534 z"
                 style="fill:url(#linearGradient1762);stroke:none"
                 id="path1778"
                 inkscape:connector-curvature="0" /></g></g></g></g></mask><linearGradient
       x1="0"
       y1="0"
       x2="1"
       y2="0"
       gradientUnits="userSpaceOnUse"
       gradientTransform="matrix(46.899902,0,0,-46.899902,217.99365,188.82617)"
       spreadMethod="pad"
       id="linearGradient1780"><stop
         style="stop-opacity:1;stop-color:#231f20"
         offset="0"
         id="stop1782" /><stop
         style="stop-opacity:1;stop-color:#231f20"
         offset="1"
         id="stop1784" /></linearGradient><linearGradient
       x1="0"
       y1="0"
       x2="1"
       y2="0"
       gradientUnits="userSpaceOnUse"
       gradientTransform="matrix(28.227356,-40.312836,-40.312836,-28.227356,59.411133,230.83203)"
       spreadMethod="pad"
       id="linearGradient1820"><stop
         style="stop-opacity:1;stop-color:#18255e"
         offset="0"
         id="stop1822" /><stop
         style="stop-opacity:1;stop-color:#50ade5"
         offset="1"
         id="stop1824" /></linearGradient><linearGradient
       x1="0"
       y1="0"
       x2="1"
       y2="0"
       gradientUnits="userSpaceOnUse"
       gradientTransform="matrix(24.601074,36.472595,36.472595,-24.601074,94.067383,195.57715)"
       spreadMethod="pad"
       id="linearGradient1840"><stop
         style="stop-opacity:1;stop-color:#f68313"
         offset="0"
         id="stop1842" /><stop
         style="stop-opacity:1;stop-color:#ed1c24"
         offset="1"
         id="stop1844" /></linearGradient></defs><sodipodi:namedview
     pagecolor="#ffffff"
     bordercolor="#666666"
     borderopacity="1"
     objecttolerance="10"
     gridtolerance="10"
     guidetolerance="10"
     inkscape:pageopacity="0"
     inkscape:pageshadow="2"
     inkscape:window-width="1920"
     inkscape:window-height="1099"
     id="namedview4"
     showgrid="false"
     fit-margin-top="0"
     fit-margin-left="0"
     fit-margin-right="0"
     fit-margin-bottom="0"
     inkscape:zoom="1.3350176"
     inkscape:cx="73.600164"
     inkscape:cy="-14.845824"
     inkscape:window-x="1440"
     inkscape:window-y="22"
     inkscape:window-maximized="1"
     inkscape:current-layer="g10" /><g
     id="g10"
     inkscape:groupmode="layer"
     inkscape:label="Mixed_Logo_Design_Elements"
     transform="matrix(1.25,0,0,-1.25,-217.38512,282.82196)"><g
       id="g1808"
       transform="translate(127.63877,-5.9924299)"
       style="fill:#ffffff"><g
         id="g1810"
         style="fill:#ffffff"><g
           id="g1816"
           style="fill:#ffffff"><g
             id="g1818"
             style="fill:#ffffff"><path
               d="m 64.935,231.91 c -5.809,-0.891 -10.921,-3.989 -14.398,-8.726 l 0,0 c -3.477,-4.739 -4.9,-10.545 -4.008,-16.353 l 0,0 c 0.892,-5.807 3.992,-10.92 8.731,-14.396 l 0,0 c 9.778,-7.175 23.573,-5.057 30.749,4.72 l 0,0 0.23,0.314 c 0.509,0.695 0.359,1.674 -0.337,2.183 l 0,0 -3.814,2.799 c -0.697,0.51 -1.674,0.36 -2.185,-0.336 l 0,0 -0.228,-0.311 c -4.613,-6.286 -13.481,-7.648 -19.767,-3.034 l 0,0 c -3.046,2.234 -5.04,5.522 -5.613,9.253 l 0,0 c -0.573,3.734 0.341,7.468 2.577,10.513 l 0,0 c 2.234,3.044 5.521,5.038 9.255,5.611 l 0,0 c 3.734,0.573 7.467,-0.342 10.512,-2.576 l 0,0 26.018,-19.24 c 0.693,-0.511 1.67,-0.362 2.181,0.333 l 0,0 2.799,3.815 c 0.511,0.695 0.363,1.675 -0.331,2.186 l 0,0 -26.018,19.238 c -3.815,2.799 -8.323,4.267 -12.965,4.267 l 0,0 c -1.124,0 -2.256,-0.086 -3.388,-0.26"
               style="fill:#ffffff;stroke:none"
               id="path1826"
               inkscape:connector-curvature="0" /></g></g></g></g><g
       id="g1828"
       transform="translate(127.63877,-5.9924299)"
       style="fill:#ffffff"><g
         id="g1830"
         style="fill:#ffffff"><g
           id="g1836"
           style="fill:#ffffff"><g
             id="g1838"
             style="fill:#ffffff"><path
               d="m 93.896,223.276 -0.229,-0.311 c -0.51,-0.697 -0.36,-1.674 0.337,-2.185 l 0,0 3.814,-2.798 c 0.696,-0.511 1.673,-0.36 2.185,0.336 l 0,0 0.227,0.31 c 4.613,6.287 13.482,7.647 19.769,3.035 l 0,0 c 3.045,-2.233 5.039,-5.522 5.612,-9.254 l 0,0 c 0.574,-3.732 -0.342,-7.467 -2.577,-10.511 l 0,0 c -2.234,-3.045 -5.521,-5.038 -9.255,-5.611 l 0,0 c -3.734,-0.575 -7.467,0.34 -10.513,2.574 l 0,0 -26.017,19.24 c -0.692,0.513 -1.67,0.364 -2.18,-0.331 l 0,0 -2.801,-3.816 c -0.511,-0.695 -0.362,-1.675 0.332,-2.187 l 0,0 26.018,-19.239 c 4.737,-3.475 10.545,-4.898 16.353,-4.006 l 0,0 c 5.808,0.891 10.921,3.99 14.398,8.728 l 0,0 c 3.475,4.736 4.899,10.544 4.006,16.351 l 0,0 c -0.891,5.807 -3.991,10.92 -8.729,14.396 l 0,0 c -3.913,2.87 -8.468,4.253 -12.985,4.253 l 0,0 c -6.773,0 -13.46,-3.109 -17.765,-8.974"
               style="fill:#ffffff;stroke:none"
               id="path1846"
               inkscape:connector-curvature="0" /></g></g></g></g></g></svg>