<?xml version="1.0" encoding="utf-8"?>
<!-- Generator: Adobe Illustrator 22.0.1, SVG Export Plug-In . SVG Version: 6.00 Build 0)  -->
<svg version="1.1" id="English" xmlns="http://www.w3.org/2000/svg" xmlns:xlink="http://www.w3.org/1999/xlink" x="0px" y="0px"
	 viewBox="0 0 337.7 173.8" style="enable-background:new 0 0 337.7 173.8;" xml:space="preserve">
<style type="text/css">
	.st0{display:none;}
	.st1{display:inline;}
	.st2{fill:#BE3694;}
	.st3{display:inline;fill:#BE3694;}
</style>
<g class="st0">
	<g class="st1">
		<g>
			<g>
				<g>
					<g>
						<path class="st2" d="M210.7,94.2c-8-2.4-13.8-9.8-13.8-18.6c0-1.6,0.2-3.1,0.5-4.6l12.6,1.6c0,0,4.8,0.2,4.7,8.8
							C214.5,89.8,210.7,94.2,210.7,94.2z"/>
						<path class="st2" d="M222,94.2c8-2.4,13.8-9.8,13.8-18.6c0-1.6-0.2-3.1-0.5-4.6l-12.6,1.6c0,0-4.8,0.2-4.7,8.8
							C218.1,89.8,222,94.2,222,94.2z"/>
						<path class="st2" d="M216.3,61.7c1.6,0,2.9,1.3,2.9,2.9c0,1.3-0.9,2.2-1.9,2.8c-0.1,0.1-0.2,0.1-0.2,0.3
							c0,0.2,0.6,0.3,0.9,0.4l17,2c-2.4-8-9.8-13.9-18.6-13.9h0c-8.8,0-16.3,5.9-18.6,13.9l17-2c0.3-0.1,0.9-0.2,0.9-0.4
							c0-0.2-0.1-0.3-0.2-0.3c-1.1-0.6-1.9-1.5-1.9-2.8C213.4,63,214.7,61.7,216.3,61.7L216.3,61.7z"/>
					</g>
					<g>
						<path class="st2" d="M224.1,108l1.1-0.7c0,0-5.5-7.4-17.7-7.4c-6.2,0-9.5,2.5-13.8,2.5c0,0-1.8,0.2-3.5-0.9c0,0,2.1,3,9.6,3
							c5.5,0,9.5-3.2,13.3-3.2C218.5,101.3,222.4,106,224.1,108z"/>
					</g>
					<g>
						<path class="st2" d="M207.1,108l-1.1-0.7c0,0,5.5-7.4,17.7-7.4c6.2,0,9.5,2.5,13.8,2.5c0,0,1.8,0.2,3.5-0.9c0,0-2.1,3-9.6,3
							c-5.5,0-9.5-3.2-13.3-3.2C212.7,101.3,208.8,106,207.1,108z"/>
					</g>
					<path class="st2" d="M201.3,99.2c-0.2,0.6-2.5-0.1-4.1,0.4c-1.8,0.5-11.1,1.7-15.2-8c0,0,3.9,4.2,6.9,4.4c3,0.3,6.3,1,9.1,2.6
						l0.6,0.1c0,0-0.1-0.3-0.4-0.4c-0.4-0.2-3.3-1.1-4.7-5.7c-0.7-2.4-0.6-4.1-0.9-5.3c0,0,3.2,3.5,4.4,5.7
						C198.5,95.2,198.7,97.7,201.3,99.2z"/>
					<path class="st2" d="M191.8,94.3c-0.2,0.2-0.8-0.1-1-0.3c-0.2-0.1-1.8-0.8-4.4-1.8c-2.6-0.9-7.5-5.1-7-12.1
						c0,0,0.7,2.7,2.7,4.4c2,1.8,2.7,2,3.9,3.4c1.2,1.4,4,4.7,4.1,4.7c0.1,0,0.1-0.2-0.1-0.4c-0.2-0.2-0.9-2-1.4-2.6
						c-0.5-0.6-1.9-4.8,0.2-10c0,0,2.2,3.8,2,7.6c-0.1,3.8-0.3,2.9,0.6,6.1C191.4,93.4,191.9,94.2,191.8,94.3z"/>
					<path class="st2" d="M185.7,85.1c-0.1,0.1-0.7-0.7-1.1-1.4c-0.4-0.8-3.4-4-3.8-4.6c-0.4-0.6-3.8-4.7-1.2-10.8
						c0,0,0.3-0.1,0.3,1.4s1.3,4.6,2.4,6c1.1,1.4,2,3.6,2.3,5.9c0,0,0.1,0.4,0.3,0.5c0.2,0,0.2-0.4,0.2-0.4s-0.1-2.2-0.1-3.6
						c0-1.5,0.6-4,2-5.4c0,0,0.6-0.7,1-1.6c0,0,0.3-0.6,0.6-0.9c0,0,0.3,4.1-1.1,8c-1.4,3.8-1.9,4.5-1.7,6.6
						C185.7,84.6,185.8,85.1,185.7,85.1z"/>
					<path class="st2" d="M183.3,73.8c-0.1,0-0.3-0.5-0.3-0.9c-0.1-0.4-0.5-2.7-0.8-3.2c-0.3-0.5-1.4-2.8-1.4-5.5
						c0-2.7,1.2-6.4,3.9-9.3c0,0-0.1,0.9-0.8,2.8c-0.7,1.9-0.3,3.7-0.2,4c0.1,0.3,0.3,2.5,0.3,3.6c0,0.8-0.2,3.7-0.4,4.2
						c0,0-0.1,0.4,0.1,0.4c0.1,0,0.3-0.3,0.3-0.3s0.1-2.2,1.8-4.2c1.7-2,4.6-3.2,5.1-4.1c0,0-0.2,3.2-3.7,6.9
						c-3.1,3.3-2.2,1.6-3.2,4.3c0,0-0.4,1-0.4,1.2C183.6,73.9,183.3,73.8,183.3,73.8z"/>
					<path class="st2" d="M185.2,63.2c0,0-0.1-0.4,0.5-1.4c0.5-1,0-2.7,0.7-5.2c0.7-2.5,2-6.8,7.1-9.4c0,0-0.5,0.5-0.8,0.8
						c-0.3,0.4-1.6,2.9-2,4.7s-2.1,4.8-2.8,5.5c-0.6,0.7-0.4,0.8-0.4,0.8s0.3-0.1,0.6-0.6c0.3-0.5,2-2.4,3.8-2.8
						c1.8-0.4,4.7-1.3,4.9-1.5c0,0-3.2,3.2-6.1,4.9c-2.9,1.7-3.2,1.1-5,3.4C186,62.4,185.4,63.2,185.2,63.2z"/>
					<path class="st2" d="M192.2,53.6c0,0,0-0.3,0.5-0.8c0.5-0.5,1.1-2,2-3.4c0.9-1.4,3-5.1,8.5-5.9c0,0-1.7,1.2-1.9,1.6
						c-0.3,0.4-1.9,2.5-2.6,3.2c-0.7,0.7-2.8,2.2-3.4,2.5c0,0-0.4,0.3-0.3,0.4c0.1,0.1,0.4-0.1,0.4-0.1s1.9-1.5,4.2-1.5
						c2.3-0.1,4.7,0,5.1,0.1c0,0-2.2,1.5-7.3,2.4c-5.1,0.9-4.2,1-5,1.5C192.5,53.5,192.3,53.7,192.2,53.6z"/>
					<path class="st2" d="M201.4,47.6c0,0,0.1-0.3,0.9-0.5c0.8-0.3,0.8-1,3.3-2.4c2.5-1.3,5.1-1.9,7.8-0.8c0,0-1.1,0.1-1.3,0.2
						s-2.1,0.6-2.6,0.9c-0.5,0.3-3.3,1.5-4.4,1.7c-1.1,0.2-0.6,0.3-0.6,0.3s0.3,0.1,0.5,0.1c0.2,0,2.7-0.3,4.3,0.3
						c1.6,0.6,1.6,0.8,2.2,1c0.6,0.2,1.4,0.4,1.5,0.6c0,0-1.6,0.1-2.6,0.1c-1,0-3.5-0.3-4.7-0.8c-1.2-0.6-2.6-0.8-3.1-0.7
						C202.1,47.7,201.5,47.7,201.4,47.6z"/>
					<path class="st2" d="M211.5,46.4c0,0,0.1-0.1,0.8-0.3c0.7-0.1,0.9-0.6,2.6-0.9s4.3-0.7,6.7,1c0,0-1.5,0-1.8,0
						c-0.3,0-3.1,0.5-3.8,0.5c-0.6,0-1.9-0.3-2.1-0.1c-0.2,0.2,1.2,0.5,1.4,0.6c0.2,0.1,1.2,0.1,2.4,1.3c1.2,1.2,2.1,1.8,2.2,1.9
						c0,0-3.6-0.8-4.5-1.3c-0.9-0.5-2.4-2-2.7-2.2C212.6,46.7,211.5,46.4,211.5,46.4z"/>
					<path class="st2" d="M219.8,47.8c0,0,2.3-0.1,3.9,1c1.7,1,3,2.4,3.1,3.2c0,0-0.9-0.8-1.5-1c-0.6-0.2-2.3-1.1-2.7-1.4
						C222.3,49.5,220.2,48.2,219.8,47.8z"/>
					<path class="st2" d="M230.5,99.6c0,0,0.3-0.3,1.4-1.3c1.1-0.9,1.4-2.3,2.5-4.4c1.2-2.1,2.2-3.6,4.6-5.7c0,0-0.4,1.6-0.5,2.1
						c0,0.5-0.4,3.3-1.8,4.9c-1.4,1.6-1.4,2-3,2.9c0,0-0.6,0.4-0.6,0.6c0,0.1,1.1,0,1.1,0s1.1-0.4,1.5-0.6s2-1,2.6-1.3
						c0.6-0.3,1.2-0.5,2.6-0.9c1.4-0.4,6.6-1.8,8.7-5.1c0,0-0.6,1.9-1.4,2.8c-0.8,0.9-5,6.5-10.9,6.4c0,0-2.3-0.2-3.6-0.4
						c-1.2-0.2-1.7-0.2-1.8-0.2C231.8,99.5,230.6,99.7,230.5,99.6z"/>
					<path class="st2" d="M243.7,79.5c0,0-2.2,3.5-2.7,8.5s0.4,3.5-0.5,5.7c0,0-0.3,0.6-0.2,0.6c0.1,0,0.5-0.2,2.1-1.2
						c1.6-1,3.1-0.7,6.5-3.9c3.4-3.2,4.1-9.7,4.1-10.2c0,0-0.5,0.5-0.8,1.4c-0.3,0.9-0.8,1.5-0.9,1.7c-0.1,0.1-3.8,4.1-4.2,4.5
						c-0.4,0.4-2.6,3-3,3.7c-0.5,0.8-1.8,2.1-2.1,2c0,0,0-0.3,0.1-0.6c0.1-0.3,1.1-1.6,1.5-3.2c0.4-1.6,0.5-2.5,0.6-3.6
						C244.4,84,243.7,80.3,243.7,79.5z"/>
					<path class="st2" d="M246.7,84.3c0,0-0.2-0.5,0-0.9c0.1-0.2,0.2-1.9-0.4-3.3c-0.6-1.4-2-5.3-1.9-7.9c0.1-2.6,0.4-2.9,0.4-2.9
						s0.7,2.1,0.9,2.5c0.2,0.4,2.4,4.2,2.2,6.2c-0.2,2.1-0.3,2.7-0.2,2.8c0.1,0,0.4-0.3,0.4-0.5c0-0.3,0.4-1.7,1.1-3.4
						c0.7-1.7,3.4-5.4,4.1-7.9c0,0,0.9,4.3-1.5,8.3c-2.4,4-2.7,3.1-3.7,5C247,84.1,246.8,84.3,246.7,84.3z"/>
					<path class="st2" d="M248.9,73c-0.2,0-0.1-1.7-0.5-2.2c-0.4-0.5-4.1-4.9-4.9-9.3c0,0,2.3,2.4,2.7,2.6c0.4,0.3,2,1.8,2.4,3.2
						c0.5,1.4,0.4,2.5,0.5,2.5c0.2,0,0.2-1.5,0.2-1.5s0-3,0.3-4.4c0.3-1.4,0.9-3.8,0.6-5.1c0,0,1.4,2.2,1.3,5.4
						c-0.1,3.2-1.4,5.7-1.6,6c-0.2,0.4-0.7,1.9-0.7,2.2S248.9,73,248.9,73z"/>
					<path class="st2" d="M244.5,50.5c0,0,4.8,2.9,4.1,12.5c0,0,0,0.4-0.3,0c-0.3-0.5-1.3-1.8-1.8-2.1c-0.5-0.3-4.8-2.9-6.6-6.9
						c0,0,0.3-0.1,0.7,0.3c0.4,0.4,1.8,1.1,2,1.2c0.2,0.1,1.7,0.5,2.8,1.7c1.1,1.2,1.5,2.1,1.8,2.8c0,0,0.3,0.3,0.1-0.5
						c-0.2-0.7-0.3-1.2-0.8-2.1c-0.6-0.9-1.1-2.5-1.1-3.6C245.3,52.7,245,51.1,244.5,50.5z"/>
					<path class="st2" d="M243.7,53.9c0,0,0.1-0.6-0.4-1.5c-0.5-0.9-0.1-1.9-1.6-4.3c-0.8-1.3-3.7-2.4-3.7-2.4s0.8,1.1,1.4,1.8
						c0.5,0.6,0.7,1.1,0.9,1.4c0.2,0.3,1.2,1.3,1.5,1.8c0.1,0.1,0.2,0.4,0.2,0.6c0,0.2-0.4-0.1-0.5-0.2c-0.1-0.1-1.9-1.4-3-1.7
						c-1.1-0.2-3.2-0.4-3.8-0.7c0,0,2.5,2.3,5.2,2.9C242.8,52.4,243.7,53.9,243.7,53.9z"/>
					<path class="st2" d="M238,48c0,0-2.5-3.4-7-3.3c0,0,0.3,0.3,0.8,0.4c0.5,0.1,1.4,1,1.9,1.3C234.1,46.6,235.1,47.3,238,48z"/>
				</g>
			</g>
		</g>
	</g>
</g>
<g class="st0">
	<path class="st3" d="M100.3,43.3v42.2c0,3.7-0.6,6.9-1.8,9.8s-2.9,5.2-5.1,7.1c-2.2,1.9-4.7,3.3-7.7,4.3c-3,1-6.3,1.4-9.8,1.4
		c-3.6,0-6.8-0.5-9.8-1.4c-3-1-5.6-2.4-7.7-4.3c-2.2-1.9-3.9-4.3-5.1-7.1c-1.2-2.8-1.8-6.1-1.8-9.8V43.3h13.2v42.2
		c0,4.2,1,7.2,3,9.1c2,1.9,4.8,2.9,8.3,2.9c3.6,0,6.3-1,8.3-2.9c2-1.9,3-5,3-9.1V43.3H100.3z"/>
	<path class="st3" d="M163,107.1h-13.2l-25.6-42v42h-13.2V43.3h13.2l25.7,42.1V43.3H163V107.1z"/>
</g>
<g class="st0">
	<g class="st1">
		<path class="st2" d="M60.8,148.4c-1.5,0-2.8-0.2-4-0.7c-1.2-0.5-2.2-1.1-3-2c-0.8-0.8-1.4-1.8-1.9-2.9c-0.4-1.1-0.6-2.3-0.6-3.6
			v-0.7c0-1.4,0.2-2.8,0.6-4c0.4-1.2,1-2.2,1.8-3.1c0.8-0.9,1.7-1.5,2.8-2c1.1-0.5,2.3-0.7,3.7-0.7c1.4,0,2.6,0.2,3.6,0.7
			c1,0.5,1.9,1.1,2.6,1.9c0.7,0.8,1.2,1.8,1.6,3c0.4,1.2,0.5,2.4,0.5,3.8v2.2H56.5c0.1,0.6,0.3,1.2,0.5,1.7c0.3,0.5,0.6,0.9,1,1.3
			c0.4,0.4,0.9,0.6,1.4,0.8c0.5,0.2,1.1,0.3,1.8,0.3c0.9,0,1.8-0.2,2.6-0.5c0.8-0.3,1.5-0.9,2-1.6l2.5,2.8c-0.3,0.4-0.7,0.9-1.1,1.3
			c-0.5,0.4-1,0.8-1.6,1.1c-0.6,0.3-1.3,0.6-2.1,0.8C62.6,148.3,61.8,148.4,60.8,148.4z M60.2,132.7c-0.6,0-1,0.1-1.5,0.3
			c-0.4,0.2-0.8,0.5-1.1,0.8c-0.3,0.3-0.5,0.8-0.7,1.2c-0.2,0.5-0.3,1-0.4,1.6h7.1v-0.4c0-0.5-0.1-1-0.2-1.4
			c-0.1-0.4-0.3-0.8-0.6-1.1c-0.3-0.3-0.6-0.6-1.1-0.7C61.3,132.8,60.8,132.7,60.2,132.7z"/>
		<path class="st2" d="M76.2,128.9l0.2,2.2c0.7-0.8,1.5-1.5,2.4-1.9s2-0.7,3.1-0.7c0.9,0,1.7,0.1,2.5,0.4c0.7,0.3,1.4,0.7,1.9,1.2
			c0.5,0.6,0.9,1.3,1.2,2.3c0.3,0.9,0.4,2.1,0.4,3.4V148h-5.1v-12.2c0-0.6-0.1-1.1-0.2-1.5c-0.1-0.4-0.3-0.7-0.6-1
			c-0.3-0.2-0.6-0.4-1-0.5c-0.4-0.1-0.8-0.1-1.3-0.1c-0.8,0-1.4,0.2-1.9,0.5c-0.5,0.3-1,0.8-1.3,1.3V148h-5.1v-19.1H76.2z"/>
		<path class="st2" d="M98.9,141.8l3.5-12.8h5.3l-6.4,19.1h-4.9L90,128.9h5.3L98.9,141.8z"/>
		<path class="st2" d="M110,124c0-0.8,0.3-1.4,0.8-1.9c0.5-0.5,1.2-0.7,2.1-0.7c0.4,0,0.8,0.1,1.2,0.2c0.4,0.1,0.7,0.3,0.9,0.5
			c0.2,0.2,0.4,0.5,0.6,0.8c0.1,0.3,0.2,0.7,0.2,1c0,0.4-0.1,0.7-0.2,1.1c-0.1,0.3-0.3,0.6-0.6,0.8c-0.2,0.2-0.5,0.4-0.9,0.5
			c-0.4,0.1-0.7,0.2-1.2,0.2c-0.4,0-0.8-0.1-1.2-0.2c-0.4-0.1-0.7-0.3-0.9-0.5c-0.2-0.2-0.4-0.5-0.6-0.8
			C110,124.7,110,124.4,110,124z M115.4,148h-5.1v-19.1h5.1V148z"/>
		<path class="st2" d="M130.3,133.7c-0.3,0-0.6-0.1-0.9-0.1s-0.7,0-0.9,0c-1,0-1.8,0.2-2.4,0.5c-0.6,0.3-1.1,0.8-1.4,1.5V148h-5.1
			v-19.1h4.8l0.1,2.3c0.5-0.8,1.1-1.5,1.8-1.9c0.7-0.5,1.5-0.7,2.5-0.7c0.3,0,0.6,0,0.9,0.1c0.3,0,0.5,0.1,0.7,0.2L130.3,133.7z"/>
		<path class="st2" d="M131.3,138.3c0-1.4,0.2-2.7,0.6-3.9c0.4-1.2,1-2.2,1.7-3.1c0.8-0.9,1.7-1.5,2.8-2c1.1-0.5,2.4-0.7,3.8-0.7
			c1.4,0,2.7,0.2,3.9,0.7c1.1,0.5,2.1,1.2,2.8,2c0.8,0.9,1.4,1.9,1.8,3.1c0.4,1.2,0.6,2.5,0.6,3.9v0.4c0,1.4-0.2,2.7-0.6,3.9
			c-0.4,1.2-1,2.2-1.8,3.1c-0.8,0.9-1.7,1.5-2.8,2c-1.1,0.5-2.4,0.7-3.8,0.7s-2.7-0.2-3.9-0.7c-1.1-0.5-2.1-1.2-2.8-2
			c-0.8-0.9-1.4-1.9-1.8-3.1c-0.4-1.2-0.6-2.5-0.6-3.9V138.3z M136.4,138.7c0,0.8,0.1,1.5,0.2,2.2c0.1,0.7,0.4,1.3,0.7,1.8
			c0.3,0.5,0.7,0.9,1.2,1.2c0.5,0.3,1.1,0.4,1.8,0.4c0.7,0,1.3-0.1,1.8-0.4c0.5-0.3,0.9-0.7,1.2-1.2c0.3-0.5,0.5-1.1,0.7-1.8
			c0.1-0.7,0.2-1.4,0.2-2.2v-0.4c0-0.8-0.1-1.5-0.2-2.1s-0.4-1.3-0.7-1.8c-0.3-0.5-0.7-0.9-1.2-1.2c-0.5-0.3-1.1-0.4-1.8-0.4
			c-0.7,0-1.3,0.1-1.8,0.4c-0.5,0.3-0.9,0.7-1.2,1.2c-0.3,0.5-0.5,1.1-0.7,1.8s-0.2,1.4-0.2,2.1V138.7z"/>
		<path class="st2" d="M157.2,128.9l0.2,2.2c0.7-0.8,1.5-1.5,2.4-1.9s2-0.7,3.1-0.7c0.9,0,1.7,0.1,2.5,0.4c0.7,0.3,1.4,0.7,1.9,1.2
			c0.5,0.6,0.9,1.3,1.2,2.3c0.3,0.9,0.4,2.1,0.4,3.4V148h-5.1v-12.2c0-0.6-0.1-1.1-0.2-1.5c-0.1-0.4-0.3-0.7-0.6-1
			c-0.3-0.2-0.6-0.4-1-0.5c-0.4-0.1-0.8-0.1-1.3-0.1c-0.8,0-1.4,0.2-1.9,0.5c-0.5,0.3-1,0.8-1.3,1.3V148h-5.1v-19.1H157.2z"/>
		<path class="st2" d="M177.5,128.9l0.2,2.1c0.6-0.8,1.4-1.4,2.3-1.8c0.9-0.4,2-0.7,3.2-0.7c1.1,0,2.1,0.2,3,0.7
			c0.9,0.5,1.6,1.2,2,2.2c0.6-0.9,1.4-1.6,2.4-2.1s2.1-0.8,3.4-0.8c0.9,0,1.8,0.1,2.5,0.4c0.8,0.3,1.4,0.7,1.9,1.3
			c0.5,0.6,0.9,1.3,1.2,2.2c0.3,0.9,0.4,2.1,0.4,3.4V148h-5.1v-12.1c0-0.6-0.1-1.2-0.2-1.6c-0.1-0.4-0.3-0.7-0.6-1
			c-0.2-0.2-0.5-0.4-0.9-0.5c-0.4-0.1-0.8-0.1-1.2-0.1c-0.8,0-1.4,0.2-2,0.6c-0.5,0.4-0.9,0.9-1.2,1.6c0,0.1,0,0.1,0,0.2
			s0,0.1,0,0.2V148h-5.1v-12.1c0-0.6-0.1-1.2-0.2-1.6s-0.3-0.7-0.6-1c-0.2-0.2-0.5-0.4-0.9-0.5c-0.4-0.1-0.8-0.1-1.2-0.1
			c-0.8,0-1.4,0.2-1.9,0.5c-0.5,0.3-0.9,0.8-1.2,1.3V148h-5.1v-19.1H177.5z"/>
		<path class="st2" d="M212.7,148.4c-1.5,0-2.8-0.2-4-0.7c-1.2-0.5-2.2-1.1-3-2c-0.8-0.8-1.4-1.8-1.9-2.9c-0.4-1.1-0.6-2.3-0.6-3.6
			v-0.7c0-1.4,0.2-2.8,0.6-4c0.4-1.2,1-2.2,1.8-3.1c0.8-0.9,1.7-1.5,2.8-2c1.1-0.5,2.3-0.7,3.7-0.7c1.4,0,2.6,0.2,3.6,0.7
			c1,0.5,1.9,1.1,2.6,1.9c0.7,0.8,1.2,1.8,1.6,3c0.4,1.2,0.5,2.4,0.5,3.8v2.2h-12.1c0.1,0.6,0.3,1.2,0.5,1.7c0.3,0.5,0.6,0.9,1,1.3
			c0.4,0.4,0.9,0.6,1.4,0.8c0.5,0.2,1.1,0.3,1.8,0.3c0.9,0,1.8-0.2,2.6-0.5c0.8-0.3,1.5-0.9,2-1.6l2.5,2.8c-0.3,0.4-0.7,0.9-1.1,1.3
			c-0.5,0.4-1,0.8-1.6,1.1c-0.6,0.3-1.3,0.6-2.1,0.8C214.5,148.3,213.7,148.4,212.7,148.4z M212.2,132.7c-0.6,0-1,0.1-1.5,0.3
			c-0.4,0.2-0.8,0.5-1.1,0.8c-0.3,0.3-0.5,0.8-0.7,1.2c-0.2,0.5-0.3,1-0.4,1.6h7.1v-0.4c0-0.5-0.1-1-0.2-1.4
			c-0.1-0.4-0.3-0.8-0.6-1.1c-0.3-0.3-0.6-0.6-1.1-0.7C213.3,132.8,212.7,132.7,212.2,132.7z"/>
		<path class="st2" d="M228.2,128.9l0.2,2.2c0.7-0.8,1.5-1.5,2.4-1.9s2-0.7,3.1-0.7c0.9,0,1.7,0.1,2.5,0.4c0.7,0.3,1.4,0.7,1.9,1.2
			c0.5,0.6,0.9,1.3,1.2,2.3c0.3,0.9,0.4,2.1,0.4,3.4V148h-5.1v-12.2c0-0.6-0.1-1.1-0.2-1.5c-0.1-0.4-0.3-0.7-0.6-1
			c-0.3-0.2-0.6-0.4-1-0.5c-0.4-0.1-0.8-0.1-1.3-0.1c-0.8,0-1.4,0.2-1.9,0.5c-0.5,0.3-1,0.8-1.3,1.3V148h-5.1v-19.1H228.2z"/>
		<path class="st2" d="M249.8,124.2v4.7h3.3v3.7h-3.3v9.5c0,0.4,0,0.7,0.1,1c0.1,0.3,0.2,0.5,0.4,0.6c0.2,0.1,0.4,0.2,0.6,0.3
			c0.2,0.1,0.5,0.1,0.9,0.1c0.3,0,0.6,0,0.8,0c0.3,0,0.5-0.1,0.7-0.1v3.9c-0.4,0.1-0.9,0.2-1.4,0.3c-0.5,0.1-1.1,0.1-1.7,0.1
			c-0.8,0-1.6-0.1-2.3-0.3c-0.7-0.2-1.2-0.5-1.7-1c-0.5-0.4-0.8-1-1.1-1.7c-0.3-0.7-0.4-1.6-0.4-2.6v-10.1h-2.8v-3.7h2.8v-4.7H249.8
			z"/>
	</g>
</g>
<g>
	<g>
		<g>
			<g>
				<g>
					<g>
						<path d="M258.5,87.2C250.7,84.9,245,77.6,245,69c0-1.6,0.2-3.1,0.5-4.5l12.4,1.6c0,0,4.7,0.2,4.6,8.6
							C262.3,82.9,258.5,87.2,258.5,87.2z"/>
						<path d="M269.6,87.2c7.8-2.4,13.5-9.6,13.5-18.2c0-1.6-0.2-3.1-0.5-4.5l-12.4,1.6c0,0-4.7,0.2-4.6,8.6
							C265.8,82.9,269.6,87.2,269.6,87.2z"/>
						<path d="M264.1,55.4c1.6,0,2.9,1.3,2.9,2.9c0,1.2-0.9,2.2-1.9,2.7c-0.1,0.1-0.2,0.1-0.2,0.3c0,0.2,0.6,0.3,0.9,0.4l16.6,1.9
							C280,55.7,272.7,50,264.1,50h0c-8.6,0-15.9,5.8-18.3,13.6l16.6-1.9c0.3-0.1,0.8-0.2,0.9-0.4c0-0.2-0.1-0.3-0.2-0.3
							c-1-0.5-1.9-1.5-1.9-2.7C261.2,56.7,262.5,55.4,264.1,55.4L264.1,55.4z"/>
					</g>
					<g>
						<path d="M271.7,100.7l1.1-0.7c0,0-5.3-7.2-17.3-7.2c-6.1,0-9.3,2.5-13.6,2.5c0,0-1.8,0.2-3.4-0.8c0,0,2,3,9.4,3
							c5.4,0,9.3-3.2,13.1-3.2C266.2,94.2,270.1,98.8,271.7,100.7z"/>
					</g>
					<g>
						<path d="M255.1,100.7L254,100c0,0,5.3-7.2,17.3-7.2c6.1,0,9.3,2.5,13.6,2.5c0,0,1.8,0.2,3.4-0.8c0,0-2,3-9.4,3
							c-5.4,0-9.3-3.2-13.1-3.2C260.6,94.2,256.7,98.8,255.1,100.7z"/>
					</g>
					<path d="M249.4,92.1c-0.2,0.6-2.5-0.1-4,0.4c-1.7,0.5-10.9,1.6-14.9-7.9c0,0,3.8,4.1,6.8,4.4c3,0.3,6.2,1,8.9,2.5l0.6,0.1
						c0,0-0.1-0.3-0.4-0.4c-0.4-0.2-3.2-1.1-4.6-5.6c-0.7-2.3-0.6-4-0.8-5.2c0,0,3.1,3.4,4.4,5.6C246.6,88.2,246.8,90.7,249.4,92.1z
						"/>
					<path d="M240.1,87.4c-0.2,0.2-0.8-0.1-1-0.2c-0.2-0.1-1.7-0.8-4.3-1.7c-2.6-0.9-7.3-5-6.9-11.9c0,0,0.7,2.6,2.6,4.3
						c2,1.7,2.7,1.9,3.9,3.3c1.2,1.4,3.9,4.6,4,4.6c0.1,0,0.1-0.2-0.1-0.4c-0.2-0.2-0.9-1.9-1.4-2.5c-0.5-0.6-1.8-4.7,0.2-9.8
						c0,0,2.1,3.7,2,7.4c-0.1,3.7-0.3,2.8,0.6,5.9C239.7,86.4,240.2,87.3,240.1,87.4z"/>
					<path d="M234.1,78.3c-0.1,0.1-0.7-0.7-1.1-1.4c-0.4-0.7-3.4-3.9-3.8-4.5c-0.4-0.6-3.7-4.6-1.2-10.6c0,0,0.2-0.1,0.2,1.3
						s1.3,4.5,2.4,5.9c1.1,1.3,2,3.5,2.2,5.8c0,0,0.1,0.4,0.3,0.5c0.2,0,0.2-0.4,0.2-0.4s-0.1-2.1-0.1-3.6c0-1.4,0.6-3.9,2-5.3
						c0,0,0.6-0.7,1-1.5c0,0,0.2-0.6,0.6-0.8c0,0,0.3,4-1.1,7.8c-1.4,3.8-1.8,4.4-1.6,6.4C234.1,77.8,234.2,78.3,234.1,78.3z"/>
					<path d="M231.8,67.2c-0.1,0-0.2-0.5-0.3-0.9c-0.1-0.4-0.5-2.6-0.8-3.1c-0.3-0.5-1.3-2.7-1.4-5.4c0-2.6,1.2-6.2,3.8-9.1
						c0,0-0.1,0.8-0.8,2.7c-0.7,1.9-0.3,3.6-0.2,3.9c0.1,0.3,0.3,2.5,0.3,3.5c0,0.8-0.2,3.6-0.4,4.1c0,0-0.1,0.4,0.1,0.4
						c0.1,0,0.3-0.3,0.3-0.3s0.1-2.2,1.8-4.1c1.6-2,4.5-3.2,5-4c0,0-0.2,3.1-3.6,6.7c-3,3.2-2.1,1.6-3.1,4.2c0,0-0.4,1-0.4,1.2
						C232,67.3,231.8,67.2,231.8,67.2z"/>
					<path d="M233.6,56.8c0,0-0.1-0.4,0.5-1.4c0.5-0.9,0-2.6,0.7-5.1c0.7-2.5,2-6.7,7-9.2c0,0-0.5,0.5-0.7,0.8
						c-0.2,0.4-1.6,2.9-2,4.6s-2.1,4.7-2.7,5.4c-0.6,0.7-0.4,0.7-0.4,0.7s0.3-0.1,0.6-0.6c0.3-0.5,1.9-2.3,3.7-2.7
						c1.8-0.4,4.6-1.3,4.8-1.4c0,0-3.1,3.2-5.9,4.8s-3.2,1.1-4.9,3.3C234.3,56,233.8,56.8,233.6,56.8z"/>
					<path d="M240.4,47.4c0,0,0-0.3,0.5-0.8c0.5-0.5,1.1-2,2-3.3c0.9-1.4,3-5,8.4-5.8c0,0-1.6,1.2-1.9,1.6c-0.2,0.4-1.8,2.5-2.5,3.2
						c-0.7,0.7-2.7,2.2-3.4,2.5c0,0-0.4,0.3-0.3,0.4c0.1,0.1,0.4-0.1,0.4-0.1s1.9-1.4,4.1-1.5c2.3-0.1,4.6,0,5,0.1
						c0,0-2.1,1.4-7.1,2.4c-5,0.9-4.1,0.9-4.9,1.4C240.8,47.4,240.6,47.5,240.4,47.4z"/>
					<path d="M249.4,41.6c0,0,0.1-0.3,0.9-0.5c0.8-0.2,0.7-1,3.2-2.3c2.5-1.3,5-1.9,7.6-0.8c0,0-1.1,0.1-1.3,0.2s-2,0.6-2.6,0.8
						c-0.5,0.3-3.2,1.5-4.3,1.7c-1.1,0.2-0.6,0.3-0.6,0.3s0.2,0.1,0.5,0.1c0.2,0,2.6-0.2,4.2,0.3c1.6,0.6,1.5,0.8,2.2,1
						c0.6,0.2,1.4,0.4,1.5,0.6c0,0-1.6,0.1-2.5,0.1c-0.9,0-3.4-0.2-4.6-0.8c-1.2-0.6-2.6-0.8-3-0.7
						C250.1,41.7,249.6,41.7,249.4,41.6z"/>
					<path d="M259.4,40.4c0,0,0.1-0.1,0.8-0.3c0.7-0.1,0.9-0.6,2.5-0.9c1.7-0.4,4.2-0.7,6.6,0.9c0,0-1.4,0-1.8,0s-3.1,0.5-3.7,0.5
						c-0.6,0-1.9-0.3-2.1-0.1c-0.2,0.2,1.2,0.5,1.4,0.6c0.2,0.1,1.2,0.1,2.4,1.3s2,1.8,2.2,1.9c0,0-3.5-0.8-4.4-1.3
						c-0.9-0.5-2.4-2-2.6-2.1C260.4,40.7,259.4,40.4,259.4,40.4z"/>
					<path d="M267.5,41.8c0,0,2.2-0.1,3.8,0.9c1.6,1,2.9,2.4,3.1,3.2c0,0-0.9-0.8-1.5-0.9c-0.6-0.2-2.3-1.1-2.6-1.3
						C269.9,43.4,267.9,42.1,267.5,41.8z"/>
					<path d="M277.9,92.5c0,0,0.3-0.3,1.4-1.2c1.1-0.9,1.3-2.3,2.5-4.3c1.2-2.1,2.1-3.5,4.5-5.6c0,0-0.4,1.6-0.5,2.1
						c0,0.5-0.4,3.2-1.8,4.8c-1.3,1.6-1.4,1.9-3,2.9c0,0-0.6,0.4-0.6,0.6c0,0.1,1.1,0,1.1,0s1.1-0.4,1.5-0.6s1.9-1,2.6-1.3
						c0.6-0.2,1.2-0.5,2.6-0.9c1.4-0.4,6.5-1.7,8.5-5c0,0-0.6,1.9-1.3,2.8c-0.7,0.9-4.9,6.4-10.7,6.3c0,0-2.3-0.2-3.5-0.4
						c-1.2-0.2-1.6-0.2-1.8-0.2C279.2,92.4,278.1,92.6,277.9,92.5z"/>
					<path d="M290.9,72.8c0,0-2.2,3.4-2.7,8.3c-0.5,4.9,0.4,3.4-0.5,5.6c0,0-0.3,0.6-0.2,0.6c0.1,0,0.5-0.2,2.1-1.2
						c1.5-0.9,3.1-0.7,6.4-3.8c3.3-3.2,4-9.5,4-10c0,0-0.5,0.5-0.7,1.3c-0.2,0.8-0.8,1.5-0.9,1.6c-0.1,0.1-3.7,4-4.1,4.4
						c-0.4,0.4-2.5,2.9-3,3.7c-0.5,0.7-1.8,2.1-2,2c0,0,0-0.3,0.1-0.6c0.1-0.2,1.1-1.6,1.5-3.1c0.4-1.5,0.5-2.5,0.6-3.5
						C291.6,77.2,290.9,73.6,290.9,72.8z"/>
					<path d="M293.9,77.6c0,0-0.2-0.5,0-0.9c0.1-0.2,0.2-1.9-0.4-3.3c-0.6-1.4-2-5.2-1.9-7.7c0.1-2.5,0.4-2.9,0.4-2.9
						s0.7,2.1,0.9,2.4c0.2,0.4,2.3,4.1,2.1,6.1c-0.2,2-0.3,2.7-0.2,2.7c0.1,0,0.4-0.2,0.4-0.5c0-0.2,0.4-1.7,1.1-3.3
						c0.7-1.7,3.4-5.3,4-7.7c0,0,0.9,4.2-1.5,8.2c-2.4,3.9-2.6,3.1-3.6,4.9C294.1,77.3,294,77.6,293.9,77.6z"/>
					<path d="M296,66.4c-0.2,0-0.1-1.7-0.5-2.2c-0.4-0.5-4-4.8-4.8-9.1c0,0,2.3,2.3,2.7,2.6c0.4,0.2,1.9,1.8,2.4,3.1
						c0.5,1.3,0.4,2.5,0.5,2.5c0.2,0,0.2-1.5,0.2-1.5s0-3,0.3-4.4c0.2-1.4,0.9-3.8,0.6-5c0,0,1.4,2.2,1.3,5.3
						c-0.1,3.1-1.4,5.6-1.5,5.9s-0.7,1.9-0.7,2.2C296.4,66.2,296,66.4,296,66.4z"/>
					<path d="M291.7,44.4c0,0,4.7,2.8,4,12.2c0,0,0,0.4-0.3,0c-0.3-0.5-1.3-1.8-1.8-2c-0.5-0.3-4.7-2.8-6.5-6.8c0,0,0.3-0.1,0.7,0.3
						c0.4,0.4,1.7,1.1,1.9,1.2c0.2,0.1,1.7,0.5,2.8,1.7c1.1,1.2,1.5,2.1,1.8,2.8c0,0,0.3,0.2,0.1-0.5c-0.2-0.7-0.2-1.2-0.8-2
						c-0.6-0.9-1.1-2.5-1.1-3.6C292.5,46.6,292.2,45,291.7,44.4z"/>
					<path d="M290.9,47.7c0,0,0.1-0.6-0.4-1.5c-0.5-0.9-0.1-1.9-1.5-4.2c-0.8-1.3-3.6-2.3-3.6-2.3s0.8,1.1,1.3,1.8
						c0.5,0.6,0.7,1.1,0.9,1.4c0.2,0.3,1.2,1.3,1.5,1.8c0.1,0.1,0.2,0.4,0.2,0.6c0,0.2-0.4-0.1-0.5-0.2c-0.1-0.1-1.8-1.4-2.9-1.6
						c-1.1-0.2-3.2-0.4-3.7-0.7c0,0,2.5,2.2,5.1,2.9C290,46.2,290.9,47.7,290.9,47.7z"/>
					<path d="M285.3,41.9c0,0-2.5-3.3-6.9-3.3c0,0,0.2,0.2,0.7,0.4c0.5,0.1,1.4,1,1.8,1.3C281.5,40.5,282.5,41.2,285.3,41.9z"/>
				</g>
			</g>
		</g>
	</g>
</g>
<g>
	<g>
		<path d="M90.9,69.9c0,4.8-0.6,9.1-1.9,12.9c-1.3,3.8-3.1,7-5.5,9.7c-2.3,2.6-5.2,4.7-8.4,6.1c-3.3,1.4-6.9,2.1-10.8,2.1
			s-7.5-0.7-10.8-2.1s-6.1-3.5-8.5-6.1c-2.4-2.6-4.2-5.9-5.5-9.7c-1.3-3.8-2-8.1-2-12.9v-2.8c0-4.8,0.7-9.1,2-12.9
			c1.3-3.8,3.1-7.1,5.5-9.7c2.4-2.7,5.2-4.7,8.5-6.1c3.3-1.4,6.9-2.1,10.8-2.1c3.9,0,7.5,0.7,10.8,2.1c3.3,1.4,6.1,3.5,8.5,6.1
			c2.4,2.7,4.2,5.9,5.5,9.7c1.3,3.8,2,8.1,2,12.9V69.9z M77.8,67.1c0-6.6-1.2-11.6-3.5-15c-2.4-3.4-5.7-5.1-10.1-5.1
			c-4.4,0-7.7,1.7-10.1,5.1c-2.4,3.4-3.5,8.4-3.5,15v2.8c0,3.3,0.3,6.2,0.9,8.7s1.5,4.6,2.7,6.3c1.2,1.7,2.6,3,4.3,3.9
			c1.7,0.9,3.6,1.3,5.8,1.3c4.4,0,7.7-1.7,10-5.2c2.3-3.4,3.5-8.5,3.5-15V67.1z"/>
		<path d="M151.8,69.9c0,4.8-0.6,9.1-1.9,12.9c-1.3,3.8-3.1,7-5.5,9.7c-2.3,2.6-5.2,4.7-8.4,6.1c-3.3,1.4-6.9,2.1-10.8,2.1
			s-7.5-0.7-10.8-2.1s-6.1-3.5-8.5-6.1c-2.4-2.6-4.2-5.9-5.5-9.7c-1.3-3.8-2-8.1-2-12.9v-2.8c0-4.8,0.7-9.1,2-12.9
			c1.3-3.8,3.1-7.1,5.5-9.7c2.4-2.7,5.2-4.7,8.5-6.1c3.3-1.4,6.9-2.1,10.8-2.1c3.9,0,7.5,0.7,10.8,2.1c3.3,1.4,6.1,3.5,8.5,6.1
			c2.4,2.7,4.2,5.9,5.5,9.7c1.3,3.8,2,8.1,2,12.9V69.9z M138.7,67.1c0-6.6-1.2-11.6-3.5-15c-2.4-3.4-5.7-5.1-10.1-5.1
			c-4.4,0-7.7,1.7-10.1,5.1c-2.4,3.4-3.5,8.4-3.5,15v2.8c0,3.3,0.3,6.2,0.9,8.7s1.5,4.6,2.7,6.3c1.2,1.7,2.6,3,4.3,3.9
			c1.7,0.9,3.6,1.3,5.8,1.3c4.4,0,7.7-1.7,10-5.2c2.3-3.4,3.5-8.5,3.5-15V67.1z"/>
		<path d="M212.3,99.9h-12.9V73h-25.2v26.9h-12.9V37.1h12.9v25.4h25.2V37.1h12.9V99.9z"/>
	</g>
</g>
<g>
	<g>
		<path d="M37.4,123.1c0-1.1,0.2-2.1,0.5-3c0.3-0.9,0.8-1.7,1.4-2.4c0.6-0.7,1.3-1.2,2.2-1.6c0.9-0.4,1.9-0.6,3-0.6
			c1.1,0,2.1,0.2,3,0.6c0.9,0.4,1.6,0.9,2.2,1.6c0.6,0.7,1.1,1.5,1.4,2.4c0.3,0.9,0.5,1.9,0.5,3v0.3c0,1.1-0.2,2.1-0.5,3
			c-0.3,0.9-0.8,1.7-1.4,2.4c-0.6,0.7-1.3,1.2-2.2,1.6c-0.9,0.4-1.9,0.6-3,0.6c-1.1,0-2.1-0.2-3-0.6c-0.9-0.4-1.6-0.9-2.2-1.6
			c-0.6-0.7-1.1-1.5-1.4-2.4c-0.3-0.9-0.5-1.9-0.5-3V123.1z M41.4,123.4c0,0.6,0.1,1.2,0.2,1.7s0.3,1,0.5,1.4
			c0.2,0.4,0.6,0.7,0.9,0.9s0.9,0.3,1.4,0.3c0.5,0,1-0.1,1.4-0.3c0.4-0.2,0.7-0.5,1-0.9c0.2-0.4,0.4-0.8,0.5-1.4s0.2-1.1,0.2-1.7
			v-0.3c0-0.6-0.1-1.1-0.2-1.7c-0.1-0.5-0.3-1-0.5-1.4c-0.2-0.4-0.6-0.7-1-0.9c-0.4-0.2-0.9-0.3-1.4-0.3c-0.5,0-1,0.1-1.4,0.3
			c-0.4,0.2-0.7,0.5-0.9,0.9c-0.2,0.4-0.4,0.9-0.5,1.4c-0.1,0.5-0.2,1.1-0.2,1.7V123.4z"/>
		<path d="M59.7,125.2h-1.6v5.5h-4v-14.8h4v5.6h1.4l3.2-5.6h5l-4.9,7.1l5.3,7.8h-5.3L59.7,125.2z"/>
		<path d="M83.1,123.4c0,1.1-0.1,2.1-0.4,3c-0.3,0.9-0.6,1.7-1.1,2.4c-0.5,0.7-1.1,1.2-1.8,1.6c-0.7,0.4-1.5,0.6-2.5,0.6
			c-0.8,0-1.5-0.1-2.1-0.4c-0.6-0.3-1.1-0.7-1.6-1.2v7h-4v-20.5h3.7l0.1,1.5c0.5-0.5,1-1,1.6-1.3c0.6-0.3,1.3-0.5,2.2-0.5
			c0.9,0,1.8,0.2,2.5,0.5c0.7,0.4,1.3,0.9,1.8,1.5c0.5,0.7,0.9,1.5,1.1,2.4c0.3,0.9,0.4,2,0.4,3.1V123.4z M79.1,123.1
			c0-0.6-0.1-1.2-0.2-1.7c-0.1-0.5-0.3-1-0.5-1.4c-0.2-0.4-0.5-0.7-0.9-0.9c-0.4-0.2-0.8-0.3-1.3-0.3c-0.6,0-1.2,0.1-1.6,0.4
			c-0.4,0.2-0.7,0.6-1,1.1v6.1c0.2,0.5,0.6,0.8,1,1.1c0.4,0.3,1,0.4,1.6,0.4c0.5,0,1-0.1,1.3-0.3c0.4-0.2,0.7-0.5,0.9-0.9
			c0.2-0.4,0.4-0.9,0.5-1.4c0.1-0.5,0.2-1.1,0.2-1.7V123.1z"/>
		<path d="M90.9,125.1l2.7-9.2h4.3L92,132.9c-0.1,0.4-0.3,0.8-0.5,1.2s-0.5,0.8-0.9,1.2s-0.8,0.7-1.4,0.9c-0.5,0.3-1.2,0.4-2,0.4
			c-0.2,0-0.3,0-0.5,0c-0.1,0-0.3,0-0.4,0c-0.1,0-0.3,0-0.4-0.1c-0.1,0-0.3-0.1-0.4-0.1v-3c0.1,0,0.2,0,0.3,0c0.1,0,0.2,0,0.3,0
			c0.4,0,0.7,0,1-0.1c0.3-0.1,0.5-0.2,0.7-0.3c0.2-0.1,0.4-0.3,0.5-0.5c0.1-0.2,0.3-0.4,0.4-0.7l0.4-1.1l-5.2-14.9h4.3L90.9,125.1z"
			/>
		<path d="M113.7,125.2h-1.8v5.5h-4v-5.5h-1.8l-2.9,5.5h-4.8l4.7-7.8l-4.6-7.1h4.9l3.1,5.5h1.5v-5.5h4v5.5h1.5l3.1-5.5h4.9l-4.6,7
			l4.7,7.9h-4.9L113.7,125.2z"/>
		<path d="M132,130.7c-0.2-0.4-0.3-0.8-0.4-1.3c-0.4,0.4-0.9,0.8-1.5,1.1c-0.6,0.3-1.3,0.5-2.2,0.5c-0.7,0-1.4-0.1-2-0.3
			c-0.6-0.2-1.2-0.5-1.6-0.9c-0.5-0.4-0.8-0.9-1.1-1.4c-0.3-0.5-0.4-1.1-0.4-1.8c0-0.8,0.1-1.5,0.4-2.1c0.3-0.6,0.7-1.1,1.3-1.5
			c0.6-0.4,1.3-0.7,2.1-1c0.9-0.2,1.8-0.3,3-0.3h1.8v-0.9c0-0.7-0.2-1.2-0.5-1.6c-0.4-0.4-0.9-0.6-1.7-0.6c-0.7,0-1.2,0.2-1.6,0.5
			c-0.4,0.3-0.6,0.8-0.6,1.3h-4c0-0.6,0.1-1.2,0.4-1.8c0.3-0.6,0.7-1.1,1.3-1.5c0.5-0.4,1.2-0.8,2-1c0.8-0.3,1.6-0.4,2.6-0.4
			c0.9,0,1.7,0.1,2.4,0.3c0.7,0.2,1.4,0.5,1.9,1c0.5,0.4,0.9,1,1.2,1.6s0.4,1.4,0.4,2.3v6.3c0,0.4,0,0.8,0,1.1
			c0,0.3,0.1,0.6,0.1,0.9s0.1,0.5,0.2,0.7c0.1,0.2,0.2,0.4,0.3,0.6v0.2H132z M128.8,127.9c0.3,0,0.7,0,0.9-0.1
			c0.3-0.1,0.5-0.2,0.8-0.3c0.2-0.1,0.4-0.3,0.6-0.5c0.2-0.2,0.3-0.4,0.4-0.5v-2.6h-1.6c-0.5,0-1,0.1-1.4,0.2
			c-0.4,0.1-0.7,0.3-0.9,0.5c-0.2,0.2-0.4,0.4-0.5,0.7c-0.1,0.3-0.2,0.6-0.2,0.9c0,0.5,0.2,0.9,0.5,1.2
			C127.7,127.8,128.2,127.9,128.8,127.9z"/>
		<path d="M142.8,121.5h2.1c0.1-0.9,0.4-1.7,0.8-2.4c0.4-0.7,0.8-1.4,1.4-1.9c0.6-0.5,1.3-0.9,2-1.2c0.8-0.3,1.7-0.4,2.6-0.4
			c1.1,0,2.1,0.2,3,0.6c0.9,0.4,1.6,0.9,2.2,1.6c0.6,0.7,1.1,1.5,1.4,2.4c0.3,0.9,0.5,1.9,0.5,3v0.3c0,1.1-0.2,2.1-0.5,3
			c-0.3,0.9-0.8,1.7-1.4,2.4c-0.6,0.7-1.3,1.2-2.2,1.6c-0.9,0.4-1.9,0.6-3,0.6c-1,0-1.9-0.2-2.7-0.5s-1.5-0.7-2.1-1.3
			c-0.6-0.5-1.1-1.2-1.4-2s-0.6-1.6-0.7-2.5h-2.1v6h-4v-14.8h4V121.5z M148.8,123.4c0,0.6,0.1,1.2,0.2,1.7c0.1,0.5,0.3,1,0.5,1.4
			c0.2,0.4,0.6,0.7,0.9,0.9c0.4,0.2,0.9,0.3,1.4,0.3c0.5,0,1-0.1,1.4-0.3c0.4-0.2,0.7-0.5,1-0.9c0.2-0.4,0.4-0.8,0.5-1.4
			c0.1-0.5,0.2-1.1,0.2-1.7v-0.3c0-0.6-0.1-1.1-0.2-1.7c-0.1-0.5-0.3-1-0.5-1.4c-0.2-0.4-0.6-0.7-1-0.9c-0.4-0.2-0.9-0.3-1.4-0.3
			c-0.5,0-1,0.1-1.4,0.3c-0.4,0.2-0.7,0.5-0.9,0.9c-0.2,0.4-0.4,0.9-0.5,1.4c-0.1,0.5-0.2,1.1-0.2,1.7V123.4z"/>
		<path d="M165.2,115.8v11.6h4.1v-11.6h4v11.6h4.1v-11.6h4v11.7h2.9l-0.3,7.6h-3.7v-4.4h-19v-14.8H165.2z"/>
		<path d="M195.2,130.7c-0.2-0.4-0.3-0.8-0.4-1.3c-0.4,0.4-0.9,0.8-1.5,1.1c-0.6,0.3-1.3,0.5-2.2,0.5c-0.7,0-1.4-0.1-2-0.3
			c-0.6-0.2-1.2-0.5-1.6-0.9c-0.5-0.4-0.8-0.9-1.1-1.4c-0.3-0.5-0.4-1.1-0.4-1.8c0-0.8,0.1-1.5,0.4-2.1c0.3-0.6,0.7-1.1,1.3-1.5
			c0.6-0.4,1.3-0.7,2.1-1c0.9-0.2,1.8-0.3,3-0.3h1.8v-0.9c0-0.7-0.2-1.2-0.5-1.6c-0.4-0.4-0.9-0.6-1.7-0.6c-0.7,0-1.2,0.2-1.6,0.5
			c-0.4,0.3-0.6,0.8-0.6,1.3h-4c0-0.6,0.1-1.2,0.4-1.8c0.3-0.6,0.7-1.1,1.3-1.5c0.5-0.4,1.2-0.8,2-1c0.8-0.3,1.6-0.4,2.6-0.4
			c0.9,0,1.7,0.1,2.4,0.3c0.7,0.2,1.4,0.5,1.9,1c0.5,0.4,0.9,1,1.2,1.6c0.3,0.7,0.4,1.4,0.4,2.3v6.3c0,0.4,0,0.8,0,1.1
			c0,0.3,0.1,0.6,0.1,0.9c0,0.3,0.1,0.5,0.2,0.7c0.1,0.2,0.2,0.4,0.3,0.6v0.2H195.2z M191.9,127.9c0.3,0,0.7,0,0.9-0.1
			c0.3-0.1,0.5-0.2,0.8-0.3c0.2-0.1,0.4-0.3,0.6-0.5c0.2-0.2,0.3-0.4,0.4-0.5v-2.6H193c-0.5,0-1,0.1-1.4,0.2
			c-0.4,0.1-0.7,0.3-0.9,0.5c-0.2,0.2-0.4,0.4-0.5,0.7c-0.1,0.3-0.2,0.6-0.2,0.9c0,0.5,0.2,0.9,0.5,1.2
			C190.8,127.8,191.3,127.9,191.9,127.9z"/>
		<path d="M214,115.8v14.8h-3.9v-5.1h-2.5l-2.9,5.1h-4l3.2-5.8c-0.9-0.4-1.6-1-2-1.7c-0.5-0.7-0.7-1.5-0.7-2.4c0-0.7,0.1-1.4,0.4-2
			c0.3-0.6,0.7-1.1,1.3-1.6c0.5-0.4,1.2-0.8,2-1c0.8-0.2,1.7-0.4,2.7-0.4H214z M205.1,120.9c0,0.2,0,0.4,0.1,0.7
			c0.1,0.2,0.2,0.4,0.4,0.6c0.2,0.2,0.4,0.3,0.7,0.4c0.3,0.1,0.6,0.2,1,0.2h2.7V119h-2.6c-0.4,0-0.8,0.1-1,0.2
			c-0.3,0.1-0.5,0.3-0.7,0.4c-0.2,0.2-0.3,0.4-0.4,0.6C205.2,120.5,205.1,120.7,205.1,120.9z"/>
		<path d="M230.5,127.8c0.4,0,0.7-0.1,1-0.2c0.3-0.1,0.6-0.3,0.8-0.4c0.2-0.2,0.4-0.4,0.5-0.7c0.1-0.3,0.2-0.6,0.2-0.9h3.7
			c0,0.8-0.2,1.5-0.5,2.2c-0.3,0.7-0.8,1.2-1.3,1.7c-0.5,0.5-1.2,0.9-1.9,1.1c-0.7,0.3-1.5,0.4-2.4,0.4c-1.2,0-2.2-0.2-3-0.6
			c-0.9-0.4-1.6-0.9-2.1-1.6c-0.6-0.7-1-1.5-1.3-2.4c-0.3-0.9-0.4-1.9-0.4-2.9v-0.4c0-1.1,0.1-2,0.4-2.9c0.3-0.9,0.7-1.7,1.3-2.4
			c0.6-0.7,1.3-1.2,2.1-1.6c0.9-0.4,1.9-0.6,3-0.6c0.9,0,1.7,0.1,2.5,0.4c0.8,0.3,1.4,0.7,1.9,1.2c0.5,0.5,1,1.1,1.3,1.8
			c0.3,0.7,0.5,1.5,0.5,2.4H233c0-0.4-0.1-0.7-0.2-1c-0.1-0.3-0.3-0.6-0.5-0.8c-0.2-0.2-0.5-0.4-0.8-0.6c-0.3-0.1-0.7-0.2-1.1-0.2
			c-0.6,0-1,0.1-1.4,0.4c-0.4,0.2-0.7,0.6-0.9,1c-0.2,0.4-0.3,0.9-0.4,1.4c-0.1,0.5-0.1,1.1-0.1,1.6v0.4c0,0.6,0,1.1,0.1,1.6
			c0.1,0.5,0.2,1,0.4,1.4c0.2,0.4,0.5,0.7,0.9,0.9C229.4,127.6,229.9,127.8,230.5,127.8z"/>
		<path d="M252.3,123.4c0,1.1-0.1,2.1-0.4,3c-0.3,0.9-0.6,1.7-1.1,2.4c-0.5,0.7-1.1,1.2-1.8,1.6c-0.7,0.4-1.5,0.6-2.5,0.6
			c-0.8,0-1.5-0.1-2.1-0.4c-0.6-0.3-1.1-0.7-1.6-1.2v7h-4v-20.5h3.7l0.1,1.5c0.5-0.5,1-1,1.6-1.3c0.6-0.3,1.3-0.5,2.2-0.5
			c0.9,0,1.8,0.2,2.5,0.5c0.7,0.4,1.3,0.9,1.8,1.5c0.5,0.7,0.9,1.5,1.1,2.4c0.3,0.9,0.4,2,0.4,3.1V123.4z M248.4,123.1
			c0-0.6-0.1-1.2-0.2-1.7c-0.1-0.5-0.3-1-0.5-1.4c-0.2-0.4-0.5-0.7-0.9-0.9c-0.4-0.2-0.8-0.3-1.3-0.3c-0.6,0-1.2,0.1-1.6,0.4
			c-0.4,0.2-0.7,0.6-1,1.1v6.1c0.2,0.5,0.6,0.8,1,1.1c0.4,0.3,1,0.4,1.6,0.4c0.5,0,1-0.1,1.3-0.3c0.4-0.2,0.7-0.5,0.9-0.9
			c0.2-0.4,0.4-0.9,0.5-1.4c0.1-0.5,0.2-1.1,0.2-1.7V123.1z"/>
		<path d="M261.6,130.9c-1.2,0-2.2-0.2-3.1-0.6c-0.9-0.4-1.7-0.9-2.3-1.5c-0.6-0.6-1.1-1.4-1.5-2.3c-0.3-0.9-0.5-1.8-0.5-2.8v-0.5
			c0-1.1,0.2-2.2,0.5-3.1c0.3-0.9,0.8-1.7,1.4-2.4c0.6-0.7,1.3-1.2,2.2-1.6c0.9-0.4,1.8-0.6,2.9-0.6c1.1,0,2,0.2,2.8,0.5
			c0.8,0.4,1.5,0.8,2,1.5c0.6,0.6,1,1.4,1.2,2.3c0.3,0.9,0.4,1.9,0.4,3v1.7h-9.4c0.1,0.5,0.2,0.9,0.4,1.3c0.2,0.4,0.4,0.7,0.8,1
			c0.3,0.3,0.7,0.5,1.1,0.7c0.4,0.2,0.9,0.2,1.4,0.2c0.7,0,1.4-0.1,2-0.4c0.6-0.3,1.1-0.7,1.6-1.3l1.9,2.2c-0.2,0.3-0.5,0.7-0.9,1
			s-0.8,0.6-1.3,0.9c-0.5,0.3-1,0.5-1.6,0.6C263,130.9,262.3,130.9,261.6,130.9z M261.2,118.8c-0.4,0-0.8,0.1-1.1,0.2
			c-0.3,0.2-0.6,0.4-0.8,0.6c-0.2,0.3-0.4,0.6-0.6,1c-0.1,0.4-0.3,0.8-0.3,1.2h5.5v-0.3c0-0.4-0.1-0.8-0.2-1.1
			c-0.1-0.3-0.3-0.6-0.5-0.9c-0.2-0.2-0.5-0.4-0.8-0.6C262,118.8,261.6,118.8,261.2,118.8z"/>
		<path d="M270.2,127.5c0.5-0.5,0.8-1,1.1-1.4c0.3-0.5,0.5-0.9,0.7-1.5c0.2-0.5,0.3-1.1,0.4-1.7c0.1-0.6,0.1-1.3,0.1-2.1l0.1-4.9
			h10.9v11.6h2.1v7.7h-4v-4.5h-8.8v4.5h-4v-7.7H270.2z M276.5,120.8c-0.1,1.5-0.2,2.8-0.5,3.9c-0.3,1.1-0.7,2-1.2,2.8h4.8v-8.4h-3.1
			L276.5,120.8z"/>
		<path d="M296.3,130.7c-0.2-0.4-0.3-0.8-0.4-1.3c-0.4,0.4-0.9,0.8-1.5,1.1c-0.6,0.3-1.3,0.5-2.2,0.5c-0.7,0-1.4-0.1-2-0.3
			c-0.6-0.2-1.2-0.5-1.6-0.9c-0.5-0.4-0.8-0.9-1.1-1.4c-0.3-0.5-0.4-1.1-0.4-1.8c0-0.8,0.1-1.5,0.4-2.1c0.3-0.6,0.7-1.1,1.3-1.5
			c0.6-0.4,1.3-0.7,2.1-1c0.9-0.2,1.8-0.3,3-0.3h1.8v-0.9c0-0.7-0.2-1.2-0.5-1.6c-0.4-0.4-0.9-0.6-1.7-0.6c-0.7,0-1.2,0.2-1.6,0.5
			c-0.4,0.3-0.6,0.8-0.6,1.3h-4c0-0.6,0.1-1.2,0.4-1.8c0.3-0.6,0.7-1.1,1.3-1.5c0.5-0.4,1.2-0.8,2-1c0.8-0.3,1.6-0.4,2.6-0.4
			c0.9,0,1.7,0.1,2.4,0.3c0.7,0.2,1.4,0.5,1.9,1c0.5,0.4,0.9,1,1.2,1.6c0.3,0.7,0.4,1.4,0.4,2.3v6.3c0,0.4,0,0.8,0,1.1
			c0,0.3,0.1,0.6,0.1,0.9s0.1,0.5,0.2,0.7c0.1,0.2,0.2,0.4,0.3,0.6v0.2H296.3z M293,127.9c0.3,0,0.7,0,0.9-0.1s0.5-0.2,0.8-0.3
			c0.2-0.1,0.4-0.3,0.6-0.5c0.2-0.2,0.3-0.4,0.4-0.5v-2.6h-1.6c-0.5,0-1,0.1-1.4,0.2c-0.4,0.1-0.7,0.3-0.9,0.5
			c-0.2,0.2-0.4,0.4-0.5,0.7c-0.1,0.3-0.2,0.6-0.2,0.9c0,0.5,0.2,0.9,0.5,1.2C291.9,127.8,292.4,127.9,293,127.9z"/>
	</g>
</g>
</svg>
