<?xml version="1.0" encoding="utf-8"?>
<!-- Generator: Adobe Illustrator 22.0.1, SVG Export Plug-In . SVG Version: 6.00 Build 0)  -->
<svg version="1.1" id="English" xmlns="http://www.w3.org/2000/svg" xmlns:xlink="http://www.w3.org/1999/xlink" x="0px" y="0px"
	 viewBox="0 0 337.7 182" style="enable-background:new 0 0 337.7 182;" xml:space="preserve">
<style type="text/css">
	.st0{display:none;}
	.st1{display:inline;}
	.st2{fill:#BE3694;}
	.st3{display:inline;fill:#BE3694;}
</style>
<g class="st0">
	<g class="st1">
		<g>
			<g>
				<g>
					<g>
						<path class="st2" d="M210.7,94.2c-8-2.4-13.8-9.8-13.8-18.6c0-1.6,0.2-3.1,0.5-4.6l12.6,1.6c0,0,4.8,0.2,4.7,8.8
							C214.5,89.8,210.7,94.2,210.7,94.2z"/>
						<path class="st2" d="M222,94.2c8-2.4,13.8-9.8,13.8-18.6c0-1.6-0.2-3.1-0.5-4.6l-12.6,1.6c0,0-4.8,0.2-4.7,8.8
							C218.1,89.8,222,94.2,222,94.2z"/>
						<path class="st2" d="M216.3,61.7c1.6,0,2.9,1.3,2.9,2.9c0,1.3-0.9,2.2-1.9,2.8c-0.1,0.1-0.2,0.1-0.2,0.3
							c0,0.2,0.6,0.3,0.9,0.4l17,2c-2.4-8-9.8-13.9-18.6-13.9h0c-8.8,0-16.3,5.9-18.6,13.9l17-2c0.3-0.1,0.9-0.2,0.9-0.4
							c0-0.2-0.1-0.3-0.2-0.3c-1.1-0.6-1.9-1.5-1.9-2.8C213.4,63,214.7,61.7,216.3,61.7L216.3,61.7z"/>
					</g>
					<g>
						<path class="st2" d="M224.1,108l1.1-0.7c0,0-5.5-7.4-17.7-7.4c-6.2,0-9.5,2.5-13.8,2.5c0,0-1.8,0.2-3.5-0.9c0,0,2.1,3,9.6,3
							c5.5,0,9.5-3.2,13.3-3.2C218.5,101.3,222.4,106,224.1,108z"/>
					</g>
					<g>
						<path class="st2" d="M207.1,108l-1.1-0.7c0,0,5.5-7.4,17.7-7.4c6.2,0,9.5,2.5,13.8,2.5c0,0,1.8,0.2,3.5-0.9c0,0-2.1,3-9.6,3
							c-5.5,0-9.5-3.2-13.3-3.2C212.7,101.3,208.8,106,207.1,108z"/>
					</g>
					<path class="st2" d="M201.3,99.2c-0.2,0.6-2.5-0.1-4.1,0.4c-1.8,0.5-11.1,1.7-15.2-8c0,0,3.9,4.2,6.9,4.4c3,0.3,6.3,1,9.1,2.6
						l0.6,0.1c0,0-0.1-0.3-0.4-0.4c-0.4-0.2-3.3-1.1-4.7-5.7c-0.7-2.4-0.6-4.1-0.9-5.3c0,0,3.2,3.5,4.4,5.7
						C198.5,95.2,198.7,97.7,201.3,99.2z"/>
					<path class="st2" d="M191.8,94.3c-0.2,0.2-0.8-0.1-1-0.3c-0.2-0.1-1.8-0.8-4.4-1.8c-2.6-0.9-7.5-5.1-7-12.1
						c0,0,0.7,2.7,2.7,4.4c2,1.8,2.7,2,3.9,3.4c1.2,1.4,4,4.7,4.1,4.7c0.1,0,0.1-0.2-0.1-0.4c-0.2-0.2-0.9-2-1.4-2.6
						c-0.5-0.6-1.9-4.8,0.2-10c0,0,2.2,3.8,2,7.6c-0.1,3.8-0.3,2.9,0.6,6.1C191.4,93.4,191.9,94.2,191.8,94.3z"/>
					<path class="st2" d="M185.7,85.1c-0.1,0.1-0.7-0.7-1.1-1.4c-0.4-0.8-3.4-4-3.8-4.6c-0.4-0.6-3.8-4.7-1.2-10.8
						c0,0,0.3-0.1,0.3,1.4s1.3,4.6,2.4,6c1.1,1.4,2,3.6,2.3,5.9c0,0,0.1,0.4,0.3,0.5c0.2,0,0.2-0.4,0.2-0.4s-0.1-2.2-0.1-3.6
						c0-1.5,0.6-4,2-5.4c0,0,0.6-0.7,1-1.6c0,0,0.3-0.6,0.6-0.9c0,0,0.3,4.1-1.1,8c-1.4,3.8-1.9,4.5-1.7,6.6
						C185.7,84.6,185.8,85.1,185.7,85.1z"/>
					<path class="st2" d="M183.3,73.8c-0.1,0-0.3-0.5-0.3-0.9c-0.1-0.4-0.5-2.7-0.8-3.2c-0.3-0.5-1.4-2.8-1.4-5.5
						c0-2.7,1.2-6.4,3.9-9.3c0,0-0.1,0.9-0.8,2.8c-0.7,1.9-0.3,3.7-0.2,4c0.1,0.3,0.3,2.5,0.3,3.6c0,0.8-0.2,3.7-0.4,4.2
						c0,0-0.1,0.4,0.1,0.4c0.1,0,0.3-0.3,0.3-0.3s0.1-2.2,1.8-4.2c1.7-2,4.6-3.2,5.1-4.1c0,0-0.2,3.2-3.7,6.9
						c-3.1,3.3-2.2,1.6-3.2,4.3c0,0-0.4,1-0.4,1.2C183.6,73.9,183.3,73.8,183.3,73.8z"/>
					<path class="st2" d="M185.2,63.2c0,0-0.1-0.4,0.5-1.4c0.5-1,0-2.7,0.7-5.2c0.7-2.5,2-6.8,7.1-9.4c0,0-0.5,0.5-0.8,0.8
						c-0.3,0.4-1.6,2.9-2,4.7s-2.1,4.8-2.8,5.5c-0.6,0.7-0.4,0.8-0.4,0.8s0.3-0.1,0.6-0.6c0.3-0.5,2-2.4,3.8-2.8
						c1.8-0.4,4.7-1.3,4.9-1.5c0,0-3.2,3.2-6.1,4.9c-2.9,1.7-3.2,1.1-5,3.4C186,62.4,185.4,63.2,185.2,63.2z"/>
					<path class="st2" d="M192.2,53.6c0,0,0-0.3,0.5-0.8c0.5-0.5,1.1-2,2-3.4c0.9-1.4,3-5.1,8.5-5.9c0,0-1.7,1.2-1.9,1.6
						c-0.3,0.4-1.9,2.5-2.6,3.2c-0.7,0.7-2.8,2.2-3.4,2.5c0,0-0.4,0.3-0.3,0.4c0.1,0.1,0.4-0.1,0.4-0.1s1.9-1.5,4.2-1.5
						c2.3-0.1,4.7,0,5.1,0.1c0,0-2.2,1.5-7.3,2.4c-5.1,0.9-4.2,1-5,1.5C192.5,53.5,192.3,53.7,192.2,53.6z"/>
					<path class="st2" d="M201.4,47.6c0,0,0.1-0.3,0.9-0.5c0.8-0.3,0.8-1,3.3-2.4c2.5-1.3,5.1-1.9,7.8-0.8c0,0-1.1,0.1-1.3,0.2
						s-2.1,0.6-2.6,0.9c-0.5,0.3-3.3,1.5-4.4,1.7c-1.1,0.2-0.6,0.3-0.6,0.3s0.3,0.1,0.5,0.1c0.2,0,2.7-0.3,4.3,0.3
						c1.6,0.6,1.6,0.8,2.2,1c0.6,0.2,1.4,0.4,1.5,0.6c0,0-1.6,0.1-2.6,0.1c-1,0-3.5-0.3-4.7-0.8c-1.2-0.6-2.6-0.8-3.1-0.7
						C202.1,47.7,201.5,47.7,201.4,47.6z"/>
					<path class="st2" d="M211.5,46.4c0,0,0.1-0.1,0.8-0.3c0.7-0.1,0.9-0.6,2.6-0.9s4.3-0.7,6.7,1c0,0-1.5,0-1.8,0
						c-0.3,0-3.1,0.5-3.8,0.5c-0.6,0-1.9-0.3-2.1-0.1c-0.2,0.2,1.2,0.5,1.4,0.6c0.2,0.1,1.2,0.1,2.4,1.3c1.2,1.2,2.1,1.8,2.2,1.9
						c0,0-3.6-0.8-4.5-1.3c-0.9-0.5-2.4-2-2.7-2.2C212.6,46.7,211.5,46.4,211.5,46.4z"/>
					<path class="st2" d="M219.8,47.8c0,0,2.3-0.1,3.9,1c1.7,1,3,2.4,3.1,3.2c0,0-0.9-0.8-1.5-1c-0.6-0.2-2.3-1.1-2.7-1.4
						C222.3,49.5,220.2,48.2,219.8,47.8z"/>
					<path class="st2" d="M230.5,99.6c0,0,0.3-0.3,1.4-1.3c1.1-0.9,1.4-2.3,2.5-4.4c1.2-2.1,2.2-3.6,4.6-5.7c0,0-0.4,1.6-0.5,2.1
						c0,0.5-0.4,3.3-1.8,4.9c-1.4,1.6-1.4,2-3,2.9c0,0-0.6,0.4-0.6,0.6c0,0.1,1.1,0,1.1,0s1.1-0.4,1.5-0.6s2-1,2.6-1.3
						c0.6-0.3,1.2-0.5,2.6-0.9c1.4-0.4,6.6-1.8,8.7-5.1c0,0-0.6,1.9-1.4,2.8c-0.8,0.9-5,6.5-10.9,6.4c0,0-2.3-0.2-3.6-0.4
						c-1.2-0.2-1.7-0.2-1.8-0.2C231.8,99.5,230.6,99.7,230.5,99.6z"/>
					<path class="st2" d="M243.7,79.5c0,0-2.2,3.5-2.7,8.5s0.4,3.5-0.5,5.7c0,0-0.3,0.6-0.2,0.6c0.1,0,0.5-0.2,2.1-1.2
						c1.6-1,3.1-0.7,6.5-3.9c3.4-3.2,4.1-9.7,4.1-10.2c0,0-0.5,0.5-0.8,1.4c-0.3,0.9-0.8,1.5-0.9,1.7c-0.1,0.1-3.8,4.1-4.2,4.5
						c-0.4,0.4-2.6,3-3,3.7c-0.5,0.8-1.8,2.1-2.1,2c0,0,0-0.3,0.1-0.6c0.1-0.3,1.1-1.6,1.5-3.2c0.4-1.6,0.5-2.5,0.6-3.6
						C244.4,84,243.7,80.3,243.7,79.5z"/>
					<path class="st2" d="M246.7,84.3c0,0-0.2-0.5,0-0.9c0.1-0.2,0.2-1.9-0.4-3.3c-0.6-1.4-2-5.3-1.9-7.9c0.1-2.6,0.4-2.9,0.4-2.9
						s0.7,2.1,0.9,2.5c0.2,0.4,2.4,4.2,2.2,6.2c-0.2,2.1-0.3,2.7-0.2,2.8c0.1,0,0.4-0.3,0.4-0.5c0-0.3,0.4-1.7,1.1-3.4
						c0.7-1.7,3.4-5.4,4.1-7.9c0,0,0.9,4.3-1.5,8.3c-2.4,4-2.7,3.1-3.7,5C247,84.1,246.8,84.3,246.7,84.3z"/>
					<path class="st2" d="M248.9,73c-0.2,0-0.1-1.7-0.5-2.2c-0.4-0.5-4.1-4.9-4.9-9.3c0,0,2.3,2.4,2.7,2.6c0.4,0.3,2,1.8,2.4,3.2
						c0.5,1.4,0.4,2.5,0.5,2.5c0.2,0,0.2-1.5,0.2-1.5s0-3,0.3-4.4c0.3-1.4,0.9-3.8,0.6-5.1c0,0,1.4,2.2,1.3,5.4
						c-0.1,3.2-1.4,5.7-1.6,6c-0.2,0.4-0.7,1.9-0.7,2.2S248.9,73,248.9,73z"/>
					<path class="st2" d="M244.5,50.5c0,0,4.8,2.9,4.1,12.5c0,0,0,0.4-0.3,0c-0.3-0.5-1.3-1.8-1.8-2.1c-0.5-0.3-4.8-2.9-6.6-6.9
						c0,0,0.3-0.1,0.7,0.3c0.4,0.4,1.8,1.1,2,1.2c0.2,0.1,1.7,0.5,2.8,1.7c1.1,1.2,1.5,2.1,1.8,2.8c0,0,0.3,0.3,0.1-0.5
						c-0.2-0.7-0.3-1.2-0.8-2.1c-0.6-0.9-1.1-2.5-1.1-3.6C245.3,52.7,245,51.1,244.5,50.5z"/>
					<path class="st2" d="M243.7,53.9c0,0,0.1-0.6-0.4-1.5c-0.5-0.9-0.1-1.9-1.6-4.3c-0.8-1.3-3.7-2.4-3.7-2.4s0.8,1.1,1.4,1.8
						c0.5,0.6,0.7,1.1,0.9,1.4c0.2,0.3,1.2,1.3,1.5,1.8c0.1,0.1,0.2,0.4,0.2,0.6c0,0.2-0.4-0.1-0.5-0.2c-0.1-0.1-1.9-1.4-3-1.7
						c-1.1-0.2-3.2-0.4-3.8-0.7c0,0,2.5,2.3,5.2,2.9C242.8,52.4,243.7,53.9,243.7,53.9z"/>
					<path class="st2" d="M238,48c0,0-2.5-3.4-7-3.3c0,0,0.3,0.3,0.8,0.4c0.5,0.1,1.4,1,1.9,1.3C234.1,46.6,235.1,47.3,238,48z"/>
				</g>
			</g>
		</g>
	</g>
</g>
<g class="st0">
	<path class="st3" d="M100.3,43.3v42.2c0,3.7-0.6,6.9-1.8,9.8s-2.9,5.2-5.1,7.1c-2.2,1.9-4.7,3.3-7.7,4.3c-3,1-6.3,1.4-9.8,1.4
		c-3.6,0-6.8-0.5-9.8-1.4c-3-1-5.6-2.4-7.7-4.3c-2.2-1.9-3.9-4.3-5.1-7.1c-1.2-2.8-1.8-6.1-1.8-9.8V43.3h13.2v42.2
		c0,4.2,1,7.2,3,9.1c2,1.9,4.8,2.9,8.3,2.9c3.6,0,6.3-1,8.3-2.9c2-1.9,3-5,3-9.1V43.3H100.3z"/>
	<path class="st3" d="M163,107.1h-13.2l-25.6-42v42h-13.2V43.3h13.2l25.7,42.1V43.3H163V107.1z"/>
</g>
<g class="st0">
	<g class="st1">
		<path class="st2" d="M60.8,148.4c-1.5,0-2.8-0.2-4-0.7c-1.2-0.5-2.2-1.1-3-2c-0.8-0.8-1.4-1.8-1.9-2.9c-0.4-1.1-0.6-2.3-0.6-3.6
			v-0.7c0-1.4,0.2-2.8,0.6-4c0.4-1.2,1-2.2,1.8-3.1c0.8-0.9,1.7-1.5,2.8-2c1.1-0.5,2.3-0.7,3.7-0.7c1.4,0,2.6,0.2,3.6,0.7
			c1,0.5,1.9,1.1,2.6,1.9c0.7,0.8,1.2,1.8,1.6,3c0.4,1.2,0.5,2.4,0.5,3.8v2.2H56.5c0.1,0.6,0.3,1.2,0.5,1.7c0.3,0.5,0.6,0.9,1,1.3
			c0.4,0.4,0.9,0.6,1.4,0.8c0.5,0.2,1.1,0.3,1.8,0.3c0.9,0,1.8-0.2,2.6-0.5c0.8-0.3,1.5-0.9,2-1.6l2.5,2.8c-0.3,0.4-0.7,0.9-1.1,1.3
			c-0.5,0.4-1,0.8-1.6,1.1c-0.6,0.3-1.3,0.6-2.1,0.8C62.6,148.3,61.8,148.4,60.8,148.4z M60.2,132.7c-0.6,0-1,0.1-1.5,0.3
			c-0.4,0.2-0.8,0.5-1.1,0.8c-0.3,0.3-0.5,0.8-0.7,1.2c-0.2,0.5-0.3,1-0.4,1.6h7.1v-0.4c0-0.5-0.1-1-0.2-1.4
			c-0.1-0.4-0.3-0.8-0.6-1.1c-0.3-0.3-0.6-0.6-1.1-0.7C61.3,132.8,60.8,132.7,60.2,132.7z"/>
		<path class="st2" d="M76.2,128.9l0.2,2.2c0.7-0.8,1.5-1.5,2.4-1.9s2-0.7,3.1-0.7c0.9,0,1.7,0.1,2.5,0.4c0.7,0.3,1.4,0.7,1.9,1.2
			c0.5,0.6,0.9,1.3,1.2,2.3c0.3,0.9,0.4,2.1,0.4,3.4V148h-5.1v-12.2c0-0.6-0.1-1.1-0.2-1.5c-0.1-0.4-0.3-0.7-0.6-1
			c-0.3-0.2-0.6-0.4-1-0.5c-0.4-0.1-0.8-0.1-1.3-0.1c-0.8,0-1.4,0.2-1.9,0.5c-0.5,0.3-1,0.8-1.3,1.3V148h-5.1v-19.1H76.2z"/>
		<path class="st2" d="M98.9,141.8l3.5-12.8h5.3l-6.4,19.1h-4.9L90,128.9h5.3L98.9,141.8z"/>
		<path class="st2" d="M110,124c0-0.8,0.3-1.4,0.8-1.9c0.5-0.5,1.2-0.7,2.1-0.7c0.4,0,0.8,0.1,1.2,0.2c0.4,0.1,0.7,0.3,0.9,0.5
			c0.2,0.2,0.4,0.5,0.6,0.8c0.1,0.3,0.2,0.7,0.2,1c0,0.4-0.1,0.7-0.2,1.1c-0.1,0.3-0.3,0.6-0.6,0.8c-0.2,0.2-0.5,0.4-0.9,0.5
			c-0.4,0.1-0.7,0.2-1.2,0.2c-0.4,0-0.8-0.1-1.2-0.2c-0.4-0.1-0.7-0.3-0.9-0.5c-0.2-0.2-0.4-0.5-0.6-0.8
			C110,124.7,110,124.4,110,124z M115.4,148h-5.1v-19.1h5.1V148z"/>
		<path class="st2" d="M130.3,133.7c-0.3,0-0.6-0.1-0.9-0.1s-0.7,0-0.9,0c-1,0-1.8,0.2-2.4,0.5c-0.6,0.3-1.1,0.8-1.4,1.5V148h-5.1
			v-19.1h4.8l0.1,2.3c0.5-0.8,1.1-1.5,1.8-1.9c0.7-0.5,1.5-0.7,2.5-0.7c0.3,0,0.6,0,0.9,0.1c0.3,0,0.5,0.1,0.7,0.2L130.3,133.7z"/>
		<path class="st2" d="M131.3,138.3c0-1.4,0.2-2.7,0.6-3.9c0.4-1.2,1-2.2,1.7-3.1c0.8-0.9,1.7-1.5,2.8-2c1.1-0.5,2.4-0.7,3.8-0.7
			c1.4,0,2.7,0.2,3.9,0.7c1.1,0.5,2.1,1.2,2.8,2c0.8,0.9,1.4,1.9,1.8,3.1c0.4,1.2,0.6,2.5,0.6,3.9v0.4c0,1.4-0.2,2.7-0.6,3.9
			c-0.4,1.2-1,2.2-1.8,3.1c-0.8,0.9-1.7,1.5-2.8,2c-1.1,0.5-2.4,0.7-3.8,0.7s-2.7-0.2-3.9-0.7c-1.1-0.5-2.1-1.2-2.8-2
			c-0.8-0.9-1.4-1.9-1.8-3.1c-0.4-1.2-0.6-2.5-0.6-3.9V138.3z M136.4,138.7c0,0.8,0.1,1.5,0.2,2.2c0.1,0.7,0.4,1.3,0.7,1.8
			c0.3,0.5,0.7,0.9,1.2,1.2c0.5,0.3,1.1,0.4,1.8,0.4c0.7,0,1.3-0.1,1.8-0.4c0.5-0.3,0.9-0.7,1.2-1.2c0.3-0.5,0.5-1.1,0.7-1.8
			c0.1-0.7,0.2-1.4,0.2-2.2v-0.4c0-0.8-0.1-1.5-0.2-2.1s-0.4-1.3-0.7-1.8c-0.3-0.5-0.7-0.9-1.2-1.2c-0.5-0.3-1.1-0.4-1.8-0.4
			c-0.7,0-1.3,0.1-1.8,0.4c-0.5,0.3-0.9,0.7-1.2,1.2c-0.3,0.5-0.5,1.1-0.7,1.8s-0.2,1.4-0.2,2.1V138.7z"/>
		<path class="st2" d="M157.2,128.9l0.2,2.2c0.7-0.8,1.5-1.5,2.4-1.9s2-0.7,3.1-0.7c0.9,0,1.7,0.1,2.5,0.4c0.7,0.3,1.4,0.7,1.9,1.2
			c0.5,0.6,0.9,1.3,1.2,2.3c0.3,0.9,0.4,2.1,0.4,3.4V148h-5.1v-12.2c0-0.6-0.1-1.1-0.2-1.5c-0.1-0.4-0.3-0.7-0.6-1
			c-0.3-0.2-0.6-0.4-1-0.5c-0.4-0.1-0.8-0.1-1.3-0.1c-0.8,0-1.4,0.2-1.9,0.5c-0.5,0.3-1,0.8-1.3,1.3V148h-5.1v-19.1H157.2z"/>
		<path class="st2" d="M177.5,128.9l0.2,2.1c0.6-0.8,1.4-1.4,2.3-1.8c0.9-0.4,2-0.7,3.2-0.7c1.1,0,2.1,0.2,3,0.7
			c0.9,0.5,1.6,1.2,2,2.2c0.6-0.9,1.4-1.6,2.4-2.1s2.1-0.8,3.4-0.8c0.9,0,1.8,0.1,2.5,0.4c0.8,0.3,1.4,0.7,1.9,1.3
			c0.5,0.6,0.9,1.3,1.2,2.2c0.3,0.9,0.4,2.1,0.4,3.4V148h-5.1v-12.1c0-0.6-0.1-1.2-0.2-1.6c-0.1-0.4-0.3-0.7-0.6-1
			c-0.2-0.2-0.5-0.4-0.9-0.5c-0.4-0.1-0.8-0.1-1.2-0.1c-0.8,0-1.4,0.2-2,0.6c-0.5,0.4-0.9,0.9-1.2,1.6c0,0.1,0,0.1,0,0.2
			s0,0.1,0,0.2V148h-5.1v-12.1c0-0.6-0.1-1.2-0.2-1.6s-0.3-0.7-0.6-1c-0.2-0.2-0.5-0.4-0.9-0.5c-0.4-0.1-0.8-0.1-1.2-0.1
			c-0.8,0-1.4,0.2-1.9,0.5c-0.5,0.3-0.9,0.8-1.2,1.3V148h-5.1v-19.1H177.5z"/>
		<path class="st2" d="M212.7,148.4c-1.5,0-2.8-0.2-4-0.7c-1.2-0.5-2.2-1.1-3-2c-0.8-0.8-1.4-1.8-1.9-2.9c-0.4-1.1-0.6-2.3-0.6-3.6
			v-0.7c0-1.4,0.2-2.8,0.6-4c0.4-1.2,1-2.2,1.8-3.1c0.8-0.9,1.7-1.5,2.8-2c1.1-0.5,2.3-0.7,3.7-0.7c1.4,0,2.6,0.2,3.6,0.7
			c1,0.5,1.9,1.1,2.6,1.9c0.7,0.8,1.2,1.8,1.6,3c0.4,1.2,0.5,2.4,0.5,3.8v2.2h-12.1c0.1,0.6,0.3,1.2,0.5,1.7c0.3,0.5,0.6,0.9,1,1.3
			c0.4,0.4,0.9,0.6,1.4,0.8c0.5,0.2,1.1,0.3,1.8,0.3c0.9,0,1.8-0.2,2.6-0.5c0.8-0.3,1.5-0.9,2-1.6l2.5,2.8c-0.3,0.4-0.7,0.9-1.1,1.3
			c-0.5,0.4-1,0.8-1.6,1.1c-0.6,0.3-1.3,0.6-2.1,0.8C214.5,148.3,213.7,148.4,212.7,148.4z M212.2,132.7c-0.6,0-1,0.1-1.5,0.3
			c-0.4,0.2-0.8,0.5-1.1,0.8c-0.3,0.3-0.5,0.8-0.7,1.2c-0.2,0.5-0.3,1-0.4,1.6h7.1v-0.4c0-0.5-0.1-1-0.2-1.4
			c-0.1-0.4-0.3-0.8-0.6-1.1c-0.3-0.3-0.6-0.6-1.1-0.7C213.3,132.8,212.7,132.7,212.2,132.7z"/>
		<path class="st2" d="M228.2,128.9l0.2,2.2c0.7-0.8,1.5-1.5,2.4-1.9s2-0.7,3.1-0.7c0.9,0,1.7,0.1,2.5,0.4c0.7,0.3,1.4,0.7,1.9,1.2
			c0.5,0.6,0.9,1.3,1.2,2.3c0.3,0.9,0.4,2.1,0.4,3.4V148h-5.1v-12.2c0-0.6-0.1-1.1-0.2-1.5c-0.1-0.4-0.3-0.7-0.6-1
			c-0.3-0.2-0.6-0.4-1-0.5c-0.4-0.1-0.8-0.1-1.3-0.1c-0.8,0-1.4,0.2-1.9,0.5c-0.5,0.3-1,0.8-1.3,1.3V148h-5.1v-19.1H228.2z"/>
		<path class="st2" d="M249.8,124.2v4.7h3.3v3.7h-3.3v9.5c0,0.4,0,0.7,0.1,1c0.1,0.3,0.2,0.5,0.4,0.6c0.2,0.1,0.4,0.2,0.6,0.3
			c0.2,0.1,0.5,0.1,0.9,0.1c0.3,0,0.6,0,0.8,0c0.3,0,0.5-0.1,0.7-0.1v3.9c-0.4,0.1-0.9,0.2-1.4,0.3c-0.5,0.1-1.1,0.1-1.7,0.1
			c-0.8,0-1.6-0.1-2.3-0.3c-0.7-0.2-1.2-0.5-1.7-1c-0.5-0.4-0.8-1-1.1-1.7c-0.3-0.7-0.4-1.6-0.4-2.6v-10.1h-2.8v-3.7h2.8v-4.7H249.8
			z"/>
	</g>
</g>
<g>
	<g>
		<g>
			<g>
				<g>
					<g>
						<path d="M257.7,88.3c-8-2.4-13.8-9.8-13.8-18.6c0-1.6,0.2-3.1,0.5-4.6l12.6,1.6c0,0,4.8,0.2,4.7,8.8
							C261.5,83.8,257.7,88.3,257.7,88.3z"/>
						<path d="M269,88.3c8-2.4,13.8-9.8,13.8-18.6c0-1.6-0.2-3.1-0.5-4.6l-12.6,1.6c0,0-4.8,0.2-4.7,8.8
							C265.1,83.8,269,88.3,269,88.3z"/>
						<path d="M263.3,55.7c1.6,0,2.9,1.3,2.9,2.9c0,1.3-0.9,2.2-1.9,2.8c-0.1,0.1-0.2,0.1-0.2,0.3c0,0.2,0.6,0.3,0.9,0.4l17,2
							c-2.4-8-9.8-13.9-18.6-13.9h0c-8.8,0-16.3,5.9-18.6,13.9l17-2c0.3-0.1,0.9-0.2,0.9-0.4c0-0.2-0.1-0.3-0.2-0.3
							c-1.1-0.6-1.9-1.5-1.9-2.8C260.4,57.1,261.7,55.7,263.3,55.7L263.3,55.7z"/>
					</g>
					<g>
						<path d="M271.1,102l1.1-0.7c0,0-5.5-7.4-17.7-7.4c-6.2,0-9.5,2.5-13.8,2.5c0,0-1.8,0.2-3.5-0.9c0,0,2.1,3,9.6,3
							c5.5,0,9.5-3.2,13.3-3.2C265.5,95.3,269.4,100.1,271.1,102z"/>
					</g>
					<g>
						<path d="M254.1,102l-1.1-0.7c0,0,5.5-7.4,17.7-7.4c6.2,0,9.5,2.5,13.8,2.5c0,0,1.8,0.2,3.5-0.9c0,0-2.1,3-9.6,3
							c-5.5,0-9.5-3.2-13.3-3.2C259.7,95.3,255.8,100.1,254.1,102z"/>
					</g>
					<path d="M248.3,93.3c-0.2,0.6-2.5-0.1-4.1,0.4c-1.8,0.5-11.1,1.7-15.2-8c0,0,3.9,4.2,6.9,4.4c3,0.3,6.3,1,9.1,2.6l0.6,0.1
						c0,0-0.1-0.3-0.4-0.4c-0.4-0.2-3.3-1.1-4.7-5.7c-0.7-2.4-0.6-4.1-0.9-5.3c0,0,3.2,3.5,4.4,5.7
						C245.5,89.2,245.7,91.8,248.3,93.3z"/>
					<path d="M238.8,88.4c-0.2,0.2-0.8-0.1-1-0.3c-0.2-0.1-1.8-0.8-4.4-1.8c-2.6-0.9-7.5-5.1-7-12.1c0,0,0.7,2.7,2.7,4.4
						c2,1.8,2.7,2,3.9,3.4c1.2,1.4,4,4.7,4.1,4.7c0.1,0,0.1-0.2-0.1-0.4c-0.2-0.2-0.9-2-1.4-2.6c-0.5-0.6-1.9-4.8,0.2-10
						c0,0,2.2,3.8,2,7.6c-0.1,3.8-0.3,2.9,0.6,6.1C238.4,87.4,238.9,88.3,238.8,88.4z"/>
					<path d="M232.7,79.2c-0.1,0.1-0.7-0.7-1.1-1.4c-0.4-0.8-3.4-4-3.8-4.6c-0.4-0.6-3.8-4.7-1.2-10.8c0,0,0.3-0.1,0.3,1.4
						s1.3,4.6,2.4,6c1.1,1.4,2,3.6,2.3,5.9c0,0,0.1,0.4,0.3,0.5c0.2,0,0.2-0.4,0.2-0.4s-0.1-2.2-0.1-3.6c0-1.5,0.6-4,2-5.4
						c0,0,0.6-0.7,1-1.6c0,0,0.3-0.6,0.6-0.9c0,0,0.3,4.1-1.1,8c-1.4,3.8-1.9,4.5-1.7,6.6C232.8,78.6,232.8,79.1,232.7,79.2z"/>
					<path d="M230.4,67.8c-0.1,0-0.3-0.5-0.3-0.9c-0.1-0.4-0.5-2.7-0.8-3.2c-0.3-0.5-1.4-2.8-1.4-5.5c0-2.7,1.2-6.4,3.9-9.3
						c0,0-0.1,0.9-0.8,2.8c-0.7,1.9-0.3,3.7-0.2,4c0.1,0.3,0.3,2.5,0.3,3.6c0,0.8-0.2,3.7-0.4,4.2c0,0-0.1,0.4,0.1,0.4
						s0.3-0.3,0.3-0.3s0.1-2.2,1.8-4.2c1.7-2,4.6-3.2,5.1-4.1c0,0-0.2,3.2-3.7,6.9c-3.1,3.3-2.2,1.6-3.2,4.3c0,0-0.4,1-0.4,1.2
						C230.6,67.9,230.4,67.8,230.4,67.8z"/>
					<path d="M232.3,57.2c0,0-0.1-0.4,0.5-1.4c0.5-1,0-2.7,0.7-5.2c0.7-2.5,2-6.8,7.1-9.4c0,0-0.5,0.5-0.8,0.8
						c-0.3,0.4-1.6,2.9-2,4.7s-2.1,4.8-2.8,5.5c-0.6,0.7-0.4,0.8-0.4,0.8s0.3-0.1,0.6-0.6c0.3-0.5,2-2.4,3.8-2.8
						c1.8-0.4,4.7-1.3,4.9-1.5c0,0-3.2,3.2-6.1,4.9c-2.9,1.7-3.2,1.1-5,3.4C233,56.4,232.4,57.2,232.3,57.2z"/>
					<path d="M239.2,47.6c0,0,0-0.3,0.5-0.8c0.5-0.5,1.1-2,2-3.4c0.9-1.4,3-5.1,8.5-5.9c0,0-1.7,1.2-1.9,1.6
						c-0.3,0.4-1.9,2.5-2.6,3.2c-0.7,0.7-2.8,2.2-3.4,2.5c0,0-0.4,0.3-0.3,0.4c0.1,0.1,0.4-0.1,0.4-0.1s1.9-1.5,4.2-1.5
						c2.3-0.1,4.7,0,5.1,0.1c0,0-2.2,1.5-7.3,2.4c-5.1,0.9-4.2,1-5,1.5C239.5,47.6,239.4,47.7,239.2,47.6z"/>
					<path d="M248.4,41.7c0,0,0.1-0.3,0.9-0.5c0.8-0.3,0.8-1,3.3-2.4c2.5-1.3,5.1-1.9,7.8-0.8c0,0-1.1,0.1-1.3,0.2
						c-0.2,0.1-2.1,0.6-2.6,0.9c-0.5,0.3-3.3,1.5-4.4,1.7c-1.1,0.2-0.6,0.3-0.6,0.3s0.3,0.1,0.5,0.1c0.2,0,2.7-0.3,4.3,0.3
						c1.6,0.6,1.6,0.8,2.2,1c0.6,0.2,1.4,0.4,1.5,0.6c0,0-1.6,0.1-2.6,0.1c-1,0-3.5-0.3-4.7-0.8c-1.2-0.6-2.6-0.8-3.1-0.7
						C249.1,41.8,248.5,41.8,248.4,41.7z"/>
					<path d="M258.6,40.4c0,0,0.1-0.1,0.8-0.3c0.7-0.1,0.9-0.6,2.6-0.9c1.7-0.4,4.3-0.7,6.7,1c0,0-1.5,0-1.8,0
						c-0.3,0-3.1,0.5-3.8,0.5c-0.6,0-1.9-0.3-2.1-0.1c-0.2,0.2,1.2,0.5,1.4,0.6c0.2,0.1,1.2,0.1,2.4,1.3c1.2,1.2,2.1,1.8,2.2,1.9
						c0,0-3.6-0.8-4.5-1.3c-0.9-0.5-2.4-2-2.7-2.2C259.6,40.8,258.6,40.4,258.6,40.4z"/>
					<path d="M266.8,41.9c0,0,2.3-0.1,3.9,1c1.7,1,3,2.4,3.1,3.2c0,0-0.9-0.8-1.5-1c-0.6-0.2-2.3-1.1-2.7-1.4
						C269.3,43.5,267.2,42.2,266.8,41.9z"/>
					<path d="M277.5,93.7c0,0,0.3-0.3,1.4-1.3c1.1-0.9,1.4-2.3,2.5-4.4c1.2-2.1,2.2-3.6,4.6-5.7c0,0-0.4,1.6-0.5,2.1
						c0,0.5-0.4,3.3-1.8,4.9c-1.4,1.6-1.4,2-3,2.9c0,0-0.6,0.4-0.6,0.6c0,0.1,1.1,0,1.1,0s1.1-0.4,1.5-0.6c0.4-0.2,2-1,2.6-1.3
						c0.6-0.3,1.2-0.5,2.6-0.9c1.4-0.4,6.6-1.8,8.7-5.1c0,0-0.6,1.9-1.4,2.8c-0.8,0.9-5,6.5-10.9,6.4c0,0-2.3-0.2-3.6-0.4
						c-1.2-0.2-1.7-0.2-1.8-0.2C278.8,93.6,277.6,93.8,277.5,93.7z"/>
					<path d="M290.7,73.5c0,0-2.2,3.5-2.7,8.5s0.4,3.5-0.5,5.7c0,0-0.3,0.6-0.2,0.6c0.1,0,0.5-0.2,2.1-1.2c1.6-1,3.1-0.7,6.5-3.9
						c3.4-3.2,4.1-9.7,4.1-10.2c0,0-0.5,0.5-0.8,1.4c-0.3,0.9-0.8,1.5-0.9,1.7c-0.1,0.1-3.8,4.1-4.2,4.5c-0.4,0.4-2.6,3-3,3.7
						c-0.5,0.8-1.8,2.1-2.1,2c0,0,0-0.3,0.1-0.6c0.1-0.3,1.1-1.6,1.5-3.2c0.4-1.6,0.5-2.5,0.6-3.6C291.4,78,290.7,74.3,290.7,73.5z"
						/>
					<path d="M293.7,78.4c0,0-0.2-0.5,0-0.9c0.1-0.2,0.2-1.9-0.4-3.3c-0.6-1.4-2-5.3-1.9-7.9c0.1-2.6,0.4-2.9,0.4-2.9
						s0.7,2.1,0.9,2.5c0.2,0.4,2.4,4.2,2.2,6.2c-0.2,2.1-0.3,2.7-0.2,2.8c0.1,0,0.4-0.3,0.4-0.5c0-0.3,0.4-1.7,1.1-3.4
						c0.7-1.7,3.4-5.4,4.1-7.9c0,0,0.9,4.3-1.5,8.3c-2.4,4-2.7,3.1-3.7,5C294,78.2,293.9,78.4,293.7,78.4z"/>
					<path d="M295.9,67c-0.2,0-0.1-1.7-0.5-2.2c-0.4-0.5-4.1-4.9-4.9-9.3c0,0,2.3,2.4,2.7,2.6c0.4,0.3,2,1.8,2.4,3.2
						c0.5,1.4,0.4,2.5,0.5,2.5c0.2,0,0.2-1.5,0.2-1.5s0-3,0.3-4.4c0.3-1.4,0.9-3.8,0.6-5.1c0,0,1.4,2.2,1.3,5.4
						c-0.1,3.2-1.4,5.7-1.6,6c-0.2,0.4-0.7,1.9-0.7,2.2S295.9,67,295.9,67z"/>
					<path d="M291.5,44.5c0,0,4.8,2.9,4.1,12.5c0,0,0,0.4-0.3,0c-0.3-0.5-1.3-1.8-1.8-2.1c-0.5-0.3-4.8-2.9-6.6-6.9
						c0,0,0.3-0.1,0.7,0.3c0.4,0.4,1.8,1.1,2,1.2c0.2,0.1,1.7,0.5,2.8,1.7c1.1,1.2,1.5,2.1,1.8,2.8c0,0,0.3,0.3,0.1-0.5
						c-0.2-0.7-0.3-1.2-0.8-2.1c-0.6-0.9-1.1-2.5-1.1-3.6C292.4,46.8,292,45.1,291.5,44.5z"/>
					<path d="M290.7,47.9c0,0,0.1-0.6-0.4-1.5c-0.5-0.9-0.1-1.9-1.6-4.3c-0.8-1.3-3.7-2.4-3.7-2.4s0.8,1.1,1.4,1.8
						c0.5,0.6,0.7,1.1,0.9,1.4s1.2,1.3,1.5,1.8c0.1,0.1,0.2,0.4,0.2,0.6c0,0.2-0.4-0.1-0.5-0.2c-0.1-0.1-1.9-1.4-3-1.7
						c-1.1-0.2-3.2-0.4-3.8-0.7c0,0,2.5,2.3,5.2,2.9C289.8,46.4,290.7,47.9,290.7,47.9z"/>
					<path d="M285,42c0,0-2.5-3.4-7-3.3c0,0,0.3,0.3,0.8,0.4c0.5,0.1,1.4,1,1.9,1.3C281.1,40.6,282.1,41.3,285,42z"/>
				</g>
			</g>
		</g>
	</g>
</g>
<g>
	<path d="M90.9,69.9c0,4.8-0.6,9.1-1.9,12.9c-1.3,3.8-3.1,7-5.5,9.7s-5.2,4.7-8.4,6.1s-6.9,2.1-10.8,2.1c-3.9,0-7.5-0.7-10.8-2.1
		c-3.3-1.4-6.1-3.5-8.5-6.1c-2.4-2.6-4.2-5.9-5.5-9.7c-1.3-3.8-2-8.1-2-12.9v-2.8c0-4.8,0.7-9.1,2-12.9c1.3-3.8,3.1-7.1,5.5-9.7
		c2.4-2.7,5.2-4.7,8.5-6.1c3.3-1.4,6.9-2.1,10.8-2.1c3.9,0,7.5,0.7,10.8,2.1c3.3,1.4,6.1,3.5,8.5,6.1c2.4,2.7,4.2,5.9,5.5,9.7
		c1.3,3.8,2,8.1,2,12.9V69.9z M77.8,67.1c0-6.6-1.2-11.6-3.5-15c-2.4-3.4-5.7-5.1-10.1-5.1c-4.4,0-7.7,1.7-10.1,5.1
		c-2.4,3.4-3.5,8.4-3.5,15v2.8c0,3.3,0.3,6.2,0.9,8.7c0.6,2.5,1.5,4.6,2.7,6.3s2.6,3,4.3,3.9c1.7,0.9,3.6,1.3,5.8,1.3
		c4.4,0,7.7-1.7,10-5.2s3.5-8.5,3.5-15V67.1z"/>
	<path d="M151.3,99.9h-12.9l-25.2-41.3v41.3h-12.9V37.1h12.9l25.2,41.4V37.1h12.9V99.9z"/>
	<path d="M210.1,37.1v41.4c0,3.6-0.6,6.8-1.8,9.6s-2.9,5.1-5,7c-2.1,1.9-4.7,3.3-7.6,4.2s-6.2,1.4-9.6,1.4c-3.5,0-6.7-0.5-9.7-1.4
		s-5.5-2.4-7.6-4.2c-2.1-1.9-3.8-4.2-5-7c-1.2-2.8-1.8-6-1.8-9.6V37.1h12.9v41.4c0,4.1,1,7.1,3,9c2,1.9,4.7,2.8,8.2,2.8
		c3.5,0,6.2-0.9,8.2-2.8c1.9-1.9,2.9-4.9,2.9-9V37.1H210.1z"/>
</g>
<g>
	<path d="M47.7,144.9c-1.6,0-3-0.3-4.3-0.8c-1.3-0.5-2.4-1.2-3.2-2.1c-0.9-0.9-1.6-2-2-3.2c-0.5-1.2-0.7-2.5-0.7-3.9v-0.7
		c0-1.6,0.2-3,0.7-4.3c0.5-1.3,1.1-2.4,1.9-3.4c0.8-0.9,1.9-1.7,3-2.2c1.2-0.5,2.5-0.8,4-0.8c1.5,0,2.8,0.2,3.9,0.7
		c1.1,0.5,2.1,1.2,2.9,2.1c0.8,0.9,1.4,2,1.7,3.2c0.4,1.3,0.6,2.6,0.6,4.2v2.4H43c0.1,0.7,0.3,1.3,0.5,1.8c0.3,0.5,0.6,1,1.1,1.4
		c0.4,0.4,0.9,0.7,1.5,0.9c0.6,0.2,1.2,0.3,1.9,0.3c1,0,1.9-0.2,2.8-0.6c0.9-0.4,1.6-1,2.2-1.8l2.7,3c-0.3,0.5-0.7,0.9-1.2,1.4
		c-0.5,0.4-1.1,0.8-1.8,1.2c-0.7,0.4-1.4,0.6-2.3,0.8C49.6,144.8,48.7,144.9,47.7,144.9z M47.1,127.9c-0.6,0-1.1,0.1-1.6,0.3
		c-0.5,0.2-0.8,0.5-1.2,0.9c-0.3,0.4-0.6,0.8-0.8,1.4c-0.2,0.5-0.4,1.1-0.4,1.7h7.7v-0.4c0-0.5-0.1-1.1-0.2-1.5
		c-0.1-0.5-0.4-0.9-0.7-1.2c-0.3-0.3-0.7-0.6-1.1-0.8C48.2,128,47.7,127.9,47.1,127.9z"/>
	<path d="M64.5,123.8l0.2,2.4c0.7-0.9,1.6-1.6,2.6-2.1c1-0.5,2.1-0.7,3.4-0.7c1,0,1.9,0.1,2.7,0.4c0.8,0.3,1.5,0.7,2.1,1.4
		s1,1.4,1.3,2.5c0.3,1,0.5,2.2,0.5,3.7v13.2h-5.5v-13.2c0-0.7-0.1-1.2-0.2-1.6c-0.1-0.4-0.4-0.8-0.6-1s-0.6-0.4-1-0.5
		c-0.4-0.1-0.9-0.2-1.4-0.2c-0.8,0-1.5,0.2-2.1,0.5c-0.6,0.4-1.1,0.8-1.4,1.5v14.6h-5.5v-20.7H64.5z"/>
	<path d="M89.1,137.7l3.9-14h5.8l-7,20.7h-5.3l-7-20.7h5.8L89.1,137.7z"/>
	<path d="M101.1,118.4c0-0.8,0.3-1.5,0.8-2c0.6-0.5,1.3-0.8,2.3-0.8c0.5,0,0.9,0.1,1.3,0.2c0.4,0.1,0.7,0.3,1,0.6
		c0.3,0.3,0.5,0.6,0.6,0.9c0.1,0.4,0.2,0.7,0.2,1.1c0,0.4-0.1,0.8-0.2,1.2c-0.1,0.4-0.4,0.7-0.6,0.9c-0.3,0.3-0.6,0.5-1,0.6
		c-0.4,0.1-0.8,0.2-1.3,0.2c-0.5,0-0.9-0.1-1.3-0.2c-0.4-0.1-0.7-0.3-1-0.6c-0.3-0.3-0.5-0.6-0.6-0.9
		C101.2,119.2,101.1,118.8,101.1,118.4z M107,144.5h-5.6v-20.7h5.6V144.5z"/>
	<path d="M123.2,128.9c-0.3,0-0.6-0.1-1-0.1c-0.4,0-0.7,0-1,0c-1.1,0-2,0.2-2.6,0.5c-0.7,0.4-1.2,0.9-1.5,1.6v13.6h-5.5v-20.7h5.2
		l0.2,2.5c0.5-0.9,1.2-1.6,1.9-2.1c0.8-0.5,1.7-0.8,2.7-0.8c0.3,0,0.6,0,0.9,0.1c0.3,0.1,0.6,0.1,0.8,0.2L123.2,128.9z"/>
	<path d="M124.3,133.9c0-1.5,0.2-2.9,0.7-4.2c0.4-1.3,1.1-2.4,1.9-3.3c0.8-0.9,1.9-1.7,3.1-2.2c1.2-0.5,2.6-0.8,4.2-0.8
		c1.6,0,3,0.3,4.2,0.8c1.2,0.5,2.3,1.3,3.1,2.2c0.8,0.9,1.5,2.1,1.9,3.3c0.4,1.3,0.7,2.7,0.7,4.2v0.4c0,1.5-0.2,2.9-0.7,4.2
		c-0.4,1.3-1.1,2.4-1.9,3.3c-0.8,0.9-1.9,1.7-3.1,2.2c-1.2,0.5-2.6,0.8-4.2,0.8c-1.6,0-3-0.3-4.2-0.8c-1.2-0.5-2.2-1.3-3.1-2.2
		c-0.8-0.9-1.5-2-1.9-3.3c-0.4-1.3-0.7-2.7-0.7-4.2V133.9z M129.9,134.3c0,0.8,0.1,1.6,0.2,2.4c0.2,0.7,0.4,1.4,0.7,1.9
		c0.3,0.5,0.8,1,1.3,1.3c0.5,0.3,1.2,0.5,2,0.5c0.8,0,1.4-0.2,2-0.5c0.5-0.3,1-0.8,1.3-1.3c0.3-0.5,0.6-1.2,0.7-1.9
		c0.2-0.7,0.2-1.5,0.2-2.4v-0.4c0-0.8-0.1-1.6-0.2-2.3c-0.2-0.7-0.4-1.4-0.7-1.9c-0.3-0.6-0.8-1-1.3-1.3s-1.2-0.5-2-0.5
		c-0.8,0-1.4,0.2-2,0.5c-0.5,0.3-1,0.8-1.3,1.3c-0.3,0.6-0.6,1.2-0.7,1.9c-0.2,0.7-0.2,1.5-0.2,2.3V134.3z"/>
	<path d="M152.5,123.8l0.2,2.4c0.7-0.9,1.6-1.6,2.6-2.1c1-0.5,2.1-0.7,3.4-0.7c1,0,1.9,0.1,2.7,0.4c0.8,0.3,1.5,0.7,2.1,1.4
		c0.6,0.6,1,1.4,1.3,2.5c0.3,1,0.5,2.2,0.5,3.7v13.2h-5.5v-13.2c0-0.7-0.1-1.2-0.2-1.6c-0.1-0.4-0.4-0.8-0.6-1s-0.6-0.4-1-0.5
		c-0.4-0.1-0.9-0.2-1.4-0.2c-0.8,0-1.5,0.2-2.1,0.5c-0.6,0.4-1.1,0.8-1.4,1.5v14.6h-5.5v-20.7H152.5z"/>
	<path d="M174.4,123.8l0.2,2.4c0.7-0.9,1.6-1.6,2.6-2.1c1-0.5,2.1-0.7,3.4-0.7c1,0,1.9,0.1,2.7,0.4c0.8,0.3,1.5,0.7,2.1,1.4
		c0.6,0.6,1,1.4,1.3,2.5c0.3,1,0.5,2.2,0.5,3.7v13.2h-5.5v-13.2c0-0.7-0.1-1.2-0.2-1.6c-0.1-0.4-0.4-0.8-0.6-1
		c-0.3-0.3-0.6-0.4-1-0.5c-0.4-0.1-0.9-0.2-1.4-0.2c-0.8,0-1.5,0.2-2.1,0.5c-0.6,0.4-1.1,0.8-1.4,1.5v14.6h-5.5v-20.7H174.4z"/>
	<path d="M200.9,144.9c-1.6,0-3-0.3-4.3-0.8c-1.3-0.5-2.4-1.2-3.2-2.1c-0.9-0.9-1.6-2-2-3.2c-0.5-1.2-0.7-2.5-0.7-3.9v-0.7
		c0-1.6,0.2-3,0.7-4.3c0.5-1.3,1.1-2.4,1.9-3.4c0.8-0.9,1.9-1.7,3-2.2c1.2-0.5,2.5-0.8,4-0.8c1.5,0,2.8,0.2,3.9,0.7
		c1.1,0.5,2.1,1.2,2.9,2.1c0.8,0.9,1.4,2,1.7,3.2c0.4,1.3,0.6,2.6,0.6,4.2v2.4h-13.2c0.1,0.7,0.3,1.3,0.5,1.8c0.3,0.5,0.6,1,1.1,1.4
		c0.4,0.4,0.9,0.7,1.5,0.9c0.6,0.2,1.2,0.3,1.9,0.3c1,0,1.9-0.2,2.8-0.6c0.9-0.4,1.6-1,2.2-1.8l2.7,3c-0.3,0.5-0.7,0.9-1.2,1.4
		c-0.5,0.4-1.1,0.8-1.8,1.2c-0.7,0.4-1.4,0.6-2.3,0.8C202.8,144.8,201.9,144.9,200.9,144.9z M200.2,127.9c-0.6,0-1.1,0.1-1.6,0.3
		c-0.5,0.2-0.8,0.5-1.2,0.9c-0.3,0.4-0.6,0.8-0.8,1.4c-0.2,0.5-0.4,1.1-0.4,1.7h7.7v-0.4c0-0.5-0.1-1.1-0.2-1.5
		c-0.1-0.5-0.4-0.9-0.7-1.2c-0.3-0.3-0.7-0.6-1.1-0.8C201.4,128,200.9,127.9,200.2,127.9z"/>
	<path d="M217.7,123.8l0.2,2.3c0.7-0.8,1.5-1.5,2.5-2c1-0.5,2.1-0.7,3.4-0.7c1.2,0,2.3,0.2,3.3,0.7c1,0.5,1.7,1.3,2.2,2.4
		c0.7-1,1.5-1.8,2.6-2.3c1-0.6,2.3-0.8,3.7-0.8c1,0,1.9,0.1,2.7,0.4c0.8,0.3,1.5,0.7,2.1,1.4c0.6,0.6,1,1.4,1.3,2.4
		c0.3,1,0.5,2.2,0.5,3.7v13.2h-5.6v-13.2c0-0.7-0.1-1.3-0.2-1.7c-0.1-0.4-0.4-0.8-0.6-1c-0.3-0.2-0.6-0.4-1-0.5
		c-0.4-0.1-0.8-0.1-1.3-0.1c-0.9,0-1.6,0.2-2.1,0.6c-0.6,0.4-1,1-1.3,1.7c0,0.1,0,0.1,0,0.2c0,0.1,0,0.1,0,0.2v13.8h-5.5v-13.2
		c0-0.7-0.1-1.3-0.2-1.7s-0.3-0.8-0.6-1.1c-0.3-0.3-0.6-0.4-1-0.5c-0.4-0.1-0.8-0.2-1.3-0.2c-0.8,0-1.5,0.2-2.1,0.5
		c-0.6,0.3-1,0.8-1.3,1.4v14.7h-5.5v-20.7H217.7z"/>
	<path d="M256,144.9c-1.6,0-3-0.3-4.3-0.8c-1.3-0.5-2.4-1.2-3.2-2.1c-0.9-0.9-1.6-2-2-3.2c-0.5-1.2-0.7-2.5-0.7-3.9v-0.7
		c0-1.6,0.2-3,0.7-4.3c0.5-1.3,1.1-2.4,1.9-3.4c0.8-0.9,1.9-1.7,3-2.2c1.2-0.5,2.5-0.8,4-0.8c1.5,0,2.8,0.2,3.9,0.7
		c1.1,0.5,2.1,1.2,2.9,2.1c0.8,0.9,1.4,2,1.7,3.2c0.4,1.3,0.6,2.6,0.6,4.2v2.4h-13.2c0.1,0.7,0.3,1.3,0.5,1.8c0.3,0.5,0.6,1,1.1,1.4
		c0.4,0.4,0.9,0.7,1.5,0.9c0.6,0.2,1.2,0.3,1.9,0.3c1,0,1.9-0.2,2.8-0.6c0.9-0.4,1.6-1,2.2-1.8l2.7,3c-0.3,0.5-0.7,0.9-1.2,1.4
		c-0.5,0.4-1.1,0.8-1.8,1.2c-0.7,0.4-1.4,0.6-2.3,0.8C258,144.8,257.1,144.9,256,144.9z M255.4,127.9c-0.6,0-1.1,0.1-1.6,0.3
		c-0.5,0.2-0.8,0.5-1.2,0.9c-0.3,0.4-0.6,0.8-0.8,1.4c-0.2,0.5-0.4,1.1-0.4,1.7h7.7v-0.4c0-0.5-0.1-1.1-0.2-1.5
		c-0.1-0.5-0.4-0.9-0.7-1.2c-0.3-0.3-0.7-0.6-1.1-0.8C256.6,128,256.1,127.9,255.4,127.9z"/>
	<path d="M272.8,123.8l0.2,2.4c0.7-0.9,1.6-1.6,2.6-2.1c1-0.5,2.1-0.7,3.4-0.7c1,0,1.9,0.1,2.7,0.4c0.8,0.3,1.5,0.7,2.1,1.4
		c0.6,0.6,1,1.4,1.3,2.5c0.3,1,0.5,2.2,0.5,3.7v13.2H280v-13.2c0-0.7-0.1-1.2-0.2-1.6c-0.1-0.4-0.4-0.8-0.6-1
		c-0.3-0.3-0.6-0.4-1-0.5c-0.4-0.1-0.9-0.2-1.4-0.2c-0.8,0-1.5,0.2-2.1,0.5c-0.6,0.4-1.1,0.8-1.4,1.5v14.6h-5.5v-20.7H272.8z"/>
	<path d="M296.3,118.7v5.1h3.5v4.1h-3.5v10.3c0,0.4,0,0.8,0.1,1.1c0.1,0.3,0.2,0.5,0.4,0.7c0.2,0.2,0.4,0.3,0.7,0.3s0.6,0.1,0.9,0.1
		c0.3,0,0.6,0,0.9,0c0.3,0,0.5-0.1,0.7-0.1v4.2c-0.5,0.1-1,0.3-1.5,0.4c-0.5,0.1-1.2,0.1-1.8,0.1c-0.9,0-1.7-0.1-2.5-0.3
		c-0.7-0.2-1.4-0.6-1.9-1.1c-0.5-0.5-0.9-1.1-1.2-1.9c-0.3-0.8-0.4-1.7-0.4-2.8v-10.9h-3v-4.1h3v-5.1H296.3z"/>
</g>
</svg>
