<?xml version="1.0" encoding="utf-8"?>
<!-- Generator: Adobe Illustrator 22.0.1, SVG Export Plug-In . SVG Version: 6.00 Build 0)  -->
<svg version="1.1" id="English" xmlns="http://www.w3.org/2000/svg" xmlns:xlink="http://www.w3.org/1999/xlink" x="0px" y="0px"
	 viewBox="0 0 252.8 135.4" style="enable-background:new 0 0 252.8 135.4;" xml:space="preserve">
<g>
	<g>
		<g>
			<g>
				<g>
					<g>
						<g>
							<path d="M175.9,86.1c-7.7-2.3-13.4-9.5-13.4-18c0-1.5,0.2-3,0.5-4.5l12.2,1.6c0,0,4.7,0.2,4.5,8.5
								C179.6,81.8,175.9,86.1,175.9,86.1z"/>
							<path d="M186.8,86.1c7.7-2.3,13.4-9.5,13.4-18c0-1.5-0.2-3-0.5-4.5l-12.2,1.6c0,0-4.7,0.2-4.5,8.5
								C183.1,81.8,186.8,86.1,186.8,86.1z"/>
							<path d="M181.3,54.6c1.6,0,2.9,1.3,2.9,2.9c0,1.2-0.8,2.1-1.9,2.7c-0.1,0.1-0.2,0.1-0.2,0.3c0,0.2,0.6,0.3,0.9,0.4l16.4,1.9
								c-2.3-7.8-9.5-13.5-18.1-13.5h0c-8.5,0-15.8,5.7-18.1,13.5l16.4-1.9c0.3-0.1,0.8-0.2,0.9-0.4c0-0.2-0.1-0.3-0.2-0.3
								c-1-0.5-1.9-1.5-1.9-2.7C178.5,55.9,179.7,54.6,181.3,54.6L181.3,54.6z"/>
						</g>
						<g>
							<path d="M188.8,99.5l1.1-0.7c0,0-5.3-7.2-17.1-7.2c-6.1,0-9.2,2.4-13.4,2.4c0,0-1.7,0.2-3.4-0.8c0,0,2,2.9,9.3,2.9
								c5.4,0,9.2-3.1,12.9-3.1C183.4,93,187.2,97.6,188.8,99.5z"/>
						</g>
						<g>
							<path d="M172.4,99.5l-1.1-0.7c0,0,5.3-7.2,17.1-7.2c6.1,0,9.2,2.4,13.4,2.4c0,0,1.7,0.2,3.4-0.8c0,0-2,2.9-9.3,2.9
								c-5.4,0-9.2-3.1-12.9-3.1C177.8,93,174,97.6,172.4,99.5z"/>
						</g>
						<path d="M166.8,91c-0.2,0.6-2.5-0.1-4,0.3c-1.7,0.5-10.7,1.6-14.7-7.8c0,0,3.8,4,6.7,4.3c2.9,0.3,6.1,1,8.8,2.5l0.6,0.1
							c0,0-0.1-0.3-0.3-0.4c-0.4-0.2-3.2-1.1-4.5-5.6c-0.7-2.3-0.6-4-0.8-5.1c0,0,3.1,3.4,4.3,5.6C164.1,87.1,164.2,89.5,166.8,91z"
							/>
						<path d="M157.6,86.3c-0.2,0.2-0.8-0.1-1-0.2c-0.2-0.1-1.7-0.8-4.3-1.7c-2.5-0.9-7.3-4.9-6.8-11.8c0,0,0.7,2.6,2.6,4.3
							c1.9,1.7,2.6,1.9,3.8,3.3c1.2,1.4,3.9,4.6,4,4.5c0.1,0,0.1-0.2-0.1-0.4c-0.2-0.2-0.9-1.9-1.4-2.5c-0.5-0.6-1.8-4.7,0.2-9.7
							c0,0,2.1,3.7,2,7.3c-0.1,3.7-0.3,2.8,0.6,5.9C157.2,85.3,157.7,86.2,157.6,86.3z"/>
						<path d="M151.7,77.3c-0.1,0.1-0.7-0.7-1.1-1.4c-0.4-0.7-3.3-3.9-3.7-4.5c-0.4-0.6-3.7-4.6-1.2-10.5c0,0,0.2-0.1,0.2,1.3
							s1.3,4.5,2.3,5.8c1,1.3,2,3.4,2.2,5.7c0,0,0.1,0.4,0.3,0.5c0.2,0,0.2-0.4,0.2-0.4s-0.1-2.1-0.1-3.5c0-1.4,0.6-3.9,2-5.3
							c0,0,0.6-0.7,1-1.5c0,0,0.2-0.6,0.6-0.8c0,0,0.3,4-1.1,7.7c-1.4,3.7-1.8,4.3-1.6,6.4C151.7,76.8,151.7,77.3,151.7,77.3z"/>
						<path d="M149.4,66.3c-0.1,0-0.2-0.5-0.3-0.9c-0.1-0.4-0.5-2.6-0.8-3.1c-0.3-0.5-1.3-2.7-1.4-5.3c0-2.6,1.1-6.2,3.8-9
							c0,0-0.1,0.8-0.8,2.7c-0.7,1.8-0.3,3.6-0.2,3.9c0.1,0.3,0.3,2.5,0.3,3.5c0,0.8-0.2,3.5-0.4,4.1c0,0-0.1,0.4,0.1,0.4
							s0.3-0.3,0.3-0.3s0.1-2.2,1.7-4.1c1.6-1.9,4.5-3.1,4.9-4c0,0-0.2,3.1-3.6,6.6c-3,3.2-2.1,1.6-3.1,4.2c0,0-0.4,1-0.4,1.2
							C149.6,66.4,149.4,66.3,149.4,66.3z"/>
						<path d="M151.2,56c0,0-0.1-0.4,0.5-1.4c0.5-0.9,0-2.6,0.7-5s2-6.6,6.9-9.1c0,0-0.5,0.5-0.7,0.8c-0.2,0.3-1.6,2.9-1.9,4.6
							c-0.4,1.7-2.1,4.7-2.7,5.3c-0.6,0.7-0.3,0.7-0.3,0.7s0.3-0.1,0.6-0.6c0.3-0.5,1.9-2.3,3.7-2.7c1.8-0.4,4.6-1.3,4.8-1.4
							c0,0-3.1,3.1-5.9,4.7c-2.8,1.6-3.1,1.1-4.8,3.3C151.9,55.3,151.3,56,151.2,56z"/>
						<path d="M158,46.8c0,0,0-0.3,0.5-0.8c0.5-0.5,1-1.9,1.9-3.3c0.9-1.4,3-4.9,8.3-5.7c0,0-1.6,1.2-1.8,1.6
							c-0.2,0.4-1.8,2.4-2.5,3.1c-0.7,0.7-2.7,2.2-3.3,2.5c0,0-0.3,0.3-0.3,0.4c0.1,0.1,0.4-0.1,0.4-0.1s1.8-1.4,4.1-1.5
							c2.2-0.1,4.6,0,4.9,0.1c0,0-2.1,1.4-7.1,2.3c-5,0.9-4,0.9-4.8,1.4C158.3,46.7,158.1,46.9,158,46.8z"/>
						<path d="M166.8,41c0,0,0.1-0.3,0.9-0.5c0.8-0.2,0.7-1,3.2-2.3c2.4-1.3,5-1.9,7.5-0.8c0,0-1.1,0.1-1.3,0.2
							c-0.2,0.1-2,0.6-2.5,0.8c-0.5,0.3-3.2,1.5-4.3,1.7c-1.1,0.2-0.6,0.3-0.6,0.3s0.2,0.1,0.5,0.1c0.2,0,2.6-0.2,4.2,0.3
							c1.6,0.6,1.5,0.8,2.2,1c0.6,0.2,1.4,0.3,1.5,0.6c0,0-1.6,0.1-2.5,0.1c-0.9,0-3.4-0.2-4.6-0.8c-1.2-0.6-2.5-0.8-3-0.7
							C167.5,41.1,167,41.1,166.8,41z"/>
						<path d="M176.7,39.8c0,0,0.1-0.1,0.8-0.3c0.7-0.1,0.9-0.6,2.5-0.9c1.6-0.3,4.2-0.7,6.5,0.9c0,0-1.4,0-1.7,0s-3,0.5-3.7,0.5
							c-0.6,0-1.9-0.3-2.1-0.1c-0.2,0.2,1.1,0.5,1.4,0.6c0.2,0.1,1.1,0.1,2.3,1.3s2,1.8,2.2,1.8c0,0-3.5-0.8-4.3-1.3s-2.4-2-2.6-2.1
							C177.7,40.1,176.7,39.8,176.7,39.8z"/>
						<path d="M184.7,41.2c0,0,2.2-0.1,3.8,0.9c1.6,1,2.9,2.3,3,3.1c0,0-0.9-0.8-1.5-0.9c-0.6-0.2-2.3-1.1-2.6-1.3
							C187.1,42.8,185.1,41.5,184.7,41.2z"/>
						<path d="M195,91.4c0,0,0.3-0.3,1.4-1.2c1-0.9,1.3-2.2,2.5-4.3c1.1-2.1,2.1-3.5,4.5-5.6c0,0-0.4,1.6-0.5,2.1
							c0,0.5-0.4,3.2-1.7,4.8c-1.3,1.6-1.4,1.9-2.9,2.9c0,0-0.6,0.4-0.6,0.6c0,0.1,1,0,1,0s1.1-0.4,1.5-0.6c0.3-0.2,1.9-1,2.5-1.3
							c0.6-0.2,1.1-0.5,2.5-0.9c1.4-0.4,6.4-1.7,8.4-4.9c0,0-0.6,1.9-1.3,2.7c-0.7,0.9-4.9,6.3-10.6,6.2c0,0-2.3-0.2-3.4-0.4
							c-1.2-0.2-1.6-0.2-1.8-0.2C196.3,91.3,195.2,91.5,195,91.4z"/>
						<path d="M207.9,71.9c0,0-2.2,3.4-2.6,8.2c-0.5,4.9,0.3,3.4-0.5,5.6c0,0-0.3,0.6-0.2,0.6c0.1,0,0.5-0.2,2.1-1.1
							c1.5-0.9,3-0.7,6.3-3.8c3.3-3.1,3.9-9.4,4-9.9c0,0-0.5,0.5-0.7,1.3c-0.2,0.8-0.8,1.5-0.9,1.6c-0.1,0.1-3.7,4-4.1,4.3
							c-0.4,0.3-2.5,2.9-3,3.6c-0.5,0.7-1.8,2.1-2,1.9c0,0,0-0.3,0.1-0.6c0.1-0.2,1.1-1.6,1.5-3.1c0.4-1.5,0.5-2.5,0.6-3.4
							C208.5,76.2,207.9,72.6,207.9,71.9z"/>
						<path d="M210.8,76.6c0,0-0.2-0.5,0-0.9c0.1-0.2,0.2-1.9-0.4-3.2c-0.6-1.4-2-5.1-1.9-7.6c0.1-2.5,0.4-2.9,0.4-2.9
							s0.7,2.1,0.9,2.4s2.3,4,2.1,6.1c-0.2,2-0.3,2.6-0.2,2.7c0.1,0,0.3-0.2,0.4-0.5c0-0.2,0.4-1.6,1-3.3c0.7-1.6,3.3-5.3,3.9-7.7
							c0,0,0.9,4.2-1.5,8.1c-2.3,3.9-2.6,3-3.5,4.8C211.1,76.4,210.9,76.6,210.8,76.6z"/>
						<path d="M212.9,65.5c-0.2,0-0.1-1.6-0.5-2.2c-0.4-0.5-4-4.8-4.8-9c0,0,2.3,2.3,2.6,2.5c0.4,0.2,1.9,1.8,2.4,3.1
							c0.5,1.3,0.3,2.4,0.5,2.5s0.2-1.5,0.2-1.5s0-2.9,0.3-4.3c0.2-1.4,0.9-3.7,0.6-4.9c0,0,1.4,2.2,1.3,5.2
							c-0.1,3.1-1.4,5.5-1.5,5.8s-0.7,1.8-0.7,2.2S212.9,65.5,212.9,65.5z"/>
						<path d="M208.7,43.8c0,0,4.7,2.8,4,12.1c0,0,0,0.4-0.3,0c-0.3-0.5-1.3-1.7-1.7-2c-0.5-0.3-4.6-2.8-6.4-6.7
							c0,0,0.3-0.1,0.7,0.3c0.4,0.4,1.7,1,1.9,1.1c0.2,0.1,1.7,0.5,2.7,1.7s1.5,2.1,1.8,2.7c0,0,0.3,0.2,0.1-0.5
							c-0.2-0.7-0.2-1.1-0.8-2c-0.6-0.9-1-2.4-1.1-3.5C209.5,45.9,209.1,44.3,208.7,43.8z"/>
						<path d="M207.9,47c0,0,0.1-0.6-0.3-1.5c-0.5-0.9-0.1-1.8-1.5-4.1c-0.8-1.3-3.6-2.3-3.6-2.3s0.8,1.1,1.3,1.7
							c0.5,0.6,0.7,1.1,0.9,1.4s1.1,1.2,1.5,1.8c0.1,0.1,0.2,0.4,0.2,0.6s-0.4-0.1-0.5-0.2c-0.1-0.1-1.8-1.4-2.9-1.6
							c-1.1-0.2-3.1-0.4-3.7-0.7c0,0,2.4,2.2,5.1,2.9C207,45.6,207.9,47,207.9,47z"/>
						<path d="M202.4,41.3c0,0-2.4-3.3-6.8-3.2c0,0,0.2,0.2,0.7,0.3c0.5,0.1,1.4,1,1.8,1.3C198.6,39.9,199.5,40.6,202.4,41.3z"/>
					</g>
				</g>
			</g>
		</g>
	</g>
	<g>
		<g>
			<g>
				<path d="M57.7,53.7c1.3,3.9,3.9,7.2,7.7,8.7c-0.9,0.7-2,2.1-2.5,3.2c-3-1.4-5.1-3.9-6.7-6.9c-1.2,2.6-3.3,5.1-6.6,7.3
					c-0.6-0.8-1.8-2-2.8-2.7v2.3h-3.2v-5.5c-2.8,0.5-5.4,1-7.7,1.4l-0.7-3.5l1.8-0.2V40.4h-1.4V37H48v3.4h-1.2v15.8l2.2-0.4l0.3,3.3
					l-2.5,0.4v3.7c4.8-2.8,6.4-6.4,7-9.6h-5.6v-3.5h5.9v-0.4v-4.1h-5.3v-3.5h3.5c-0.6-1.4-1.8-3.3-2.9-4.6l3-1.4
					c1.3,1.4,2.6,3.3,3.2,4.7l-2.7,1.4h3.7c1-1.7,2.1-4.2,2.7-6l3.8,1c-0.9,1.7-1.9,3.6-2.8,5H64v3.5h-6v4.1v0.3h6.9v3.5H57.7z
					 M40.3,40.4v3.4h3.3v-3.4H40.3z M40.3,50.2h3.3v-3.4h-3.3V50.2z M43.6,56.7v-3.4h-3.3v3.9L43.6,56.7z"/>
				<path d="M85.8,37.4c-0.4,0.5-0.7,1-1.1,1.4c4.1,3.8,8.3,6,12.7,7.5c-1,0.9-2.1,2.3-2.6,3.5c-1.5-0.7-3.1-1.5-4.6-2.4v2.1h-16
					v-1.6c-1.4,0.9-2.8,1.7-4.3,2.3c-0.6-1.1-1.7-2.5-2.8-3.5c5.9-2.3,11.9-6.2,15.3-11.2L85.8,37.4z M72.1,52.2h20.6v13.2h-4.1
					v-1.3H76v1.4h-3.9V52.2z M76,55.6v5h12.7v-5H76z M88,46c-1.8-1.2-3.7-2.7-5.6-4.6c-1.6,1.7-3.4,3.2-5.3,4.6H88z"/>
				<path d="M127.5,37v28.6h-4.1V64h-18.9v1.6h-3.9V37H127.5z M123.4,60.5v-20h-18.9v20H123.4z M122.3,55.5v3.1h-16.6v-3.1h6.4v-3.8
					h-5.3v-3.2h5.3v-3h-6.1v-3.3h15.7v3.3h-6.1v3h5.4v3.2h-1.8c0.9,0.9,1.9,2.1,2.4,2.8l-1.7,0.9H122.3z M115.7,55.5h3.2
					c-0.5-0.9-1.4-1.9-2.2-2.8l1.9-1h-3V55.5z"/>
			</g>
		</g>
		<g>
			<g>
				<path d="M44.7,91.1l0.4,1.9c-3.1,1.2-6.5,2.4-9,3.3l-0.5-2c1.1-0.4,2.5-0.8,4-1.4v-8.8h-3.4v-2h3.4V75h-3.9V73H45V75h-3.5v7.2
					h2.9v2h-2.9v8.1L44.7,91.1z M64.2,72.9v2h-6.9c-0.5,1.4-1.1,2.8-1.7,4.1v20.7h-2.1V82.9c-1.8,3-3.9,5.6-6.3,7.6
					c-0.4-0.4-1.2-1.2-1.7-1.6c4.1-3.2,7.4-8.2,9.4-13.9h-8.3v-2H64.2z M57.4,80.4c2.4,2.6,5.3,6.2,6.7,8.4l-1.7,1.3
					c-1.3-2.2-4.2-5.9-6.6-8.6L57.4,80.4z"/>
				<path d="M77.4,91.9c-3.2,1.3-6.6,2.6-9.3,3.6l-0.7-2.1c1.1-0.4,2.5-0.9,4.1-1.4V80.5h-3.6v-2h3.6v-7.4h2v7.4h3.2v2h-3.2v10.7
					L77,90L77.4,91.9z M92.8,97.8c0.4,0,1,0,1.2-0.1c0.3-0.1,0.5-0.3,0.6-0.7c0.1-0.4,0.1-1.5,0.2-2.8c0.4,0.4,1.2,0.8,1.7,0.9
					c-0.1,1.3-0.2,2.6-0.4,3.1c-0.2,0.5-0.6,0.8-1.2,1c-0.4,0.1-1.3,0.2-1.9,0.2h-2.1c-0.7,0-1.7-0.1-2.1-0.5
					c-0.5-0.3-0.8-0.8-0.8-2.5v-4.9h-3c-0.5,4.7-2.2,7-8,8.4c-0.2-0.5-0.7-1.3-1.2-1.7c5.3-1.1,6.7-2.9,7.1-6.7h-3.4v-9h14.4v9h-4
					v5.1c0,0.5,0.1,0.9,0.3,1c0.2,0.1,0.5,0.2,0.9,0.2H92.8z M95.6,80.8H77.9V79h4.6c-0.2-0.9-0.6-2.2-1.1-3.3l1.8-0.4
					c0.4,1,1,2.4,1.2,3.2L82.9,79h5.7c0.5-1.1,1.1-2.6,1.4-3.5l2,0.5c-0.5,1.1-1,2.2-1.4,3.1h5V80.8z M94.8,75H78.9v-1.8h7
					c-0.3-0.7-0.6-1.5-0.9-2.2l2-0.4c0.4,0.8,0.8,1.8,1.1,2.6h6.7V75z M81.4,86.3h10.4v-2.2H81.4V86.3z M81.4,90h10.4v-2.3H81.4V90z
					"/>
				<path d="M117.6,86.9c-1.6,0.8-3.3,1.6-5,2.3h12.6v10.5h-2v-1h-14.4v1.1h-2v-8.4c-2.1,0.6-4.2,1.2-6.3,1.8
					c-0.2-0.4-0.7-1.4-1.1-1.8c4.8-1.1,9.7-2.6,14-4.5H100v-1.8h12.1v-2.6h-8.9v-1.7h8.9v-2.3h2v2.3h7.3v1.5
					c1.2-0.8,2.3-1.8,3.3-2.7l1.7,1.1c-1.7,1.6-3.6,3.1-5.8,4.4h7.6v1.8H117.6z M126.5,78.5h-24.7V72h24.7V78.5z M109.3,73.6h-5.4
					v3.3h5.4V73.6z M123.2,90.9h-14.4v2.3h14.4V90.9z M123.2,97.1v-2.5h-14.4v2.5H123.2z M116.8,73.6h-5.6v3.3h5.6V73.6z M117,85.2
					c1.5-0.8,2.9-1.7,4.2-2.6h-7.1v2.6H117z M124.4,73.6h-5.7v3.3h5.7V73.6z"/>
			</g>
		</g>
	</g>
</g>
</svg>
