<?xml version="1.0" encoding="utf-8"?>
<!-- Generator: Adobe Illustrator 22.0.1, SVG Export Plug-In . SVG Version: 6.00 Build 0)  -->
<svg version="1.1" id="English" xmlns="http://www.w3.org/2000/svg" xmlns:xlink="http://www.w3.org/1999/xlink" x="0px" y="0px"
	 viewBox="0 0 337.2 142.1" style="enable-background:new 0 0 337.2 142.1;" xml:space="preserve">
<g>
	<g>
		<path d="M170.9,63.5c-1.1,0-2-0.1-2.7-0.5s-1.5-0.8-2.2-1.5c-0.8,0.7-1.6,1.2-2.6,1.5c-1,0.3-2,0.5-3,0.5h-2.7
			c-0.9,0-1.5,0.2-1.9,0.5c-0.4,0.4-0.5,0.9-0.5,1.8v7.2h-4.4v-8.7c0-1.3,0.3-2.3,1-3.1c0.7-0.8,1.6-1.2,2.9-1.3
			c-0.5-1.3-0.8-2.6-0.8-4.1c0-0.9,0.2-1.8,0.5-2.8c0.3-1,0.7-1.9,1.1-2.5c0.9-0.5,1.9-0.9,3-1.2c1.1-0.3,2.1-0.5,2.9-0.5
			c1.4,0,2.6,0.3,3.7,0.9c1.1,0.6,2,1.4,2.6,2.5c0.6,1.1,0.9,2.3,0.9,3.7c0,1-0.2,2.1-0.6,3c0.4,0.4,0.8,0.7,1.2,0.9
			c0.5,0.2,1.1,0.2,1.8,0.2h0.1c0.1,0,0.1,0,0.1,0.1v3.3c0,0.1,0,0.1-0.1,0.1H170.9z M158,56.5c0,1,0.2,2.2,0.7,3.5h1.1
			c1.2,0,2.2-0.4,3-1.2c0.8-0.8,1.2-1.8,1.2-2.9c0-1.1-0.3-1.9-0.8-2.5c-0.5-0.6-1.2-0.9-2-0.9c-0.9,0-1.8,0.3-2.8,0.8
			C158.1,54.2,158,55.3,158,56.5z"/>
		<path d="M174.1,60c-0.5-1.2-0.8-2.6-0.8-4.1c0-0.9,0.1-1.8,0.4-2.8c0.3-1,0.6-1.9,1.1-2.6c1-0.6,2-1,3.1-1.3
			c1.1-0.3,2-0.4,2.8-0.4c1.4,0,2.6,0.3,3.7,0.9c1.1,0.6,2,1.4,2.6,2.5c0.6,1.1,0.9,2.3,0.9,3.7c0,1.5-0.4,2.8-1.1,4
			c-0.7,1.2-1.7,2.1-2.9,2.7c-1.2,0.6-2.6,1-4.1,1h-9c-0.1,0-0.1,0-0.1-0.1v-3.3c0-0.1,0-0.1,0.1-0.1H174.1z M177.4,56.5
			c0,1,0.2,2.2,0.7,3.5h1.1c1.2,0,2.2-0.4,3-1.2s1.2-1.8,1.2-2.9c0-1.1-0.3-1.9-0.8-2.5c-0.5-0.6-1.2-0.9-2-0.9
			c-0.9,0-1.8,0.3-2.8,0.8C177.6,54.2,177.4,55.3,177.4,56.5z"/>
		<path d="M190.2,60h5.4l-3.8-15h4.6l3.5,15h0.2c1,0,1.7-0.3,2.2-0.8c0.5-0.5,0.7-1.4,0.7-2.6V40.9h4.4v15.9c0,2-0.6,3.6-1.7,4.9
			c-1.1,1.2-2.7,1.8-4.6,1.8h-10.9V60z M190.5,41.7l1.7-0.3c-0.4-0.2-0.7-0.5-1-0.8c-0.3-0.3-0.4-0.7-0.4-1.2c0-0.9,0.3-1.5,0.9-2
			c0.6-0.5,1.4-0.7,2.4-0.7c1,0,1.8,0.2,2.4,0.5l-0.6,1.5c-0.5-0.3-1-0.4-1.6-0.4c-0.4,0-0.8,0.1-1,0.4c-0.3,0.3-0.4,0.6-0.4,1
			c0,0.3,0.1,0.6,0.3,0.8c0.2,0.2,0.4,0.4,0.6,0.5l0.5-0.1c1-0.2,1.8-0.3,2.4-0.3v1.7c-0.7,0-1.9,0.2-3.5,0.4
			c-1.6,0.2-2.6,0.3-2.8,0.4V41.7z"/>
		<path d="M212.3,40.9h4.4v22.6h-4.4V40.9z"/>
		<path d="M44.2,99.3c-2.4,0-4.2-0.6-5.6-1.8c-1.3-1.2-2-2.9-2-5.1c0-2.3,0.7-4.2,2.2-5.5c1.5-1.3,3.5-2,5.9-2h2v-1.9h2.5v14h3.4
			c0.1,0,0.1,0,0.1,0.1v2.1c0,0.1,0,0.1-0.1,0.1H44.2z M46.8,96.9v-9.8h-1.9c-1.8,0-3.2,0.5-4.1,1.4c-1,0.9-1.5,2.2-1.5,3.8
			c0,1.5,0.4,2.6,1.3,3.4c0.8,0.8,2,1.2,3.6,1.2H46.8z M42.7,80.2c-0.5,0-0.9-0.1-1.2-0.4C41.2,79.5,41,79,41,78.4
			c0-0.6,0.2-1.1,0.5-1.4s0.7-0.4,1.2-0.4c0.5,0,0.9,0.2,1.2,0.5c0.3,0.3,0.5,0.7,0.5,1.3c0,0.6-0.1,1-0.4,1.3
			C43.6,80,43.2,80.2,42.7,80.2z M47.8,80.2c-0.5,0-0.9-0.2-1.2-0.5c-0.3-0.3-0.5-0.8-0.5-1.3s0.1-1,0.4-1.3
			c0.3-0.3,0.7-0.5,1.2-0.5c0.5,0,0.9,0.2,1.2,0.5c0.3,0.3,0.4,0.8,0.4,1.3s-0.1,1-0.4,1.3C48.8,80,48.4,80.2,47.8,80.2z"/>
		<path d="M52.4,99.3c-0.1,0-0.1,0-0.1-0.1V97c0-0.1,0-0.1,0.1-0.1h4.8V84.8h2.6v12.1h4.5c0.1,0,0.1,0,0.1,0.1v2.1
			c0,0.1,0,0.1-0.1,0.1H52.4z M55.5,80.7l1.4-0.2c-0.7-0.5-1-1.1-1-1.9c0-0.9,0.3-1.5,0.8-2c0.6-0.5,1.3-0.7,2.2-0.7
			c0.8,0,1.4,0.1,2,0.5l-0.5,1.3c-0.4-0.2-0.9-0.4-1.5-0.4c-0.4,0-0.8,0.1-1.1,0.4c-0.3,0.2-0.5,0.6-0.5,1.2c0,0.3,0.1,0.6,0.3,0.9
			c0.2,0.2,0.4,0.4,0.6,0.5c0.2,0,0.7-0.1,1.4-0.2c0.8-0.1,1.3-0.2,1.6-0.2v1.5c-0.2,0-0.5,0-1.1,0.1c-0.5,0.1-1.6,0.2-3,0.4
			l-1.7,0.3V80.7z"/>
		<path d="M64.1,99.3c-0.1,0-0.1,0-0.1-0.1V97c0-0.1,0-0.1,0.1-0.1h4.8V84.8h2.6v12.1H76c0.1,0,0.1,0,0.1,0.1v2.1
			c0,0.1,0,0.1-0.1,0.1H64.1z M67.7,105.2c-0.5,0-0.9-0.1-1.2-0.4c-0.3-0.3-0.5-0.7-0.5-1.4s0.2-1.1,0.5-1.4
			c0.3-0.3,0.7-0.4,1.2-0.4c0.5,0,0.9,0.2,1.2,0.5c0.3,0.3,0.5,0.7,0.5,1.3c0,0.6-0.1,1-0.4,1.3C68.7,105.1,68.2,105.2,67.7,105.2z
			 M72.9,105.2c-0.5,0-0.9-0.2-1.2-0.5c-0.3-0.3-0.5-0.8-0.5-1.3s0.1-1,0.4-1.3c0.3-0.3,0.7-0.5,1.2-0.5c0.5,0,0.9,0.2,1.2,0.5
			c0.3,0.3,0.4,0.8,0.4,1.3s-0.1,1-0.4,1.3S73.4,105.2,72.9,105.2z"/>
		<path d="M75.7,99.3c-0.1,0-0.1,0-0.1-0.1V97c0-0.1,0-0.1,0.1-0.1h3.9V84.8h2.6v12.1h3.9c0.1,0,0.1,0,0.1,0.1v2.1
			c0,0.1,0,0.1-0.1,0.1H75.7z M80.8,105.2c-0.5,0-0.9-0.2-1.2-0.5c-0.3-0.3-0.5-0.8-0.5-1.3s0.1-1,0.4-1.3c0.3-0.3,0.7-0.5,1.2-0.5
			c0.5,0,0.9,0.2,1.2,0.5c0.3,0.3,0.4,0.8,0.4,1.3s-0.1,1-0.4,1.3S81.3,105.2,80.8,105.2z"/>
		<path d="M85.9,99.3c-0.1,0-0.1,0-0.1-0.1V97c0-0.1,0-0.1,0.1-0.1h3.9V76.6h2.6v20.3h3.9c0.1,0,0.1,0,0.1,0.1v2.1
			c0,0.1,0,0.1-0.1,0.1H85.9z"/>
		<path d="M96,99.3c-0.1,0-0.1,0-0.1-0.1V97c0-0.1,0-0.1,0.1-0.1h3.9V76.6h2.6v22.6H96z"/>
		<path d="M120.2,99.5c-2.4,0-4.3-0.6-5.5-1.7c-1.3-1.2-1.9-2.9-1.9-5.1c0-1.5,0.3-3,1-4.3c0.6-1.3,1.5-2.3,2.7-3.1
			c1.1-0.7,2.4-1.1,3.9-1.1c1.3,0,2.6,0.4,3.7,1.1c1.1,0.7,2,1.7,2.7,3.1c0.7,1.3,1,2.8,1,4.3c0,2.4-0.6,4.1-1.9,5.2
			C124.5,99,122.7,99.5,120.2,99.5z M117.3,82c-0.6,0-1.1-0.2-1.5-0.6c-0.4-0.4-0.5-0.9-0.5-1.6c0-0.7,0.2-1.2,0.5-1.6
			c0.4-0.4,0.8-0.6,1.5-0.6c0.6,0,1.1,0.2,1.4,0.6c0.3,0.4,0.5,0.9,0.5,1.6c0,0.7-0.2,1.2-0.5,1.6C118.3,81.8,117.9,82,117.3,82z
			 M120.1,95.9c1,0,1.8-0.3,2.3-0.8c0.5-0.6,0.7-1.4,0.7-2.5c0-1.3-0.3-2.4-0.9-3.3c-0.6-0.9-1.3-1.4-2.2-1.4s-1.6,0.5-2.2,1.4
			c-0.6,0.9-0.9,2-0.9,3.4c0,1.1,0.3,2,0.8,2.5C118.3,95.6,119.1,95.9,120.1,95.9z M122.3,82c-0.6,0-1.1-0.2-1.5-0.6
			c-0.4-0.4-0.5-0.9-0.5-1.6c0-0.7,0.2-1.2,0.5-1.6c0.4-0.4,0.8-0.6,1.5-0.6c0.6,0,1.1,0.2,1.5,0.6c0.3,0.4,0.5,0.9,0.5,1.6
			c0,0.7-0.2,1.2-0.5,1.6C123.4,81.8,122.9,82,122.3,82z"/>
		<path d="M130.2,95.7h9.9c-0.4-1.8-0.9-3.3-1.5-4.4c-0.6-1.1-1.3-2.1-2.2-2.9c-0.9-0.8-2-1.5-3.3-2l1.7-4.2c2.6,1,4.7,2.7,6.3,4.9
			c1.6,2.2,2.8,5.1,3.5,8.7h3.9c0.1,0,0.1,0,0.1,0.1v3.3c0,0.1,0,0.1-0.1,0.1h-18.3V95.7z"/>
		<path d="M148.2,99.3c-0.1,0-0.1,0-0.1-0.1v-3.3c0-0.1,0-0.1,0.1-0.1h12c-0.8-0.7-1.4-2.2-1.8-4.3c-0.3-1.3-0.7-2.3-1.2-2.8
			c-0.5-0.5-1.3-0.8-2.4-0.8c-0.7,0-1.4,0.1-2,0.3c-0.6,0.2-1.3,0.5-2,0.9l-1.3-3.3c1.8-0.9,3.8-1.4,6.2-1.4c2,0,3.5,0.4,4.6,1.3
			s1.8,2.4,2.2,4.4c0.5,3,1.2,4.9,2.1,5.7h1.9c0.1,0,0.2,0,0.2,0.1v3.3c0,0.1-0.1,0.1-0.2,0.1H148.2z"/>
		<path d="M166.3,99.3c-0.1,0-0.1,0-0.1-0.1v-3.3c0-0.1,0-0.1,0.1-0.1h4.6V84.5h4.4v11.2h4.5c0.1,0,0.1,0,0.1,0.1v3.3
			c0,0.1,0,0.1-0.1,0.1H166.3z M170.3,82c-0.6,0-1.1-0.2-1.5-0.6c-0.4-0.4-0.5-0.9-0.5-1.6c0-0.7,0.2-1.2,0.5-1.6
			c0.4-0.4,0.8-0.6,1.5-0.6c0.6,0,1.1,0.2,1.4,0.6c0.3,0.4,0.5,0.9,0.5,1.6c0,0.7-0.2,1.2-0.5,1.6C171.4,81.8,170.9,82,170.3,82z
			 M175.4,82c-0.6,0-1.1-0.2-1.5-0.6c-0.4-0.4-0.5-0.9-0.5-1.6c0-0.7,0.2-1.2,0.5-1.6c0.4-0.4,0.8-0.6,1.5-0.6
			c0.6,0,1.1,0.2,1.5,0.6c0.3,0.4,0.5,0.9,0.5,1.6c0,0.7-0.2,1.2-0.5,1.6C176.5,81.8,176,82,175.4,82z"/>
		<path d="M182.9,95.7c-0.5-1.2-0.8-2.6-0.8-4.1c0-0.9,0.1-1.8,0.4-2.8c0.3-1,0.6-1.9,1.1-2.6c1-0.6,2-1,3.1-1.3
			c1.1-0.3,2-0.4,2.8-0.4c1.4,0,2.6,0.3,3.7,0.9c1.1,0.6,2,1.4,2.6,2.5c0.6,1.1,0.9,2.3,0.9,3.7c0,1.1-0.2,2.1-0.6,3.1
			c0.4,0.4,0.8,0.7,1.2,0.8c0.5,0.2,1,0.2,1.7,0.2h0.2c0.1,0,0.1,0,0.1,0.1v3.3c0,0.1,0,0.1-0.1,0.1h-0.2c-1,0-2-0.1-2.7-0.4
			c-0.8-0.3-1.5-0.8-2.2-1.5c-0.8,0.7-1.6,1.2-2.6,1.5c-1,0.3-2,0.5-3,0.5h-9c-0.1,0-0.1,0-0.1-0.1v-3.3c0-0.1,0-0.1,0.1-0.1H182.9z
			 M186.2,92.2c0,1,0.2,2.2,0.7,3.5h1.1c1.2,0,2.2-0.4,3-1.2s1.2-1.8,1.2-2.9c0-1.1-0.3-1.9-0.8-2.5c-0.5-0.6-1.2-0.9-2-0.9
			c-0.9,0-1.8,0.3-2.8,0.8C186.3,90,186.2,91.1,186.2,92.2z"/>
		<path d="M198.9,99.3c-0.1,0-0.1,0-0.1-0.1v-3.3c0-0.1,0-0.1,0.1-0.1h3.7v-19h4.4v22.6H198.9z"/>
		<path d="M212.3,76.6h4.4v22.6h-4.4V76.6z"/>
	</g>
</g>
<g>
	<g>
		<g>
			<g>
				<g>
					<g>
						<path d="M262,87.4c-7.3-2.2-12.6-9-12.6-17c0-1.4,0.2-2.9,0.5-4.2l11.5,1.5c0,0,4.4,0.2,4.3,8C265.5,83.3,262,87.4,262,87.4z"
							/>
						<path d="M272.3,87.4c7.3-2.2,12.6-9,12.6-17c0-1.4-0.2-2.9-0.5-4.2l-11.5,1.5c0,0-4.4,0.2-4.3,8
							C268.7,83.3,272.3,87.4,272.3,87.4z"/>
						<path d="M267.1,57.7c1.5,0,2.7,1.2,2.7,2.7c0,1.2-0.8,2-1.8,2.5c-0.1,0.1-0.2,0.1-0.2,0.3c0,0.2,0.6,0.3,0.8,0.3l15.5,1.8
							c-2.2-7.3-9-12.7-17-12.7h0c-8.1,0-14.9,5.4-17,12.7l15.5-1.8c0.2-0.1,0.8-0.2,0.8-0.3c0-0.2-0.1-0.2-0.2-0.3
							c-1-0.5-1.8-1.4-1.8-2.5C264.4,58.9,265.6,57.7,267.1,57.7L267.1,57.7z"/>
					</g>
					<g>
						<path d="M274.2,100l1-0.7c0,0-5-6.8-16.1-6.8c-5.7,0-8.7,2.3-12.7,2.3c0,0-1.6,0.2-3.2-0.8c0,0,1.9,2.8,8.8,2.8
							c5,0,8.7-3,12.2-3C269.1,93.9,272.7,98.2,274.2,100z"/>
					</g>
					<g>
						<path d="M258.7,100l-1-0.7c0,0,5-6.8,16.1-6.8c5.7,0,8.7,2.3,12.7,2.3c0,0,1.6,0.2,3.2-0.8c0,0-1.9,2.8-8.8,2.8
							c-5,0-8.7-3-12.2-3C263.8,93.9,260.2,98.2,258.7,100z"/>
					</g>
					<path d="M253.4,92c-0.2,0.5-2.3-0.1-3.8,0.3c-1.6,0.5-10.1,1.5-13.9-7.3c0,0,3.5,3.8,6.3,4.1c2.8,0.3,5.8,0.9,8.3,2.4l0.6,0.1
						c0,0-0.1-0.3-0.3-0.4c-0.3-0.2-3-1-4.3-5.2c-0.7-2.2-0.5-3.7-0.8-4.9c0,0,2.9,3.2,4.1,5.2C250.8,88.3,251,90.6,253.4,92z"/>
					<path d="M244.7,87.5c-0.2,0.2-0.8-0.1-1-0.2c-0.2-0.1-1.6-0.7-4-1.6c-2.4-0.9-6.9-4.6-6.4-11.1c0,0,0.6,2.4,2.5,4
						c1.8,1.6,2.5,1.8,3.6,3.1c1.1,1.3,3.6,4.3,3.7,4.3c0.1,0,0.1-0.2-0.1-0.4c-0.2-0.2-0.9-1.8-1.3-2.4c-0.4-0.6-1.7-4.4,0.2-9.1
						c0,0,2,3.4,1.9,6.9c-0.1,3.5-0.3,2.7,0.6,5.5C244.4,86.7,244.8,87.4,244.7,87.5z"/>
					<path d="M239.1,79.1c-0.1,0.1-0.6-0.6-1-1.3c-0.4-0.7-3.1-3.6-3.5-4.2c-0.4-0.6-3.4-4.3-1.1-9.9c0,0,0.2-0.1,0.2,1.2
						c0,1.3,1.2,4.2,2.2,5.5c1,1.2,1.9,3.2,2.1,5.4c0,0,0.1,0.4,0.3,0.4c0.2,0,0.2-0.4,0.2-0.4s-0.1-2-0.1-3.3
						c0-1.3,0.6-3.6,1.9-4.9c0,0,0.6-0.7,1-1.4c0,0,0.2-0.5,0.6-0.8c0,0,0.3,3.8-1,7.3c-1.3,3.5-1.7,4.1-1.5,6
						C239.2,78.6,239.2,79,239.1,79.1z"/>
					<path d="M237,68.8c-0.1,0-0.2-0.5-0.3-0.8c-0.1-0.4-0.5-2.5-0.7-2.9c-0.3-0.5-1.2-2.6-1.3-5c0-2.5,1.1-5.8,3.6-8.5
						c0,0-0.1,0.8-0.8,2.5c-0.7,1.7-0.3,3.4-0.2,3.7c0.1,0.3,0.3,2.3,0.3,3.3c0,0.8-0.2,3.3-0.4,3.9c0,0-0.1,0.4,0.1,0.4
						c0.1,0,0.3-0.3,0.3-0.3s0.1-2,1.6-3.9c1.5-1.8,4.2-3,4.7-3.8c0,0-0.2,2.9-3.4,6.3c-2.8,3-2,1.5-2.9,3.9c0,0-0.4,0.9-0.4,1.1
						C237.2,68.8,237,68.8,237,68.8z"/>
					<path d="M238.7,59c0,0-0.1-0.4,0.4-1.3c0.5-0.9,0-2.5,0.6-4.8c0.7-2.3,1.9-6.2,6.5-8.6c0,0-0.5,0.4-0.7,0.8
						c-0.2,0.3-1.5,2.7-1.8,4.3c-0.4,1.6-1.9,4.4-2.5,5c-0.6,0.6-0.3,0.7-0.3,0.7s0.3-0.1,0.6-0.5c0.3-0.5,1.8-2.2,3.5-2.6
						c1.7-0.4,4.3-1.2,4.5-1.3c0,0-2.9,3-5.5,4.5s-3,1-4.5,3.1C239.4,58.3,238.9,59,238.7,59z"/>
					<path d="M245.1,50.3c0,0,0-0.3,0.5-0.7c0.5-0.5,1-1.8,1.8-3.1c0.9-1.3,2.8-4.6,7.8-5.4c0,0-1.5,1.1-1.7,1.5
						c-0.2,0.4-1.7,2.3-2.4,3s-2.5,2-3.1,2.3c0,0-0.3,0.3-0.3,0.4c0.1,0.1,0.4-0.1,0.4-0.1s1.7-1.3,3.8-1.4c2.1-0.1,4.3,0,4.6,0.1
						c0,0-2,1.3-6.7,2.2c-4.7,0.9-3.8,0.9-4.5,1.3C245.4,50.3,245.2,50.4,245.1,50.3z"/>
					<path d="M253.4,44.9c0,0,0.1-0.3,0.9-0.5c0.8-0.2,0.7-1,3-2.2c2.3-1.2,4.7-1.8,7.1-0.8c0,0-1,0.1-1.2,0.2
						c-0.2,0.1-1.9,0.5-2.4,0.8c-0.5,0.3-3,1.4-4,1.6c-1,0.2-0.5,0.3-0.5,0.3s0.2,0.1,0.4,0.1s2.5-0.2,3.9,0.3
						c1.5,0.5,1.4,0.7,2,0.9c0.6,0.2,1.3,0.3,1.4,0.6c0,0-1.5,0.1-2.4,0.1c-0.9,0-3.2-0.2-4.3-0.8c-1.1-0.5-2.4-0.8-2.8-0.7
						C254.1,45,253.6,45,253.4,44.9z"/>
					<path d="M262.7,43.7c0,0,0.1-0.1,0.8-0.3c0.7-0.1,0.8-0.5,2.4-0.9s3.9-0.6,6.1,0.9c0,0-1.3,0-1.6,0c-0.3,0-2.9,0.5-3.4,0.5
						c-0.6,0-1.8-0.3-1.9-0.1c-0.2,0.2,1.1,0.5,1.3,0.5c0.2,0.1,1.1,0.1,2.2,1.2c1.1,1.1,1.9,1.7,2,1.7c0,0-3.3-0.8-4.1-1.2
						c-0.8-0.5-2.2-1.9-2.5-2C263.7,44,262.7,43.7,262.7,43.7z"/>
					<path d="M270.3,45.1c0,0,2.1-0.1,3.6,0.9c1.5,1,2.7,2.2,2.9,3c0,0-0.9-0.7-1.4-0.9c-0.6-0.2-2.1-1-2.5-1.2
						C272.5,46.6,270.6,45.3,270.3,45.1z"/>
					<path d="M280,92.4c0,0,0.3-0.3,1.3-1.1c1-0.9,1.2-2.1,2.3-4c1.1-1.9,2-3.3,4.2-5.2c0,0-0.4,1.5-0.4,1.9c0,0.5-0.4,3-1.6,4.5
						c-1.2,1.5-1.3,1.8-2.8,2.7c0,0-0.6,0.4-0.5,0.5c0,0.1,1,0,1,0s1-0.4,1.4-0.6c0.3-0.2,1.8-1,2.4-1.2c0.6-0.2,1.1-0.5,2.4-0.9
						c1.3-0.4,6.1-1.6,7.9-4.6c0,0-0.6,1.8-1.2,2.6c-0.7,0.8-4.6,6-10,5.9c0,0-2.1-0.2-3.2-0.4c-1.1-0.2-1.5-0.2-1.7-0.2
						C281.2,92.3,280.2,92.5,280,92.4z"/>
					<path d="M292.1,74c0,0-2,3.2-2.5,7.8c-0.5,4.6,0.3,3.2-0.4,5.2c0,0-0.3,0.5-0.2,0.6c0.1,0,0.5-0.2,1.9-1.1
						c1.4-0.9,2.9-0.6,5.9-3.6c3.1-3,3.7-8.8,3.8-9.3c0,0-0.5,0.5-0.7,1.2c-0.2,0.8-0.7,1.4-0.8,1.5c-0.1,0.1-3.4,3.8-3.8,4.1
						c-0.4,0.3-2.4,2.7-2.8,3.4c-0.4,0.7-1.7,1.9-1.9,1.8c0,0,0-0.3,0.1-0.5c0.1-0.2,1-1.5,1.4-2.9c0.4-1.4,0.5-2.3,0.5-3.2
						C292.7,78.1,292.2,74.7,292.1,74z"/>
					<path d="M294.9,78.4c0,0-0.2-0.5,0-0.8c0.1-0.2,0.2-1.8-0.4-3c-0.6-1.3-1.9-4.8-1.8-7.2c0.1-2.4,0.4-2.7,0.4-2.7
						s0.7,1.9,0.9,2.3s2.2,3.8,2,5.7c-0.2,1.9-0.3,2.5-0.2,2.5c0.1,0,0.3-0.2,0.4-0.5c0-0.2,0.4-1.5,1-3.1c0.6-1.5,3.1-4.9,3.7-7.2
						c0,0,0.8,3.9-1.4,7.6c-2.2,3.7-2.4,2.9-3.3,4.5C295.1,78.2,295,78.4,294.9,78.4z"/>
					<path d="M296.9,68c-0.2,0-0.1-1.5-0.5-2c-0.4-0.5-3.8-4.5-4.5-8.5c0,0,2.1,2.2,2.5,2.4c0.4,0.2,1.8,1.7,2.2,2.9
						c0.4,1.2,0.3,2.3,0.5,2.3c0.2,0,0.2-1.4,0.2-1.4s0-2.8,0.3-4.1c0.2-1.3,0.8-3.5,0.6-4.6c0,0,1.3,2,1.2,4.9
						c-0.1,2.9-1.3,5.2-1.4,5.5s-0.6,1.7-0.6,2C297.3,67.8,296.9,68,296.9,68z"/>
					<path d="M292.9,47.5c0,0,4.4,2.6,3.7,11.4c0,0,0,0.4-0.3,0c-0.3-0.4-1.2-1.6-1.6-1.9c-0.4-0.3-4.4-2.7-6-6.3
						c0,0,0.3-0.1,0.7,0.3c0.4,0.4,1.6,1,1.8,1.1c0.2,0.1,1.6,0.5,2.6,1.6c1,1.1,1.4,1.9,1.7,2.6c0,0,0.3,0.2,0.1-0.4
						c-0.2-0.7-0.2-1.1-0.8-1.9c-0.5-0.8-1-2.3-1-3.3C293.6,49.5,293.3,48,292.9,47.5z"/>
					<path d="M292.1,50.6c0,0,0.1-0.6-0.3-1.4c-0.4-0.8-0.1-1.7-1.4-3.9c-0.8-1.2-3.4-2.2-3.4-2.2s0.8,1,1.2,1.6
						c0.5,0.6,0.7,1,0.8,1.3c0.2,0.3,1.1,1.2,1.4,1.7c0.1,0.1,0.2,0.4,0.2,0.5s-0.4-0.1-0.5-0.2c-0.1-0.1-1.7-1.3-2.7-1.5
						c-1-0.2-3-0.4-3.5-0.7c0,0,2.3,2.1,4.8,2.7C291.3,49.2,292.1,50.6,292.1,50.6z"/>
					<path d="M286.9,45.2c0,0-2.3-3.1-6.4-3c0,0,0.2,0.2,0.7,0.3c0.5,0.1,1.3,0.9,1.7,1.2C283.4,43.9,284.3,44.5,286.9,45.2z"/>
				</g>
			</g>
		</g>
	</g>
</g>
</svg>
